<svg width="60" height="48" viewBox="0 0 60 48" fill="none" xmlns="http://www.w3.org/2000/svg">
<path fill-rule="evenodd" clip-rule="evenodd" d="M1.70523 0.170557C1.10621 0.38237 0.298548 1.23114 0.134765 1.82068C-0.0467081 2.47403 -0.0440135 45.5303 0.13746 46.1858C0.309678 46.8072 1.20064 47.6976 1.82238 47.8697C2.15475 47.9617 7.06472 47.9995 18.709 47.9999C34.5762 48.0006 35.1361 47.9933 35.3977 47.7816C35.7739 47.4771 35.7739 46.7678 35.3977 46.4634C35.1361 46.2517 34.5762 46.2443 18.733 46.2443H2.33892L2.05142 45.9569L1.76381 45.6695V28.1009V10.5324H23.4802H45.1967L45.5054 10.2897C45.9089 9.97248 45.9262 9.39055 45.543 9.03063L45.2718 8.77608H23.5179H1.76381V5.55088V2.32557L2.05142 2.03823L2.33892 1.75078H29.9982H57.6574L57.9449 2.03823L58.2325 2.32557V5.55088V8.77608H53.221C47.7836 8.77608 47.8028 8.77385 47.6409 9.41831C47.5552 9.75938 47.8178 10.35 48.1039 10.4597C48.2082 10.4996 50.5298 10.5324 53.263 10.5324H58.2325V28.1009V45.6695L57.9449 45.9569L57.6574 46.2443H47.8854C38.1768 46.2443 38.1115 46.2458 37.8048 46.487C37.3779 46.8226 37.3779 47.4223 37.8048 47.7579C38.1115 47.9991 38.1761 48.0006 47.9094 47.9999C54.5485 47.9996 57.8519 47.9587 58.16 47.8731C58.7646 47.7054 59.6591 46.8033 59.8467 46.1722C60.043 45.5115 60.0548 2.51677 59.8589 1.80932C59.6867 1.18794 58.7957 0.297481 58.1739 0.125361C57.8371 0.0322761 49.8969 -0.00296754 29.9396 0.000193842C6.30016 0.00405776 2.10426 0.029349 1.70523 0.170557ZM5.4324 3.96269C4.96343 4.25717 4.79671 4.56523 4.78863 5.15196C4.77117 6.41651 6.26888 7.10511 7.16676 6.24545C7.8035 5.63577 7.82541 4.66897 7.2155 4.09629C6.80721 3.71295 5.93429 3.64749 5.4324 3.96269ZM9.64072 4.14207C9.24708 4.50259 9.20315 4.60176 9.20315 5.12878C9.20315 5.86058 9.51009 6.31113 10.1667 6.5432C11.7683 7.10886 12.8343 4.72377 11.3483 3.8997C11.1995 3.81715 10.8528 3.74772 10.578 3.74538C10.1693 3.74198 9.99875 3.81423 9.64072 4.14207ZM14.2716 3.92452C13.8535 4.15121 13.5965 4.66335 13.5965 5.26928C13.5965 5.66352 13.6699 5.82861 13.9855 6.14405C14.7415 6.89962 15.841 6.7426 16.3254 5.80988C16.6276 5.22772 16.5148 4.64403 16.0006 4.13013C15.6767 3.80638 15.5262 3.7421 15.1019 3.74596C14.8217 3.74854 14.4479 3.82886 14.2716 3.92452ZM12.381 18.081C11.8054 18.286 11.1704 18.8861 10.8902 19.4897C10.6854 19.9308 10.6727 20.4026 10.6729 27.6273L10.6731 35.2966L10.9925 35.878C11.2121 36.2778 11.492 36.5705 11.8881 36.8147L12.4644 37.17L15.4851 37.2048C18.3971 37.2382 18.5146 37.2309 18.7458 36.9999C19.1002 36.6457 19.0667 36.0212 18.6769 35.7149C18.3848 35.4852 18.2226 35.4722 15.6512 35.4722C12.9628 35.4722 12.9317 35.4694 12.6796 35.2013L12.4249 34.9302V27.5404V20.1506L12.7336 19.908L13.0423 19.6653H29.9982H46.954L47.2627 19.908L47.5714 20.1506V27.5568V34.963L47.3003 35.2177L47.0291 35.4722H34.2532C21.5057 35.4722 21.4768 35.4728 21.1688 35.7149C20.7819 36.019 20.7455 36.6457 21.0944 36.9944C21.3259 37.2257 21.4849 37.2285 34.3195 37.2285H47.3104L47.9388 36.9015C48.4236 36.6492 48.6543 36.4295 48.948 35.9407L49.3287 35.3069L49.3262 27.6324C49.3238 20.461 49.3096 19.9273 49.1101 19.4897C48.8358 18.8874 48.0637 18.1933 47.4919 18.0345C47.1854 17.9495 41.6519 17.9117 29.9396 17.9147C15.6942 17.9184 12.759 17.9463 12.381 18.081ZM20.21 22.2566C20.0779 22.3206 19.9156 22.4619 19.8491 22.5706C19.7826 22.6793 18.9186 24.8953 17.9291 27.495C16.2159 31.9957 16.1381 32.2366 16.3019 32.5283C16.5204 32.9172 17.0033 33.0959 17.4333 32.947C17.6984 32.8552 17.8274 32.6535 18.1611 31.8096L18.5666 30.7836L20.7327 30.8155L22.8989 30.8472L23.2334 31.7235C23.4173 32.2054 23.6521 32.6928 23.7551 32.8066C24.1845 33.2807 25.1948 32.8617 25.1948 32.2094C25.1948 32.0654 24.4059 29.8558 23.4417 27.2993C21.593 22.3977 21.4466 22.115 20.7656 22.1321C20.592 22.1364 20.342 22.1924 20.21 22.2566ZM38.6917 22.3459C37.3822 22.798 36.6123 23.8261 36.6237 25.1074C36.631 25.9181 36.9333 26.6092 37.4831 27.0716C37.675 27.2328 38.5993 27.6703 39.5373 28.0434C41.8025 28.9449 42.3622 29.4989 41.8649 30.3476C41.4654 31.0293 41.0995 31.1988 40.0352 31.1953C38.9863 31.1918 38.4584 30.9947 37.6889 30.3196C36.7129 29.4631 35.5526 30.4252 36.346 31.4332C36.7437 31.9386 37.8811 32.6135 38.7157 32.8392C39.7766 33.1262 41.0957 33.0407 41.8941 32.6332C43.2388 31.9468 43.994 30.5685 43.713 29.3136C43.4531 28.1527 42.6657 27.3994 41.0311 26.748C38.7405 25.8351 38.5774 25.7502 38.4309 25.3965C38.3182 25.1246 38.3182 24.9779 38.431 24.7058C38.6642 24.143 39.0815 23.9413 40.0149 23.9405C40.7492 23.9399 40.9236 23.9882 41.682 24.402C42.4 24.7935 42.5782 24.8468 42.8501 24.7512C43.301 24.5927 43.5544 24.1067 43.4066 23.6835C43.1555 22.9651 41.2911 22.1204 39.9733 22.128C39.6096 22.1301 39.0328 22.2281 38.6917 22.3459ZM27.378 22.601L27.0693 22.8436V27.6944C27.0693 32.4533 27.0739 32.5496 27.3133 32.7889C27.5446 33.02 27.6601 33.0307 29.513 32.9938C31.4524 32.9552 31.4754 32.9515 32.2504 32.5699C33.1339 32.1348 33.8191 31.4365 34.2739 30.5074C35.3156 28.3793 34.9893 25.3473 33.5468 23.7517C32.5989 22.7029 31.5424 22.3629 29.2232 22.3602C27.8445 22.3585 27.6549 22.3833 27.378 22.601ZM31.0664 24.2336C32.1468 24.5336 32.8129 25.4279 33.0572 26.9063C33.3229 28.5142 32.7623 30.1948 31.733 30.8764C31.2953 31.166 31.1246 31.2025 30.0365 31.2384L28.8266 31.2783V27.6965V24.1146L29.7346 24.1153C30.2339 24.1157 30.8332 24.1688 31.0664 24.2336ZM21.5014 27.1375C21.8703 28.124 22.1476 28.9554 22.1176 28.9854C22.0877 29.0154 21.4312 29.025 20.6588 29.0068L19.2543 28.9738L19.9693 27.0794C20.3626 26.0375 20.7173 25.2208 20.7576 25.2646C20.7977 25.3082 21.1325 26.1512 21.5014 27.1375Z" fill="url(#paint0_linear_472_739)"/>
<defs>
<linearGradient id="paint0_linear_472_739" x1="12.6329" y1="8.1248e-07" x2="36.9874" y2="52.6596" gradientUnits="userSpaceOnUse">
<stop stop-color="#6386FF"/>
<stop offset="1" stop-color="#938AFF"/>
</linearGradient>
</defs>
</svg>
