<svg width="140" height="140" viewBox="0 0 140 140" fill="none" xmlns="http://www.w3.org/2000/svg">
<path d="M104.906 19.6628C105.241 18.8555 104.572 18.0958 104.572 18.0958C104.572 18.0958 99.3114 9.26347 80.8051 7.26909C70.8585 6.22441 57.3733 8.2188 47.905 13.2997C30.6899 22.4644 28.1076 37.6122 28.1076 37.6122C28.012 37.9921 27.8685 39.1318 28.2511 39.6066C28.6336 40.0815 29.2075 40.0815 29.9247 39.844C35.9979 37.8022 54.026 31.8665 65.4071 28.8749C81.618 24.6012 94.9597 21.9896 103.472 20.565C104.141 20.4225 104.667 20.2326 104.906 19.6628Z" fill="#FAAF18"/>
<path d="M124.182 90.9763C114.43 112.617 95.7428 127.661 71.1946 127.993C53.372 128.231 37.615 122.203 26.2296 111.668L19.3599 114.563V104.027C11.8658 94.061 7.49417 81.3898 7.49417 67.0576C7.49417 30.278 35.9816 1.32881 75.7584 1.32881C82.2437 1.32881 88.1046 2.32542 92.5242 3.32203C85.7026 1.18644 78.929 0 71.3868 0C28.7277 0 0 34.1695 0 69.4305C0 107.824 30.5051 140 70.5221 140C108.762 140 129.371 113.376 136 97.3356L124.182 90.9763Z" fill="#185494"/>
<path d="M114.686 82.8862C120.377 82.2773 124.318 80.0758 126.458 78.0149C128.404 76.1413 128.89 73.6119 128.89 71.6915C128.988 68.8811 128.89 60.0751 128.89 60.0751L113.859 63.2134C113.859 63.2134 113.859 64.2907 113.859 66.5859C113.907 68.8342 115.026 70.0521 117.459 69.6305C118.237 69.49 119.404 69.1621 119.404 69.1621V71.9257C119.404 71.832 119.648 73.4714 115.853 74.174C110.891 74.9234 108.654 71.9725 108.605 66.7733C108.702 61.1993 111.962 58.0142 115.951 57.1242C120.426 56.1406 122.956 57.1711 124.415 57.3584C129.377 58.061 130.788 50.8945 126.264 49.2083C122.907 47.8967 118.577 47.6625 114.443 48.4588C108.897 49.5361 98.0488 53.9859 98.0002 68.4595C97.9516 79.9821 106.756 83.7293 114.686 82.8862Z" fill="#ED1D21"/>
<path d="M66 96C66 96 70.5382 94.4444 70.9204 94.3502C74.551 93.1246 75.8885 90.9562 75.8885 87.2795C75.8408 83.2727 75.8408 75.4478 75.8408 75.4478L86.3981 87.4209C88.1178 89.165 90.2675 89.3064 92.2261 88.7407C94.2325 88.1751 95.9522 86.3367 96 83.7441C96 75.1178 96 54 96 54C96 54 93.2771 54.5657 91.0318 55.1785C88.4522 55.8855 86.4459 57.5354 86.4459 61.8721C86.4459 63.3805 86.4459 72.1953 86.4459 72.1953C86.4459 72.1953 80.4268 64.7946 76.5573 60.9764C74.5032 58.9495 71.0637 60.1751 71.0637 60.1751L66 61.6835V96Z" fill="#EE1C23"/>
<path d="M63 62C63 62 59.8571 62.9081 57.2857 63.864C53.9524 65.0588 52 67.0184 52 72.0846C52 76.7684 52 101 52 101C52 101 54.9048 99.9963 57.6667 98.9449C61.5238 97.4632 63 95.4559 63 91.3934C63 87.9044 63 62 63 62Z" fill="#ED1C23"/>
<path d="M47.0947 68.5165C44.174 67.1873 41.6843 68.6589 40.6309 70.2729L31.6773 85.4162V73.2161L21.0479 77.536L21 112L28.4693 108.914C28.4693 108.914 29.9536 108.487 30.8154 107.11C31.6294 105.829 31.5815 103.74 31.5815 103.74V92.8217L39.9127 101.604C41.7321 103.503 45.0837 104.452 48.0523 102.079C50.7336 99.9423 50.3027 96.2871 48.8184 94.6256L41.2533 87.0777C41.2533 87.0777 47.9087 76.634 49.0099 74.9251C50.4463 72.5515 49.7281 69.7033 47.0947 68.5165Z" fill="#EE1D23"/>
<path d="M43.0938 109.372C42.712 110.261 43.6189 111.15 43.6189 111.15C47.4373 115.876 64.477 121.865 82.9964 117.466C111.253 110.775 117.219 91.1703 117.887 88.4097C118.03 87.8482 118.126 86.9592 117.601 86.3977C117.171 85.9298 116.503 85.9298 115.644 86.1169C95.979 90.6556 63.3792 100.435 44.5257 108.342C43.7143 108.67 43.3802 108.81 43.0938 109.372Z" fill="#FAAF18"/>
<path d="M25.3303 64.6692C25.2834 62.7648 23.8278 61.7174 21.3391 63.0029V69.1445C21.3391 69.1445 22.1373 68.7636 22.7478 68.4779C24.2504 67.7638 25.3773 66.526 25.3303 64.6692ZM21.2921 59.0989C21.7617 58.9085 22.0904 58.7657 22.466 58.5752C23.8278 57.9087 24.8138 56.6233 24.8138 55.0045C24.8138 53.1478 23.3112 52.6717 21.2921 53.7191C21.2921 53.7667 21.2921 59.0989 21.2921 59.0989ZM31.9981 63.7646C32.092 68.6208 28.6642 71.1917 24.1564 73.0484L15 77V51.8147C15 51.8147 20.7756 49.4343 22.6538 48.7201C28.0068 46.7205 31.1529 49.1486 31.1529 52.7669C31.1529 55.195 30.1199 57.2422 27.9129 59.0513C30.0729 59.4322 31.9512 61.2413 31.9981 63.7646Z" fill="#EE1C23"/>
<path d="M50 42.3513C50 40.21 48.5321 39.6866 46.78 40.1624C45.3595 40.5907 43.7021 41.2093 43.7021 41.2093V56.8645C43.7021 58.4348 43.4654 60.3858 41.5239 60.8616C40.056 61.2423 39.3457 60.243 39.3457 58.6727V45.8725C39.3457 43.7312 37.8778 43.1126 36.1257 43.6836C34.1369 44.3498 33.0005 44.8257 33.0005 44.8257C33.0005 44.8257 33.0005 55.9128 33.0005 60.3382C32.9531 65.5249 36.5519 68.142 41.9501 66.5241C46.7327 65.0966 49.9526 62.3843 50 55.4846V42.3513Z" fill="#ED1D1F"/>
<path d="M102.747 49.3037C104.137 49.0148 105 48.0037 105 46.2704C105 44.7296 105 43.5259 105 43.5259L97.4247 45.2111V40.7333C97.4247 40.7333 101.164 39.963 102.171 39.7222C103.466 39.4333 104.137 38.7111 104.137 37.2185C104.137 35.8222 104.137 34.6185 104.137 34.6185L97.4247 36.063V32.5C97.4247 32.5 100.925 31.7778 102.795 31.3926C104.281 31.1037 104.76 30.0926 104.76 28.6963C104.76 27.7815 104.76 26 104.76 26C101.404 26.5778 95.0274 27.8778 91.0479 28.7926L91 52C91 52 98.5753 50.2185 102.747 49.3037Z" fill="#EE1C23"/>
<path d="M58.4194 47.8187C58.4194 47.8187 62.2127 45.9061 62.2127 42.9206C62.1641 40.3549 59.7325 40.9147 58.4681 41.3812L58.4194 47.8187ZM58.4681 51.3174C58.4681 51.3174 58.4681 55.6091 58.4681 57.3818C58.4681 59.0145 57.3009 60.1807 55.8419 60.7405C55.8419 60.7871 55.8419 60.6938 55.8419 60.7405C54.6261 61.1603 52 62 52 62V38.8155C52 38.8155 57.3982 36.9962 60.5592 36.2964C65.4224 35.1769 68.9239 37.3227 68.8753 41.1479C68.8267 44.7865 66.7355 46.979 64.8388 48.5185L69.0212 52.3437C70.2856 53.5565 70.3829 55.7024 68.9726 57.0086C68.0972 57.8016 65.8115 58.5946 64.0607 56.822C64.0121 56.822 58.4681 51.3174 58.4681 51.3174Z" fill="#EE1D23"/>
<path d="M112.117 35.1212C112.117 35.1212 115.74 33.7481 115.693 30.8124C115.645 28.3503 113.246 28.7764 112.07 29.0605L112.117 35.1212ZM106 48V25.462C106 25.462 112.54 24.2783 114.234 24.0889C118.939 23.4734 122.092 26.1249 121.997 29.8181C121.95 33.0852 119.927 35.0738 118.186 36.2575C118.186 36.2575 121.386 39.856 122.233 40.8504C123.362 42.1288 123.315 44.3542 121.621 45.4432C119.974 46.4848 118.28 45.964 117.339 44.875L112.117 38.625C112.117 38.625 112.117 42.4602 112.117 44.1174C112.117 45.7746 111.129 47.0057 109.435 47.3371L106 48Z" fill="#EE1D23"/>
<path d="M90 38.2989L80.3431 40.3943C80.3431 40.3943 80.3431 41.3722 80.3431 42.9554C80.3431 44.1661 81.2255 44.9112 82.5 44.6784C83.2843 44.5387 83.9216 44.399 83.9216 44.399V46.9601C83.9216 47.9845 82.3529 48.6364 80.6863 48.5899C78.3333 48.4967 77.0588 46.7738 77.0098 43.5142C77.0588 39.2302 79.2157 36.7156 82.1078 36.0172C83.5294 35.6446 84.8529 35.8309 85.8824 35.9706C88.3824 36.3431 89.8039 35.2256 89.8529 33.2698C89.902 31.1744 87.9412 29.8705 83.7745 30.0102C74.6569 30.2896 70 36.5294 70 43.9333C70 51.5235 75.2451 54.8762 81.6176 53.8052C85.1961 53.1067 87.0098 51.9891 88.2353 50.9647C89.4608 49.9403 90 48.4036 90 47.0532V38.2989Z" fill="#EE1D23"/>
<path d="M52 13C41.4835 17.458 34.3921 28.0922 34.0061 32.5502C33.8614 34.3148 36.3217 34.5934 36.5629 32.6895C38.782 24.5165 45.5357 16.8079 52 13Z" fill="white"/>
<path d="M86.1942 21C91.8238 19.658 94.9513 19.4729 94.9994 17.0202C95.0957 12.9478 83.0667 8.22753 72 9.10679C83.2591 9.84722 89.9954 14.0122 89.9954 16.8813C90.0435 18.7324 88.3594 20.3521 86.1942 21Z" fill="white"/>
<path d="M90 113C98.3128 109.686 106.295 103.299 110.735 93.7908C112.01 91.0535 108.326 89.6128 107.287 92.8784C104.689 99.6496 99.3992 107.573 90 113Z" fill="white"/>
<path d="M132.367 84.6887H133.549C134.189 84.6887 135.027 84.7821 135.027 85.5292C135.027 86.3696 134.436 86.463 133.648 86.463H132.417L132.367 84.6887ZM130.939 90.3385H132.318V87.4903H133.205L134.928 90.3385H136.405L134.534 87.3969C135.568 87.3035 136.405 86.8366 136.405 85.6226C136.405 84.1751 135.42 83.6148 133.648 83.6148H130.939V90.3385ZM127 86.9767C127 90.6187 130.053 93 133.5 93C136.947 93 140 90.6654 140 86.9767C140 83.3346 136.947 81 133.5 81C130.053 81 127 83.3346 127 86.9767ZM128.723 86.9767C128.723 84.2685 130.841 82.2607 133.5 82.2607C136.11 82.2607 138.277 84.2218 138.277 86.9767C138.277 89.7315 136.11 91.6926 133.5 91.6926C130.841 91.7393 128.723 89.7315 128.723 86.9767Z" fill="#EE1D23"/>
</svg>
