<svg width="60" height="58" viewBox="0 0 60 58" fill="none" xmlns="http://www.w3.org/2000/svg">
<path fill-rule="evenodd" clip-rule="evenodd" d="M18.6328 0.128243C9.78715 1.13952 2.35254 7.9301 0.486211 16.7026C-2.12824 28.9915 6.37781 40.8733 18.7747 42.249C22.7364 42.6887 26.5823 41.9771 30.293 40.1179C36.7202 36.8974 41.0305 30.6446 41.8335 23.3761C42.1477 20.5327 41.8027 17.3303 40.877 14.498C40.4616 13.2267 39.3799 10.8966 39.0957 10.6607C38.8146 10.4273 38.2518 10.4514 37.9703 10.7086C37.614 11.0342 37.6805 11.4928 38.261 12.7146C40.6437 17.7293 40.809 23.4862 38.7178 28.6181C37.8043 30.8597 36.2106 33.2299 34.4038 35.0335L33.3984 36.0371V34.3518V32.6666L33.7512 32.1747C34.4707 31.1714 34.6605 29.4996 34.2172 28.071C33.9219 27.1194 33.9224 26.3171 34.2188 25.2701C34.521 24.2026 34.5165 23.0841 34.2052 21.871C33.9334 20.8117 33.9544 20.1259 34.2891 19.1336C34.4299 18.716 34.4678 18.2854 34.4312 17.5143C34.3881 16.6027 34.3295 16.3653 33.9875 15.7178C32.9428 13.739 32.9943 13.9056 32.9152 12.2496C32.8273 10.4098 32.6442 9.817 31.9092 8.99122C31.3034 8.31056 30.6872 7.91377 29.707 7.57308C28.6481 7.20506 28.1371 6.8446 27.2157 5.81569C25.8081 4.24379 24.4417 3.70483 22.1507 3.81764C20.6133 3.89328 19.9099 4.11239 18.9769 4.80619C18.0791 5.47382 17.8196 5.5542 16.9486 5.43476C15.9962 5.30419 14.9729 5.49252 13.9809 5.98082C12.9159 6.5051 12.4616 7.03531 11.8959 8.41378C11.5082 9.35889 11.3479 9.59327 10.5346 10.405C9.8959 11.0423 9.5148 11.5395 9.29355 12.0236C8.98559 12.6975 8.9741 12.7957 8.96836 14.7845C8.9632 16.6102 8.98711 16.8783 9.17731 17.1224C9.46277 17.4891 10.0008 17.4871 10.3661 17.1181C10.7152 16.7655 10.8417 15.8561 10.7319 14.4889C10.6159 13.0441 10.7516 12.6993 11.8905 11.5452C12.5899 10.8364 12.9309 10.3782 13.2165 9.76278C14.0932 7.87411 14.0784 7.89495 14.7922 7.52822C15.4356 7.1976 15.5241 7.1841 16.9324 7.2015C18.6008 7.22222 18.8693 7.14729 19.8061 6.39939C20.6395 5.73389 21.4223 5.52271 22.8422 5.58036C24.3757 5.64251 24.9998 5.9504 26.0917 7.18316C27.0414 8.2554 27.8814 8.83461 29.0659 9.234C30.1095 9.58593 30.8452 10.2236 31.0418 10.9468C31.1126 11.2072 31.1708 11.9414 31.1712 12.5782C31.172 13.9511 31.3672 14.6324 32.1695 16.0616C32.6973 17.0021 32.7134 17.0594 32.6654 17.8373C32.6381 18.2794 32.5236 19.0407 32.4108 19.529C32.1857 20.5032 32.2205 21.4172 32.5209 22.4184C32.7596 23.214 32.7398 23.9226 32.4461 25.0963C32.1615 26.2328 32.1871 27.6136 32.5093 28.5108C32.7089 29.0664 32.7578 30.3733 32.589 30.6425C32.5063 30.7743 32.4025 30.7416 32.0554 30.4741C31.7529 30.2411 30.709 29.8513 28.5562 29.1674L25.4883 28.1927L25.3875 26.6471L25.2866 25.1015L25.8087 24.4986C26.7233 23.4426 27.563 21.7002 28.0119 19.9269C28.5234 17.9066 28.6462 14.8868 28.2524 14.0108C27.9403 13.3168 27.3635 12.9151 26.4669 12.7675C23.4364 12.2685 21.8815 11.6462 20.2757 10.2898C19.1013 9.29792 18.2154 9.40316 16.9012 10.6904C16.4133 11.1681 15.7003 11.7173 15.2629 11.9519C14.312 12.4619 14.1326 12.7039 13.8138 13.9061C13.4829 15.1546 13.4544 17.5712 13.7527 19.0974C14.1636 21.2009 15.0302 23.1885 16.1082 24.5007L16.6432 25.1518L16.5691 26.5723C16.5278 27.3638 16.4365 28.0534 16.3628 28.1296C16.29 28.2049 14.9912 28.6512 13.4766 29.1212C10.7134 29.9789 10.1927 30.1763 9.81691 30.5091C9.40313 30.8753 9.39363 30.1919 9.7875 28.4071C10.0359 27.2815 9.95426 26.1048 9.55301 25.0279C9.17859 24.0232 9.17848 23.2816 9.55231 22.0991C9.94594 20.8538 9.94102 20.2153 9.53496 19.8927C8.93484 19.4159 8.27848 19.7319 8.13996 20.5643C8.0993 20.8087 7.93207 21.4191 7.76848 21.9207C7.51301 22.7035 7.47879 22.9804 7.52719 23.8739C7.56598 24.5894 7.6643 25.099 7.8416 25.5031C8.2302 26.3893 8.27437 27.335 7.98094 28.486C7.84535 29.0177 7.73438 29.659 7.73438 29.9113C7.73438 30.5146 8.03977 31.6812 8.32629 32.1722C8.52469 32.5123 8.55469 32.7916 8.55469 34.3004V36.0371L7.54934 35.0335C4.64637 32.1355 2.78941 28.5803 2.03168 24.4695C1.75254 22.9551 1.75254 19.4173 2.03168 17.903C2.59594 14.8414 3.70629 12.2123 5.50641 9.67554C6.18457 8.71978 8.6352 6.24432 9.58137 5.55929C12.8266 3.20954 16.2172 2.00875 20.1562 1.81414C25.4514 1.55241 30.4918 3.51495 34.4068 7.36273C35.6081 8.5434 35.8818 8.75683 36.1939 8.75683C36.6586 8.75683 37.0312 8.39236 37.0312 7.9378C37.0312 7.23477 34.9113 5.14533 32.6331 3.60302C28.5364 0.829615 23.4785 -0.425633 18.6328 0.128243ZM52.4414 1.34798C52.248 1.43475 51.9729 1.63397 51.8299 1.79082C51.4016 2.26053 46.9952 10.0497 46.8943 10.5156C46.6927 11.4468 47.1527 12.4149 47.9767 12.7928C48.4201 12.9962 48.8263 13.0131 53.2617 13.0131C57.6971 13.0131 58.1033 12.9962 58.5468 12.7928C59.3643 12.4177 59.8283 11.4471 59.6326 10.5217C59.5355 10.0625 55.1222 2.26101 54.6935 1.79058C54.1669 1.2128 53.1762 1.01807 52.4414 1.34798ZM55.7297 6.97754C57.4219 9.93869 57.9623 10.9778 57.8693 11.0911C57.6874 11.3124 48.8359 11.3123 48.654 11.091C48.5404 10.9526 49.5022 9.1844 52.8096 3.45257C52.989 3.1416 53.1744 2.95681 53.2847 2.97907C53.3841 2.99919 54.4843 4.79849 55.7297 6.97754ZM19.5966 12.0082C20.059 12.3642 20.7352 12.8157 21.0989 13.0116C22.0819 13.5408 24.0859 14.1818 25.3628 14.3754C25.9823 14.4694 26.5481 14.583 26.6202 14.628C26.7122 14.6855 26.7319 15.2426 26.6861 16.498C26.607 18.6685 26.2726 20.1281 25.4889 21.7235C24.6988 23.3321 23.5679 24.5015 22.0657 25.2638C20.8099 25.901 19.6072 25.4865 17.9666 23.8515C17.1628 23.0505 16.9199 22.7128 16.4727 21.7743C15.3009 19.3151 14.9447 16.2194 15.5876 14.0837C15.6918 13.7375 15.8311 13.611 16.4352 13.3143C16.9023 13.0849 17.4295 12.6782 17.9248 12.1653C18.3464 11.7288 18.7058 11.3691 18.7235 11.3663C18.7412 11.3635 19.134 11.6523 19.5966 12.0082ZM50.1913 15.026C49.5649 15.4116 49.4531 15.7801 49.4531 17.4574C49.4531 19.1347 49.5649 19.5032 50.1913 19.8888C50.5343 20.1002 50.795 20.12 53.2383 20.1204C56.1997 20.1208 56.4178 20.0757 56.8406 19.3752C57.0366 19.0507 57.0695 18.7753 57.0695 17.4574C57.0695 16.1395 57.0366 15.8641 56.8406 15.5396C56.4178 14.8391 56.1997 14.794 53.2383 14.7944C50.795 14.7948 50.5343 14.8146 50.1913 15.026ZM55.3125 17.4574V18.3452H53.2617H51.2109V17.4574V16.5696H53.2617H55.3125V17.4574ZM50.1913 22.1285C49.5649 22.5141 49.4531 22.8826 49.4531 24.5599C49.4531 26.2372 49.5649 26.6056 50.1913 26.9913C50.5343 27.2027 50.795 27.2225 53.2383 27.2229C56.1997 27.2233 56.4178 27.1782 56.8406 26.4777C57.0366 26.1532 57.0695 25.8778 57.0695 24.5599C57.0695 23.242 57.0366 22.9666 56.8406 22.6421C56.4178 21.9416 56.1997 21.8965 53.2383 21.8969C50.795 21.8973 50.5343 21.9171 50.1913 22.1285ZM55.3125 24.5599V25.4477H53.2617H51.2109V24.5599V23.6721H53.2617H55.3125V24.5599ZM19.1763 26.8978C19.8873 27.238 20.0959 27.2825 20.9766 27.2825C21.8552 27.2825 22.0665 27.2377 22.7688 26.9016C23.3182 26.6387 23.5789 26.5654 23.6101 26.6648C23.6348 26.7442 23.6767 27.2495 23.7029 27.788L23.7506 28.7669L23.096 28.9717C22.1749 29.2599 19.6554 29.2581 18.7291 28.9685L18.0637 28.7605L18.1725 28.3775C18.2323 28.1668 18.2812 27.6611 18.2812 27.2538C18.2812 26.8463 18.3016 26.5131 18.3267 26.5131C18.3517 26.5131 18.7339 26.6863 19.1763 26.8978ZM50.1913 29.231C49.415 29.709 49.4531 29.1565 49.4531 39.9486C49.4531 50.7408 49.415 50.1883 50.1913 50.6663C50.5346 50.8779 50.7947 50.8975 53.2617 50.8975C57.2913 50.8975 57.0703 51.1754 57.0703 46.1046V42.4829L56.7826 42.1924C56.4161 41.822 55.9668 41.822 55.6002 42.1924L55.3125 42.4829V45.8029V49.1227H53.2617H51.2109V39.9486V30.7746H53.2617H55.3125V34.8638V38.9532L55.6002 39.2437C55.7584 39.4035 56.0244 39.5343 56.1914 39.5343C56.3584 39.5343 56.6244 39.4035 56.7826 39.2437L57.0703 38.9532L57.0698 34.5383C57.0693 28.5922 57.3505 28.9987 53.2383 28.9994C50.795 28.9998 50.5343 29.0196 50.1913 29.231ZM17.3203 30.3701C17.7366 30.5383 18.5186 30.7619 19.0581 30.8669L20.0391 31.058V35.8299V40.6017L19.3652 40.5308C16.3691 40.2155 13.9114 39.4363 11.4657 38.0265L10.3125 37.3617L10.313 35.0447C10.3133 32.9593 10.3362 32.6901 10.541 32.3506C10.6663 32.1431 10.8902 31.9065 11.0386 31.8247C11.3409 31.6581 16.1366 30.0925 16.3971 30.0753C16.4886 30.0693 16.9042 30.2019 17.3203 30.3701ZM28.1019 30.8805C29.5344 31.3294 30.842 31.7863 31.0076 31.8958C31.5547 32.2581 31.6406 32.6964 31.6406 35.1279V37.3582L30.498 38.0168C28.0129 39.449 25.6105 40.2108 22.5293 40.5438L21.7969 40.6229V35.8404V31.058L22.7743 30.8676C23.3119 30.763 24.0634 30.5454 24.4443 30.3842C24.8251 30.2231 25.2178 30.0852 25.3171 30.0777C25.4162 30.0704 26.6694 30.4316 28.1019 30.8805ZM25.4883 32.5948C24.7901 32.9275 24.4718 33.2548 24.1505 33.9707C23.7288 34.9102 23.9346 36.1338 24.6459 36.9161C25.0329 37.3418 25.9979 37.7563 26.6016 37.7563C27.2052 37.7563 28.1702 37.3418 28.5572 36.9161C28.9567 36.4767 29.2916 35.6213 29.2931 35.0361C29.2948 34.4263 28.8855 33.4529 28.4627 33.0606C28.0277 32.6571 27.1809 32.3188 26.6016 32.3172C26.2887 32.3163 25.836 32.4292 25.4883 32.5948ZM27.2514 34.3797C27.8327 34.9668 27.4208 35.9831 26.6016 35.9831C26.1198 35.9831 25.6641 35.5227 25.6641 35.0361C25.6641 34.5494 26.1198 34.0891 26.6016 34.0891C26.8298 34.0891 27.0701 34.1964 27.2514 34.3797ZM39.6444 35.0313C38.8833 35.5 38.9062 35.2566 38.9067 42.8725C38.9071 49.5085 38.916 49.7883 39.1359 50.1527C39.5582 50.8523 39.7792 50.8983 42.7148 50.8983C45.6505 50.8983 45.8715 50.8523 46.2938 50.1527C46.5138 49.7883 46.5226 49.5087 46.5226 42.8488C46.5226 36.1889 46.5138 35.9093 46.2938 35.545C45.8709 34.8444 45.6529 34.7993 42.6914 34.7998C40.2482 34.8002 39.9874 34.8199 39.6444 35.0313ZM44.7656 42.8488V49.1227H42.7148H40.6641V42.8488V36.575H42.7148H44.7656V42.8488ZM29.0975 42.6073C28.3908 43.0426 28.3594 43.2153 28.3598 46.6605C28.3604 51.088 28.19 50.8983 32.168 50.8983C35.1036 50.8983 35.3246 50.8523 35.7469 50.1527C35.9586 49.8021 35.9757 49.5397 35.9757 46.6368C35.9757 42.1787 36.1522 42.3751 32.1445 42.3758C29.7013 42.3762 29.4405 42.3959 29.0975 42.6073ZM34.2188 46.6368V49.1227H32.168H30.1172V46.6368V44.151H32.168H34.2188V46.6368ZM18.5507 44.5013C17.8811 44.9136 17.8125 45.2 17.8125 47.5838C17.8125 49.9677 17.8811 50.254 18.5507 50.6663C18.894 50.8779 19.1541 50.8975 21.6211 50.8975C25.4824 50.8975 25.4299 50.9435 25.4292 47.5602C25.4289 45.6205 25.4048 45.3542 25.2 45.015C24.7772 44.3144 24.5591 44.2693 21.5977 44.2698C19.1544 44.2702 18.8937 44.2899 18.5507 44.5013ZM8.00379 45.6851C7.3725 46.0738 7.26562 46.4344 7.26562 48.1757C7.26562 49.917 7.3725 50.2776 8.00379 50.6663C8.3468 50.8777 8.60754 50.8975 11.0508 50.8979C14.0122 50.8983 14.2303 50.8532 14.6531 50.1527C14.8502 49.8263 14.882 49.5523 14.882 48.1757C14.882 46.7991 14.8502 46.5251 14.6531 46.1987C14.2303 45.4982 14.0122 45.4531 11.0508 45.4536C8.60754 45.4539 8.3468 45.4737 8.00379 45.6851ZM23.6719 47.5838V49.1227H21.6211H19.5703V47.5838V46.045H21.6211H23.6719V47.5838ZM13.125 48.1757V49.1227H11.0742H9.02344V48.1757V47.2287H11.0742H13.125V48.1757ZM0.738164 52.906C0.111797 53.2916 0 53.6601 0 55.3374C0 57.0146 0.111797 57.3831 0.738164 57.7688C1.10754 57.9964 1.55613 58 30 58C58.4439 58 58.8925 57.9964 59.2618 57.7688C59.8882 57.3831 60 57.0146 60 55.3374C60 53.6601 59.8882 53.2916 59.2618 52.906C58.898 52.6818 58.602 52.6748 49.3575 52.6744C43.4804 52.6741 39.7477 52.7176 39.6177 52.7878C39.5019 52.8505 39.343 53.0581 39.2646 53.2491C39.1474 53.535 39.1542 53.6592 39.3028 53.9496C39.4022 54.1437 39.5688 54.3356 39.6732 54.3761C39.7775 54.4164 43.9983 54.4496 49.0526 54.4496H58.2422V55.3374V56.2252H30H1.75781V55.3374V54.4496H18.9714C35.6153 54.4496 36.1939 54.4422 36.4557 54.2281C36.832 53.9203 36.832 53.2032 36.4557 52.8954C36.1938 52.6813 35.6082 52.674 18.6491 52.6744C1.46356 52.6748 1.10578 52.6794 0.738164 52.906Z" fill="url(#paint0_linear_472_743)"/>
<defs>
<linearGradient id="paint0_linear_472_743" x1="12.6329" y1="9.81747e-07" x2="45.5257" y2="58.8588" gradientUnits="userSpaceOnUse">
<stop stop-color="#6386FF"/>
<stop offset="1" stop-color="#938AFF"/>
</linearGradient>
</defs>
</svg>
