<svg width="80" height="63" viewBox="0 0 80 63" fill="none" xmlns="http://www.w3.org/2000/svg">
<mask id="path-1-inside-1_472_723" fill="white">
<path fill-rule="evenodd" clip-rule="evenodd" d="M37.4897 7.56926C29.9683 11.7321 23.6563 15.3196 23.4628 15.5415C23.1401 15.9118 23.1112 16.0999 23.1112 17.8286V19.7122H13.8H4.48888L4.03205 20.1732C3.54427 20.6654 3.41752 21.4856 3.73619 22.0864C4.14895 22.8648 4.16833 22.8662 13.9605 22.8662H23.1112V25.7049V28.5435H18.3324H13.5536L13.0967 29.0044C12.609 29.4966 12.4822 30.3168 12.8009 30.9177C13.185 31.6423 13.5883 31.6975 18.4929 31.6975H23.1112V35.7977V39.8979H16.383C9.0853 39.8979 8.99184 39.9083 8.6069 40.7609C8.28917 41.4645 8.38295 41.942 8.95152 42.5158L9.4829 43.0519H16.2842H23.0857L23.1375 45.0193C23.1828 46.7399 23.2286 47.0246 23.5019 47.2897C23.6738 47.4562 29.9332 50.9837 37.4115 55.1284C47.9791 60.985 51.1305 62.6646 51.5556 62.6666C51.986 62.6687 54.9997 61.0636 65.6997 55.1339C73.178 50.9893 79.4374 47.4606 79.6093 47.292C79.9067 47.0006 79.9218 46.7784 79.9218 42.7186V38.4513L79.4833 38.0706C78.8888 37.5546 77.9858 37.5545 77.3909 38.0705L76.9524 38.4507L76.9052 41.8962L76.8578 45.3416L65.965 51.3751C59.9739 54.6934 54.6321 57.6552 54.0943 57.9566L53.1168 58.5046L53.1566 45.3835L53.1966 32.2625L56.7912 30.2537C58.7683 29.1487 60.4385 28.241 60.5031 28.2364C60.5676 28.2318 60.6203 29.7078 60.6203 31.5163C60.6203 33.4543 60.6892 35.0042 60.7883 35.2907C61.1074 36.2147 62.1518 36.5332 63.1678 36.0164C65.2653 34.9494 69.1128 32.6995 69.2996 32.4305C69.4878 32.1594 69.5287 31.3061 69.5287 27.657V23.2138L73.1066 21.2265C75.0744 20.1334 76.7272 19.2391 76.7794 19.2391C76.8316 19.2391 76.8742 20.9975 76.8742 23.1465C76.8742 27.4866 76.8946 27.582 77.9106 28.0103C78.3633 28.2011 78.5109 28.2011 78.9636 28.0103C80.0155 27.5668 80 27.6644 80 21.4786V15.9031L79.5702 15.4754C79.3339 15.2403 76.3976 13.5292 73.0452 11.6731C69.6928 9.81697 63.5768 6.43113 59.4541 4.14905C55.1996 1.79394 51.7866 -0.000218726 51.5615 -6.10248e-05C51.3327 9.6676e-05 45.376 3.20426 37.4897 7.56926ZM63.3216 9.881C69.7011 13.4077 74.9744 16.3395 75.0402 16.3964C75.106 16.4533 73.5728 17.3745 71.6331 18.4432C68.4302 20.208 68.0702 20.3698 67.7133 20.2057C67.376 20.0506 58.7528 15.29 47.7512 9.18538C46.0455 8.23886 44.6389 7.41298 44.6255 7.3499C44.5963 7.21459 51.2288 3.49065 51.5218 3.47787C51.6323 3.47298 56.9422 6.35449 63.3216 9.881ZM53.0127 15.6909C59.4297 19.247 64.6808 22.1921 64.6817 22.2354C64.6827 22.2788 64.1316 22.6149 63.4572 22.9821L62.231 23.6502L54.8225 19.5429C50.7477 17.2839 45.4632 14.3576 43.079 13.0401C40.6948 11.7225 38.7433 10.6053 38.742 10.5575C38.7394 10.4456 41.1328 9.14217 41.2539 9.18948C41.3042 9.20903 46.5956 12.1347 53.0127 15.6909ZM40.6154 15.2726C43.4091 16.8201 48.6135 19.701 52.1807 21.6743C55.748 23.6476 58.7231 25.3158 58.792 25.3814C58.9074 25.491 51.8665 29.4897 51.5581 29.4897C51.4481 29.4897 28.1391 16.6289 27.9913 16.4866C27.9135 16.4117 35.0621 12.4862 35.3017 12.4722C35.4306 12.4648 37.8218 13.725 40.6154 15.2726ZM38.0161 25.6489C44.3884 29.1741 49.6903 32.1398 49.7983 32.2393C49.9533 32.3822 49.9862 35.1496 49.9546 45.4291L49.9146 58.438L43.5849 54.932C40.1036 53.0037 34.7775 50.0562 31.7491 48.3822L26.2429 45.3386L26.2399 32.2889C26.2382 25.1114 26.2804 19.2391 26.3335 19.2391C26.3867 19.2391 31.6437 22.1235 38.0161 25.6489ZM66.4008 27.7944L66.3986 30.6724L65.1633 31.3427C64.4839 31.7112 63.887 32.0129 63.837 32.0129C63.787 32.0129 63.7461 30.7513 63.7461 29.2094V26.406L65.0354 25.6773C65.7447 25.2765 66.3425 24.9414 66.3639 24.9324C66.3853 24.9236 66.402 26.2115 66.4008 27.7944ZM6.84523 29.0044C5.69526 30.1649 6.84007 32.095 8.37435 31.5825C8.61441 31.5022 8.97418 31.1938 9.17376 30.8968C9.63325 30.2137 9.53776 29.5756 8.88697 28.9771C8.23197 28.3749 7.45881 28.3853 6.84523 29.0044ZM77.4247 31.7369C76.5434 32.5096 76.7972 33.849 77.9143 34.3199C78.4087 34.5284 78.5163 34.5233 79.0352 34.2674C80.557 33.5167 80.1053 31.3821 78.4248 31.3821C78.0314 31.3821 77.6921 31.5026 77.4247 31.7369ZM0.779227 40.1181C-0.142872 40.6338 -0.265245 41.7315 0.511975 42.5158C1.04288 43.0515 1.04476 43.0519 2.55153 43.0519C4.68095 43.0519 5.29438 42.6812 5.29438 41.3944C5.29438 40.9697 5.17529 40.6997 4.83755 40.3589C4.39073 39.908 4.3454 39.8981 2.76674 39.9034C1.72899 39.9071 1.01944 39.9837 0.779227 40.1181Z"/>
</mask>
<path fill-rule="evenodd" clip-rule="evenodd" d="M37.4897 7.56926C29.9683 11.7321 23.6563 15.3196 23.4628 15.5415C23.1401 15.9118 23.1112 16.0999 23.1112 17.8286V19.7122H13.8H4.48888L4.03205 20.1732C3.54427 20.6654 3.41752 21.4856 3.73619 22.0864C4.14895 22.8648 4.16833 22.8662 13.9605 22.8662H23.1112V25.7049V28.5435H18.3324H13.5536L13.0967 29.0044C12.609 29.4966 12.4822 30.3168 12.8009 30.9177C13.185 31.6423 13.5883 31.6975 18.4929 31.6975H23.1112V35.7977V39.8979H16.383C9.0853 39.8979 8.99184 39.9083 8.6069 40.7609C8.28917 41.4645 8.38295 41.942 8.95152 42.5158L9.4829 43.0519H16.2842H23.0857L23.1375 45.0193C23.1828 46.7399 23.2286 47.0246 23.5019 47.2897C23.6738 47.4562 29.9332 50.9837 37.4115 55.1284C47.9791 60.985 51.1305 62.6646 51.5556 62.6666C51.986 62.6687 54.9997 61.0636 65.6997 55.1339C73.178 50.9893 79.4374 47.4606 79.6093 47.292C79.9067 47.0006 79.9218 46.7784 79.9218 42.7186V38.4513L79.4833 38.0706C78.8888 37.5546 77.9858 37.5545 77.3909 38.0705L76.9524 38.4507L76.9052 41.8962L76.8578 45.3416L65.965 51.3751C59.9739 54.6934 54.6321 57.6552 54.0943 57.9566L53.1168 58.5046L53.1566 45.3835L53.1966 32.2625L56.7912 30.2537C58.7683 29.1487 60.4385 28.241 60.5031 28.2364C60.5676 28.2318 60.6203 29.7078 60.6203 31.5163C60.6203 33.4543 60.6892 35.0042 60.7883 35.2907C61.1074 36.2147 62.1518 36.5332 63.1678 36.0164C65.2653 34.9494 69.1128 32.6995 69.2996 32.4305C69.4878 32.1594 69.5287 31.3061 69.5287 27.657V23.2138L73.1066 21.2265C75.0744 20.1334 76.7272 19.2391 76.7794 19.2391C76.8316 19.2391 76.8742 20.9975 76.8742 23.1465C76.8742 27.4866 76.8946 27.582 77.9106 28.0103C78.3633 28.2011 78.5109 28.2011 78.9636 28.0103C80.0155 27.5668 80 27.6644 80 21.4786V15.9031L79.5702 15.4754C79.3339 15.2403 76.3976 13.5292 73.0452 11.6731C69.6928 9.81697 63.5768 6.43113 59.4541 4.14905C55.1996 1.79394 51.7866 -0.000218726 51.5615 -6.10248e-05C51.3327 9.6676e-05 45.376 3.20426 37.4897 7.56926ZM63.3216 9.881C69.7011 13.4077 74.9744 16.3395 75.0402 16.3964C75.106 16.4533 73.5728 17.3745 71.6331 18.4432C68.4302 20.208 68.0702 20.3698 67.7133 20.2057C67.376 20.0506 58.7528 15.29 47.7512 9.18538C46.0455 8.23886 44.6389 7.41298 44.6255 7.3499C44.5963 7.21459 51.2288 3.49065 51.5218 3.47787C51.6323 3.47298 56.9422 6.35449 63.3216 9.881ZM53.0127 15.6909C59.4297 19.247 64.6808 22.1921 64.6817 22.2354C64.6827 22.2788 64.1316 22.6149 63.4572 22.9821L62.231 23.6502L54.8225 19.5429C50.7477 17.2839 45.4632 14.3576 43.079 13.0401C40.6948 11.7225 38.7433 10.6053 38.742 10.5575C38.7394 10.4456 41.1328 9.14217 41.2539 9.18948C41.3042 9.20903 46.5956 12.1347 53.0127 15.6909ZM40.6154 15.2726C43.4091 16.8201 48.6135 19.701 52.1807 21.6743C55.748 23.6476 58.7231 25.3158 58.792 25.3814C58.9074 25.491 51.8665 29.4897 51.5581 29.4897C51.4481 29.4897 28.1391 16.6289 27.9913 16.4866C27.9135 16.4117 35.0621 12.4862 35.3017 12.4722C35.4306 12.4648 37.8218 13.725 40.6154 15.2726ZM38.0161 25.6489C44.3884 29.1741 49.6903 32.1398 49.7983 32.2393C49.9533 32.3822 49.9862 35.1496 49.9546 45.4291L49.9146 58.438L43.5849 54.932C40.1036 53.0037 34.7775 50.0562 31.7491 48.3822L26.2429 45.3386L26.2399 32.2889C26.2382 25.1114 26.2804 19.2391 26.3335 19.2391C26.3867 19.2391 31.6437 22.1235 38.0161 25.6489ZM66.4008 27.7944L66.3986 30.6724L65.1633 31.3427C64.4839 31.7112 63.887 32.0129 63.837 32.0129C63.787 32.0129 63.7461 30.7513 63.7461 29.2094V26.406L65.0354 25.6773C65.7447 25.2765 66.3425 24.9414 66.3639 24.9324C66.3853 24.9236 66.402 26.2115 66.4008 27.7944ZM6.84523 29.0044C5.69526 30.1649 6.84007 32.095 8.37435 31.5825C8.61441 31.5022 8.97418 31.1938 9.17376 30.8968C9.63325 30.2137 9.53776 29.5756 8.88697 28.9771C8.23197 28.3749 7.45881 28.3853 6.84523 29.0044ZM77.4247 31.7369C76.5434 32.5096 76.7972 33.849 77.9143 34.3199C78.4087 34.5284 78.5163 34.5233 79.0352 34.2674C80.557 33.5167 80.1053 31.3821 78.4248 31.3821C78.0314 31.3821 77.6921 31.5026 77.4247 31.7369ZM0.779227 40.1181C-0.142872 40.6338 -0.265245 41.7315 0.511975 42.5158C1.04288 43.0515 1.04476 43.0519 2.55153 43.0519C4.68095 43.0519 5.29438 42.6812 5.29438 41.3944C5.29438 40.9697 5.17529 40.6997 4.83755 40.3589C4.39073 39.908 4.3454 39.8981 2.76674 39.9034C1.72899 39.9071 1.01944 39.9837 0.779227 40.1181Z" fill="url(#paint0_linear_472_723)" stroke="url(#paint1_linear_472_723)" stroke-width="2.5974" mask="url(#path-1-inside-1_472_723)"/>
<defs>
<linearGradient id="paint0_linear_472_723" x1="16.8438" y1="-5.99744e-05" x2="48.2055" y2="69.2531" gradientUnits="userSpaceOnUse">
<stop stop-color="#6386FF"/>
<stop offset="1" stop-color="#938AFF"/>
</linearGradient>
<linearGradient id="paint1_linear_472_723" x1="16.8438" y1="-5.99744e-05" x2="48.2055" y2="69.2531" gradientUnits="userSpaceOnUse">
<stop stop-color="#6386FF"/>
<stop offset="1" stop-color="#938AFF"/>
</linearGradient>
</defs>
</svg>
