<svg width="60" height="60" viewBox="0 0 60 60" fill="none" xmlns="http://www.w3.org/2000/svg">
<path fill-rule="evenodd" clip-rule="evenodd" d="M3.64972 0.114132C2.50423 0.339167 1.25911 1.23626 0.650265 2.27517C-0.0381742 3.44968 0.000391466 1.80236 0.000391466 29.9924C0.000391466 52.6774 0.0220774 55.9289 0.177513 56.5253C0.625532 58.2451 2.01308 59.5502 3.74221 59.878C4.59581 60.0399 33.3783 60.041 34.2315 59.8793C36.0256 59.539 37.5223 58.042 37.8627 56.2471C37.9331 55.8754 37.98 52.6953 37.98 48.2817V40.935L44.9759 39.9337L51.9719 38.9325L52.3022 38.5628C52.497 38.3449 52.6327 38.059 52.6327 37.8667C52.6327 37.6662 52.1535 36.7067 51.3895 35.378C50.7058 34.1886 49.6985 32.4363 49.1512 31.4839L48.156 29.7523L48.5724 29.2916C50.6322 27.012 50.0615 23.1647 47.4163 21.4977C46.3801 20.8446 45.781 20.6767 44.5444 20.6929C43.9319 20.701 43.3299 20.7266 43.2066 20.7497C43.023 20.7841 42.6567 20.2297 41.1892 17.6967C40.2029 15.9944 39.1961 14.2591 38.9518 13.8404C38.6312 13.2913 38.3986 13.0337 38.1165 12.9154C37.2666 12.5594 37.5321 12.2667 30.1409 21.7047L23.329 30.4026L20.2556 32.1607C17.6113 33.6732 17.0647 34.0347 16.3416 34.749C14.0307 37.032 13.7017 40.5623 15.5477 43.2696C16.8047 45.1132 18.815 46.1605 21.1049 46.165C22.2085 46.1672 23.1416 45.9354 24.2382 45.3866C24.7068 45.1521 25.1109 44.9812 25.136 45.0067C25.1839 45.0555 27.0888 48.3265 27.3106 48.7408L27.4383 48.9797H14.8916H2.34481V29.4063V9.83304H18.9902H35.6356V10.1205C35.6356 10.805 36.1815 11.3567 36.8588 11.3567C37.0221 11.3567 37.328 11.2029 37.5386 11.0149L37.9214 10.6731L37.9562 7.5548C37.9764 5.74433 37.9402 4.16159 37.8697 3.78102C37.5317 1.95191 36.0441 0.449222 34.2315 0.105459C33.4613 -0.040579 4.39513 -0.0323747 3.64972 0.114132ZM34.2018 2.51333C34.7811 2.75524 35.1522 3.11236 35.4141 3.67976C35.5919 4.06501 35.6309 4.44616 35.633 5.81876L35.6356 7.48893H18.9902H2.34481V5.84431C2.34481 3.67014 2.59473 3.06021 3.69286 2.55341C4.14076 2.34666 4.82357 2.33693 18.9647 2.33447C32.0643 2.33224 33.8175 2.35276 34.2018 2.51333ZM14.3468 3.85123C13.9717 4.00582 13.598 4.54825 13.598 4.93796C13.598 5.17694 13.7225 5.40994 13.9966 5.68397L14.3951 6.08247H18.9766H23.5581L23.9382 5.74281C24.4512 5.28453 24.4757 4.59888 23.9963 4.11928L23.6739 3.79696L19.1342 3.77305C16.6373 3.75992 14.4831 3.79509 14.3468 3.85123ZM48.4488 12.0611C48.3076 12.118 48.1138 12.286 48.0183 12.4345C47.7749 12.8128 47.006 15.723 47.006 16.2655C47.006 17.4689 48.5598 17.7873 49.1402 16.7029C49.3554 16.301 50.0506 13.5363 50.0523 13.0765C50.0551 12.2452 49.2529 11.7373 48.4488 12.0611ZM5.57953 13.411C5.09881 13.6617 4.93165 13.926 4.92743 14.4424C4.92462 14.7849 5.00468 14.9719 5.26631 15.2335L5.60895 15.5761H14.1146H22.6203L22.9856 15.2498C23.6104 14.6917 23.4485 13.7202 22.677 13.3978C22.0627 13.1413 6.07326 13.1535 5.57953 13.411ZM43.5881 26.5348C46.8668 32.2076 49.5358 36.866 49.5192 36.887C49.5026 36.908 48.8381 37.0214 48.0424 37.1391C46.9517 37.3005 46.5627 37.3199 46.4614 37.2182C46.3537 37.11 36.2827 19.7355 35.7674 18.7689C35.639 18.5282 35.709 18.3981 36.5389 17.333C37.0407 16.6889 37.491 16.175 37.5392 16.1912C37.5875 16.2075 40.3094 20.8621 43.5881 26.5348ZM58.4937 16.5965C57.9278 16.8034 52.5172 20.0038 52.2384 20.2967C51.9483 20.6015 51.9116 20.7143 51.9675 21.1305C52.0501 21.7462 52.4796 22.1396 53.0688 22.1396C53.4003 22.1396 54.1291 21.7712 56.4325 20.4394C59.6971 18.5517 59.6853 18.5595 59.8919 18.1716C60.3264 17.3565 59.3681 16.277 58.4937 16.5965ZM5.57953 19.0368C5.09881 19.2875 4.93165 19.5518 4.92743 20.0682C4.92462 20.4107 5.00468 20.5978 5.26631 20.8594L5.60895 21.202H11.7225H17.8361L18.1787 20.8594C18.7942 20.2439 18.5717 19.2839 17.7405 18.9679C17.5743 18.9047 14.9967 18.8582 11.6856 18.8586C6.76405 18.8591 5.87024 18.8853 5.57953 19.0368ZM21.8035 18.9877C20.6791 19.4289 20.9989 21.202 22.2029 21.202C23.4366 21.202 23.8079 19.4962 22.677 19.0237C22.222 18.8336 22.1987 18.8327 21.8035 18.9877ZM39.0258 29.1123C41.7421 33.8175 43.9236 37.6807 43.8736 37.6971C43.7168 37.7487 30.6759 39.6032 30.4705 39.6032C30.3376 39.6032 29.5209 38.2968 27.9048 35.4995L25.5341 31.3958L27.6182 28.7309C32.4967 22.4928 34.0518 20.5171 34.0688 20.5366C34.0788 20.5481 36.3094 24.4071 39.0258 29.1123ZM45.4315 23.1325C46.9602 23.5885 47.8544 25.326 47.3394 26.8397C47.0128 27.7992 47.0305 27.8142 45.6201 25.378C44.8996 24.1333 44.31 23.08 44.31 23.0374C44.31 22.9074 44.8226 22.9508 45.4315 23.1325ZM5.627 24.6091C4.8653 24.9195 4.6774 25.8964 5.26631 26.4852C6.00727 27.2261 7.2681 26.6716 7.2681 25.6048C7.2681 25.2085 6.70907 24.6138 6.27172 24.545C6.07831 24.5145 5.78818 24.5435 5.627 24.6091ZM10.2572 24.5652C9.91929 24.6505 9.52683 25.0451 9.44138 25.3857C9.40082 25.5472 9.4272 25.8596 9.49987 26.0798C9.74533 26.8236 9.77604 26.8278 14.9933 26.8278C18.2502 26.8278 19.772 26.787 19.9755 26.6943C20.3575 26.5203 20.6695 25.8623 20.5747 25.4306C20.5347 25.2484 20.3686 24.9739 20.2057 24.8208L19.9093 24.5423L15.2006 24.5242C12.6107 24.5141 10.3862 24.5326 10.2572 24.5652ZM54.1776 26.5427C53.7402 26.7264 53.5704 27.0278 53.5704 27.6201C53.5704 28.3305 53.8971 28.5471 55.7634 29.0741C56.6526 29.3251 57.5768 29.5402 57.8171 29.5518C59.0327 29.6111 59.5221 28.0041 58.4563 27.4531C58.0928 27.2651 55.9261 26.6541 55.0289 26.4865C54.6958 26.4243 54.415 26.4428 54.1776 26.5427ZM25.8922 36.6855C27.098 38.7866 28.0013 40.4826 27.9436 40.5369C27.6191 40.8414 22.8224 43.506 22.339 43.6502C21.2141 43.9858 19.7273 43.7919 18.7671 43.1846C18.1705 42.8073 17.3673 41.901 17.1061 41.3107C16.8056 40.6313 16.6456 39.415 16.7695 38.7518C16.9926 37.5575 17.7261 36.4384 18.6932 35.817C19.4313 35.3427 23.6006 32.9285 23.6791 32.93C23.7113 32.9306 24.7072 34.6206 25.8922 36.6855ZM35.6356 45.1119V48.9797H34.8026H33.9697L34.3271 48.6459C34.7805 48.2224 34.878 47.8335 34.661 47.3143C34.5669 47.089 33.8445 45.7871 33.0556 44.421C32.2667 43.0548 31.6511 41.9072 31.6877 41.8706C31.7368 41.8215 34.2908 41.4143 35.5477 41.2552C35.5961 41.2491 35.6356 42.9846 35.6356 45.1119ZM30.5075 44.7017C31.1808 45.862 31.7922 46.926 31.8661 47.0662C31.9917 47.3043 31.9336 47.3598 30.979 47.9137C30.4173 48.2396 29.9205 48.4677 29.8752 48.4207C29.574 48.1075 27.1858 43.7859 27.2689 43.7044C27.3958 43.5799 29.2284 42.5337 29.2603 42.5675C29.2731 42.5809 29.8343 43.5413 30.5075 44.7017ZM35.633 53.58C35.6302 56.0266 35.5407 56.4585 34.9168 57.0319C34.2066 57.6847 35.025 57.6529 18.9902 57.6529C2.95542 57.6529 3.77386 57.6847 3.06361 57.0319C2.43976 56.4585 2.35021 56.0266 2.34739 53.58L2.34481 51.3238H18.9902H35.6356L35.633 53.58ZM18.3299 53.4067C17.7371 53.8869 17.688 54.684 18.2204 55.1842C18.9982 55.9148 20.371 55.1006 20.1105 54.0631C19.9232 53.3167 18.9046 52.9413 18.3299 53.4067Z" fill="url(#paint0_linear_581_452)"/>
<defs>
<linearGradient id="paint0_linear_581_452" x1="12.6329" y1="1.0156e-06" x2="47.2552" y2="59.8885" gradientUnits="userSpaceOnUse">
<stop stop-color="#6386FF"/>
<stop offset="1" stop-color="#938AFF"/>
</linearGradient>
</defs>
</svg>
