<svg width="60" height="60" viewBox="0 0 60 60" fill="none" xmlns="http://www.w3.org/2000/svg">
<path fill-rule="evenodd" clip-rule="evenodd" d="M3.62646 0.154966C1.90007 0.624979 0.510724 2.04956 0.118342 3.75211C-0.43852 6.16865 1.02116 8.66257 3.41848 9.39074C4.4927 9.71702 5.77653 9.65218 6.69517 9.2252L7.31933 8.93515L9.83986 11.4327C11.534 13.1115 12.4731 13.9582 12.704 14.0153C13.3753 14.1814 14.0612 13.496 13.8933 12.827C13.8366 12.6008 12.968 11.6331 11.3223 9.96275L8.83704 7.44023L9.17315 6.77454C9.65065 5.82865 9.73177 4.55719 9.38699 3.42196C8.6463 0.983028 6.03163 -0.499817 3.62646 0.154966ZM53.725 0.23762C52.2899 0.692626 51.0702 1.94392 50.6213 3.42196C50.295 4.49623 50.3598 5.78012 50.7868 6.6988L51.0768 7.32299L48.5794 9.84364C46.9007 11.5379 46.0541 12.477 45.997 12.7079C45.8317 13.3761 46.5162 14.0652 47.1797 13.8987C47.4006 13.8433 48.3758 12.96 50.0214 11.3247L52.5268 8.83526L53.2097 9.17373C54.1786 9.65406 55.4535 9.73589 56.5898 9.39074C60.066 8.33488 61.1518 3.95892 58.567 1.42244C57.247 0.127063 55.4564 -0.311061 53.725 0.23762ZM5.66445 2.13115C6.35977 2.33667 7.28779 3.2944 7.48838 4.01367C7.7742 5.03869 7.51605 6.05305 6.78275 6.78638C6.04945 7.51971 5.03514 7.77788 4.01016 7.49205C3.2404 7.27738 2.3241 6.36139 2.10956 5.59206C1.51226 3.44998 3.51825 1.49701 5.66445 2.13115ZM56.4489 2.31651C57.6499 2.93413 58.2573 4.30618 57.8987 5.59206C57.6842 6.36139 56.7679 7.27738 55.9981 7.49205C54.9731 7.77788 53.9588 7.51971 53.2255 6.78638C52.4922 6.05305 52.2341 5.03869 52.5199 4.01367C52.7064 3.34493 53.6384 2.34523 54.2716 2.13491C54.8412 1.94556 55.8991 2.03385 56.4489 2.31651ZM27.5422 9.78607C19.8132 10.7374 13.2846 16.0249 10.7383 23.3956C8.44173 30.0438 9.75956 37.3542 14.2585 42.9228L14.916 43.7365L12.6796 45.9916C11.3443 47.3382 10.4121 48.3718 10.3655 48.5569C10.1975 49.2265 10.9054 49.9323 11.5777 49.7655C11.7691 49.7182 12.7704 48.8137 14.1441 47.4476L16.3968 45.2074L17.075 45.7526C19.7973 47.9412 23.1043 49.4675 26.4366 50.0733C28.3981 50.4299 31.5937 50.4331 33.5306 50.0803C42.0949 48.5206 48.698 41.8169 50.1256 33.2329C50.4303 31.4009 50.406 28.3236 50.0724 26.4786C48.4431 17.4683 41.1014 10.6603 32.014 9.73308C30.4821 9.57668 29.1112 9.59298 27.5422 9.78607ZM28.949 20.3366V28.9537H24.5527C21.8582 28.9537 20.1565 28.9106 20.1565 28.8424C20.1565 28.7812 20.2372 28.1086 20.3359 27.3476C20.8384 23.4746 22.3398 19.9992 24.9704 16.6195C25.7034 15.6778 25.9009 15.342 25.9009 15.0373C25.9009 14.3712 25.152 13.8871 24.5477 14.1625C23.8616 14.4751 21.6769 17.6055 20.566 19.8676C19.193 22.6635 18.5577 24.9219 18.2164 28.2209L18.1405 28.9537H14.9281H11.7156V28.4415C11.7156 27.7239 12.0038 26.1516 12.3632 24.9074C13.8769 19.668 17.7707 15.2631 22.7743 13.1299C24.6062 12.3488 26.9714 11.7532 28.3335 11.73L28.949 11.7195V20.3366ZM34.6917 12.2524C42.2122 14.2673 47.593 20.6802 48.3052 28.4772C48.7057 32.8617 47.3754 37.4473 44.6597 41.0431C42.966 43.2856 40.906 45.0267 38.4585 46.2844C36.28 47.4036 33.9963 48.1043 32.0264 48.2575L31.0592 48.3328V39.6984V31.064H35.4555C38.15 31.064 39.8518 31.107 39.8518 31.1752C39.8518 31.2364 39.7729 31.8879 39.6765 32.6233C39.1356 36.7497 37.3803 40.6548 34.5876 43.9438C33.636 45.0645 33.5227 45.4966 34.0434 46.0173C34.538 46.512 35.0229 46.4167 35.7103 45.6896C36.4783 44.8773 37.7914 43.0923 38.541 41.8418C40.2584 38.9768 41.3679 35.6738 41.7377 32.3243L41.8769 31.064H43.3564C45.4956 31.064 45.9364 30.8827 45.9442 29.9999C45.9469 29.6979 45.8634 29.5013 45.6456 29.2965C45.3586 29.0267 45.2558 29.0103 43.6136 28.9727L41.8838 28.9329L41.6876 27.3306C41.0361 22.0092 38.7018 17.3072 34.6814 13.2183C33.9977 12.5229 33.4702 11.9541 33.5091 11.9543C33.548 11.9544 34.0801 12.0885 34.6917 12.2524ZM32.9893 14.3494C37.0461 18.377 39.2156 22.7977 39.7963 28.2209L39.8748 28.9537H35.467H31.0592V20.7976V12.6414L31.4298 12.9052C31.6336 13.0504 32.3353 13.7002 32.9893 14.3494ZM18.2185 31.914C18.7364 37.5051 21.1503 42.5631 25.3207 46.7959C26.0077 47.4932 26.5469 48.0637 26.5188 48.0637C26.4906 48.0637 26.0501 47.9571 25.5397 47.8268C21.7041 46.8475 18.1677 44.5804 15.6978 41.5174C13.5697 38.8782 11.9898 35.0819 11.7565 32.0464L11.681 31.064H14.9104H18.1397L18.2185 31.914ZM28.949 39.2303C28.949 46.9948 28.9389 47.3882 28.7439 47.2252C26.7232 45.5371 25.2311 43.9024 23.8635 41.8786C21.7757 38.789 20.6178 35.5924 20.2118 31.7967L20.1335 31.064H24.5413H28.949V39.2303ZM46.2906 46.4133C45.9104 46.7935 45.8646 47.0975 46.116 47.5713C46.2083 47.7454 47.363 48.9629 48.6817 50.2768L51.0797 52.6659L50.7883 53.3022C50.3601 54.2377 50.295 55.5214 50.6213 56.5957C51.6771 60.0721 56.0528 61.1579 58.5892 58.5731C61.7041 55.3984 59.3068 50.1751 54.8533 50.4329C54.1383 50.4743 53.7731 50.5647 53.2276 50.835L52.524 51.1838L50.3204 48.9668C47.2488 45.8766 46.9909 45.7131 46.2906 46.4133ZM3.31438 50.6506C-0.063254 51.7212 -1.09058 56.0154 1.41905 58.5731C3.93068 61.1329 8.31324 60.0778 9.36905 56.6591C10.5201 52.9327 7.03269 49.472 3.31438 50.6506ZM6.05191 52.6758C6.51053 52.913 7.09682 53.4954 7.32906 53.9444C7.59717 54.4629 7.66681 55.364 7.48838 56.004C7.25895 56.8265 6.34582 57.7095 5.51943 57.9077C3.39773 58.4166 1.52879 56.5082 2.10956 54.4256C2.29573 53.7579 3.22821 52.7581 3.86092 52.5478C4.39903 52.3689 5.59341 52.4387 6.05191 52.6758ZM56.0751 52.5441C56.77 52.7494 57.6985 53.7075 57.8987 54.4256C58.3738 56.1295 57.196 57.8084 55.395 57.9944C54.5861 58.0778 53.7184 57.7081 53.1154 57.0231C51.2339 54.8855 53.3192 51.7298 56.0751 52.5441Z" fill="url(#paint0_linear_472_747)"/>
<defs>
<linearGradient id="paint0_linear_472_747" x1="12.6329" y1="1.0156e-06" x2="47.2552" y2="59.8885" gradientUnits="userSpaceOnUse">
<stop stop-color="#6386FF"/>
<stop offset="1" stop-color="#938AFF"/>
</linearGradient>
</defs>
</svg>
