<svg width="140" height="140" viewBox="0 0 140 140" fill="none" xmlns="http://www.w3.org/2000/svg">
<path fill-rule="evenodd" clip-rule="evenodd" d="M6.56482 5.17337C5.63279 5.49496 5.00525 6.37022 5 7.35699C4.99755 7.82643 12.0901 97.4781 12.1549 97.7955L12.1969 98H23.8009H35.4049V51.5002V5L21.2277 5.0028C7.69529 5.00559 7.02821 5.01328 6.56482 5.17337ZM103.674 51.5002V98H115.267H126.86L126.91 97.6138C127.202 95.3221 134.088 7.07875 133.999 6.76346C133.773 5.95741 133.052 5.26985 132.255 5.09927C131.931 5.02971 127.552 5 117.733 5H103.674V51.5002Z" fill="#E4042C"/>
<path fill-rule="evenodd" clip-rule="evenodd" d="M5.57465 0.0938465C2.45432 0.541977 0 3.3602 0 6.49432C0 7.77959 10.1023 134.456 10.2518 135.045C10.907 137.626 13.2338 139.614 15.9648 139.925C16.5422 139.991 33.5193 140.012 70.6254 139.994L124.448 139.967L125.128 139.756C127.457 139.035 129.209 137.27 129.769 135.08C130.07 133.901 140.133 6.65384 139.999 5.72924C139.606 3.03731 137.785 0.978914 135.103 0.194947C134.488 0.015135 6.81599 -0.0845663 5.57465 0.0938465ZM134.784 1.9315C136.762 2.59477 138.112 4.21658 138.299 6.15568C138.372 6.91936 128.278 133.887 128.087 134.599C127.643 136.254 126.362 137.541 124.63 138.071C123.899 138.295 16.4743 138.337 15.573 138.114C13.9149 137.703 12.5006 136.4 12.0177 134.838C11.8426 134.272 1.73122 8.13327 1.73052 6.50796C1.72982 4.33097 3.40397 2.3436 5.64643 1.86013C6.69833 1.63309 134.105 1.70376 134.784 1.9315ZM67.5289 6.50936C64.5938 6.81896 60.5914 7.91497 57.4707 9.26321C55.7192 10.0199 55.3711 10.2882 55.3708 10.8801C55.3704 11.6473 53.9305 13.3415 52.8209 13.8803C51.7238 14.4127 51.1285 14.5582 49.1045 14.7881C48.8885 14.8125 48.6903 14.8895 48.6637 14.9588C48.5054 15.3712 50.155 17.3096 50.9769 17.677C51.7522 18.0233 51.2479 18.1947 49.2236 18.2724C47.1846 18.3504 46.5921 18.633 46.0697 19.7784C45.8189 20.328 45.8536 20.477 46.4443 21.3757C47.7869 23.418 47.7522 24.591 46.3148 25.7335C44.5086 27.1696 44.4925 27.4148 45.848 32.9277C46.3708 35.053 46.8589 36.9613 46.9332 37.1684C47.0739 37.5605 47.0102 37.7473 46.736 37.7473C46.4695 37.7473 45.9142 38.1451 45.7366 38.4634C44.9834 39.8131 45.2009 41.8921 46.5714 46.4364C47.541 49.6524 47.658 50.0837 47.9532 51.5313C48.692 55.159 49.579 56.4401 51.3327 56.4142C52.0354 56.4037 52.0599 56.4352 52.1345 57.4452C52.27 59.2709 52.7211 61.0442 53.4533 62.6314C53.6903 63.1442 53.8227 63.6007 53.9025 64.178C54.2572 66.7471 55.8505 69.6108 58.2547 72.0012C59.2765 73.0171 60.0875 73.6751 62.6794 75.5915C63.7187 76.3597 64.5689 77.0174 64.5689 77.0527C64.5689 77.0881 63.6368 77.1402 62.4974 77.1685C60.4783 77.2189 59.606 77.3336 59.3578 77.582C59.0797 77.8598 58.982 82.3736 59.2429 82.8781C59.5511 83.4731 60.5252 83.5249 66.6864 83.273C68.2709 83.2083 68.1844 83.0838 67.5769 84.5537C67.3276 85.1569 66.6976 86.7349 66.1769 88.0611C64.9948 91.0711 63.8798 93.5968 62.7285 95.8735C61.6065 98.0907 61.5736 97.8504 63.0412 98.1548C63.328 98.2142 63.9758 98.465 64.4814 98.712C65.7896 99.3512 65.7448 99.3648 66.3373 98.1373C67.3871 95.9627 69.2755 91.1932 69.7416 89.5395C69.8719 89.0767 70.0116 88.6978 70.0515 88.6978C70.1468 88.6978 70.1355 97.0783 70.0378 98.8425C69.9342 100.718 69.9825 100.774 71.4175 100.432C71.9427 100.308 72.5927 100.227 73.1284 100.219C74.1551 100.205 74.1544 100.206 74.3081 98.9807C74.7269 95.643 73.9734 87.7319 72.8987 84.1812C72.6046 83.209 72.6074 83.1828 73.016 83.1152C73.6782 83.0061 76.4743 83.0551 78.1883 83.2059C80.1051 83.3748 80.3538 83.3517 80.5376 82.9872C80.7519 82.5632 80.8177 78.1757 80.616 77.7716C80.3114 77.1619 78.9548 76.8855 76.7954 76.9929C75.4931 77.0576 75.4798 77.0433 76.3436 76.5119C79.1947 74.7582 83.5301 70.895 84.7277 69.0406C86.564 66.1972 88.1541 61.0075 88.1558 57.852C88.1565 56.4817 88.1863 56.437 89.1321 56.3803C90.9547 56.2718 91.5171 55.3371 93.0259 49.9077C94.609 44.2118 95.0138 42.3385 95.0243 40.659C95.0348 38.9896 94.873 38.6765 93.5967 37.8957C93.2934 37.7103 93.2658 37.8642 94.0446 35.4007C94.8671 32.7973 95.0754 31.9853 95.1392 31.1331L95.1952 30.3869L94.7424 29.9503C93.9406 29.1769 93.8299 28.9351 93.6671 27.603C92.3189 16.561 84.7697 8.48694 74.1316 6.70771C73.029 6.5237 68.6438 6.39182 67.5289 6.50936ZM71.5947 8.63667C75.9168 9.07151 80.012 10.7349 83.9584 13.6599C87.8662 16.5557 90.0022 20.4168 90.8157 26.0561C91.148 28.3576 90.927 33.5718 90.4753 34.0909C90.1574 34.4565 90.0621 34.2921 89.5337 32.466C88.5301 28.9971 87.7321 26.9852 86.6427 25.1783C85.9666 24.0564 85.8629 24.2807 85.8486 26.8988L85.8367 29.0782L86.1087 29.4557C87.2758 31.0778 87.563 31.689 88.0343 33.5564C88.4258 35.1072 88.535 36.348 88.2892 36.4425C88.1971 36.4775 87.5455 36.4173 86.8413 36.3081C85.2928 36.0685 83.202 36.0181 79.0039 36.1196C75.0844 36.2144 74.3719 36.3973 72.4922 37.7932C71.4494 38.5677 71.3461 38.609 70.7679 38.4851C70.1163 38.3455 69.3827 38.3592 68.7506 38.5229C68.085 38.695 67.8882 38.6247 66.9823 37.8922C64.9846 36.2756 64.3897 36.1598 58.0688 36.1574L52.8891 36.1553L52.935 35.4273C53.0149 34.1577 53.4091 33.5686 54.5227 33.0551C55.3396 32.6783 55.2745 32.8193 55.7717 30.352C56.7539 25.4813 58.2187 22.8215 60.8964 21.0458C62.8755 19.7332 66.5708 19.8487 69.4643 21.3138C70.1236 21.6475 70.1674 21.6353 71.0589 20.8656C72.1231 19.9473 72.1231 19.9491 70.9213 18.7758C66.7382 14.6919 61.9511 13.7987 56.2224 16.0338C55.5287 16.3042 54.9485 16.4928 54.9327 16.4522C54.6708 15.7725 58.3122 13.246 60.7679 12.4036C62.4158 11.8383 62.2778 11.2754 60.4909 11.2726C59.8007 11.2712 59.6806 11.1222 60.0546 10.7321C61.2721 9.46262 67.8777 8.26305 71.5947 8.63667ZM60.9115 18.2388C61.3317 18.414 61.2602 18.5088 60.4415 18.8643C57.9165 19.961 56.4384 21.368 54.9856 24.0592C54.5952 24.782 54.3872 25.0513 53.8707 25.5019C52.5747 26.6329 52.422 26.8589 51.9269 28.3761C51.2437 30.4705 50.8928 32.4128 50.7367 34.962C50.647 36.4274 50.5668 36.6205 49.912 36.9518C49.2828 37.2702 49.3539 37.3828 48.7757 35.1499C47.158 28.9019 47.1576 28.9089 49.446 25.6149C50.0104 24.8019 49.9117 23.7213 49.1168 22.0253C48.6427 21.0133 48.5877 21.0626 50.453 20.8258C52.1878 20.6057 54.4082 19.9379 56.0697 19.1361C58.0226 18.194 59.9485 17.8368 60.9115 18.2388ZM53.565 37.352C54.065 37.8044 53.511 38.4001 52.8177 38.1556C52.6066 38.0814 52.3173 38.0205 52.1752 38.0205C51.8047 38.0205 51.6552 37.7179 51.93 37.5255C52.0417 37.4475 52.2571 37.3828 52.4087 37.3821C52.5603 37.3814 52.7459 37.3412 52.8209 37.2926C53.0306 37.1572 53.3804 37.1852 53.565 37.352ZM87.4912 37.3762C88.1485 37.493 88.3645 38.0205 87.7549 38.0205C87.6376 38.0205 87.3676 38.0818 87.1547 38.157C86.6501 38.3347 86.5531 38.3295 86.3349 38.1115C85.9358 37.7127 86.2369 37.1397 86.7891 37.2467C86.9652 37.2807 87.2811 37.3391 87.4912 37.3762ZM57.6311 38.5432C57.6539 38.7027 57.5688 38.8024 57.2414 38.998C57.011 39.1358 56.368 39.5455 55.8127 39.9082C54.7405 40.6089 54.4838 40.6824 54.1774 40.3766C53.851 40.0503 54.1918 39.2019 54.8434 38.7192C55.4247 38.2889 57.5758 38.1528 57.6311 38.5432ZM83.6446 38.3928C84.7361 38.6674 84.9514 40.3861 83.8946 40.3861C83.2297 40.3861 81.1147 38.8287 81.2614 38.447C81.3325 38.2616 82.9747 38.2245 83.6446 38.3928ZM62.5082 38.7426C62.9739 38.9679 63.4453 39.5528 63.3532 39.7917C63.3087 39.9075 63.1497 39.9212 62.3636 39.8774C61.2368 39.8145 60.5392 39.9698 59.148 40.5932C58.0573 41.0819 57.4728 41.225 57.1752 41.0767C56.6884 40.8342 56.8936 40.5792 58.1486 39.8666C58.5492 39.6389 59.057 39.3492 59.2769 39.2222C60.5168 38.5068 61.6675 38.3357 62.5082 38.7426ZM79.9409 39.0116C80.1489 39.1173 80.6374 39.4926 81.0271 39.8453C81.4169 40.1979 82.0118 40.6709 82.3486 40.8968C83.0612 41.374 83.0998 41.4195 82.9198 41.5689C82.5906 41.8417 81.5625 41.4573 80.5614 40.6876C79.6173 39.9614 78.9706 39.825 77.5944 40.0622C76.2474 40.2944 76.1276 39.8586 77.3644 39.225C78.3806 38.7045 79.2045 38.6362 79.9409 39.0116ZM88.8978 39.2261C89.1121 39.6245 89.1429 40.1804 89.0561 42.1076C88.9437 44.604 89.0641 44.7607 90.212 43.614C90.6966 43.1302 90.7614 42.8989 90.643 42.074C90.4522 40.7419 91.0618 39.6126 91.8585 39.8232C93.1716 40.1699 93.1824 41.2295 91.9187 45.7539C91.6463 46.7299 91.2842 48.1061 91.114 48.8124C90.1346 52.8778 89.4535 53.9584 88.1999 53.4354C87.6498 53.2056 87.5038 53.3011 86.9029 54.2831C86.2236 55.3931 86.1809 55.5403 86.1175 56.9904C85.8111 64.0055 82.37 69.8158 77.3637 71.771C76.0639 72.279 75.7239 72.2727 75.1426 71.7297C74.7451 71.3582 74.4223 71.2109 74.3936 71.3883C74.3876 71.4261 74.3754 71.9092 74.3666 72.4623C74.3477 73.6524 74.2658 73.8535 73.3133 75.0503C72.434 76.1551 72.2068 76.6606 71.9928 77.9836C71.7281 79.6233 67.8335 75.7573 66.7466 72.7757C66.4336 71.9172 66.4535 70.6725 66.7985 69.5461C67.4417 67.4457 67.5709 66.4309 67.3675 65.0735C67.3107 64.6947 67.3258 64.5757 67.4463 64.4554C67.7019 64.2 67.919 64.4057 68.6043 65.5524C69.0458 66.2916 69.3246 65.6063 69.1698 64.1619C69.0889 63.408 68.7636 63.0358 67.9901 62.8108C66.3783 62.3428 67.497 61.4129 69.5781 61.4913C73.0514 61.6218 73.8025 61.5546 75.7522 60.9382C77.1382 60.5002 77.2516 60.4999 77.926 60.9357C78.6103 61.3776 78.6593 61.507 78.7174 63.0407C78.8172 65.6759 79.7662 65.5335 80.3257 62.7996C80.5982 61.4689 80.7617 61.0508 81.1903 60.5887C82.2583 59.4367 82.7216 57.7604 82.5615 55.6278C82.4642 54.3289 82.245 53.9843 81.2012 53.4889C80.5414 53.1762 79.7126 52.3464 78.9083 51.193C77.6382 49.3722 77.0503 48.818 75.8776 48.336C74.8019 47.8941 74.4808 48.0935 74.7283 49.0486C75.0722 50.3737 74.9206 50.6693 73.5563 51.334C71.4973 52.3373 69.7703 52.2736 68.1207 51.1339C66.4903 50.0071 66.2778 48.5931 67.3871 46.2545C67.8875 45.199 67.967 44.9111 68.1662 43.4338C68.5265 40.7608 68.793 40.2038 69.7129 40.2038C70.4952 40.2038 70.838 40.5232 71.0813 41.4779C71.552 43.325 72.3062 44.0649 73.1193 43.4765C73.6806 43.0703 73.7328 42.8916 73.4611 42.3056C73.091 41.508 73.2874 41.3828 74.187 41.8431C75.3649 42.4459 77.4659 42.6876 78.9489 42.3906C80.5631 42.0677 81.2246 42.1996 81.5916 42.9182C81.8371 43.3992 81.9302 43.4562 82.6501 43.5688C83.7896 43.7469 83.8883 43.8491 83.6418 44.5903C83.3393 45.5006 82.397 46.1534 80.9203 46.4759C79.9742 46.6823 79.9602 46.6918 79.9602 47.1039C79.9602 47.884 80.6538 48.0575 82.1977 47.6629C84.3148 47.1221 85.2221 45.7644 85.9659 42.0236C86.4379 39.6494 86.4575 39.6144 87.5196 39.2603C88.4041 38.9651 88.7525 38.9563 88.8978 39.2261ZM49.5146 40.109C50.0969 40.4638 50.3263 41.2372 50.0626 41.9554C49.7566 42.7884 49.7755 43.02 50.4513 46.7093C50.9972 49.6894 50.8683 50.4573 49.9565 49.658C49.5549 49.3057 49.4008 49.023 49.2317 48.3286C49.1609 48.0386 48.7897 46.6753 48.4063 45.2991C47.623 42.4861 47.5127 41.7448 47.755 40.9126C48.018 40.0093 48.7799 39.6613 49.5146 40.109ZM61.5754 42.2049C62.7806 42.4155 63.2341 42.4277 64.2682 42.2783C65.2518 42.1363 65.3733 42.2265 64.902 42.7478C64.5049 43.1868 64.5056 43.1795 64.8067 43.7549C65.4937 45.0675 63.9351 46.3024 61.3022 46.5319C60.4853 46.6029 60.3799 46.6799 60.3799 47.2036C60.3799 47.7353 60.6285 47.8581 61.6825 47.8462C62.879 47.8326 62.8388 47.8291 62.8388 47.9522C62.8388 48.0106 62.718 48.2464 62.5702 48.4762C62.4224 48.7064 62.2379 49.1385 62.1602 49.4365C61.9802 50.1264 61.9367 50.1656 60.8946 50.5752C60.417 50.7627 59.7678 51.1003 59.4516 51.3249C56.7949 53.2143 55.514 52.6473 54.3234 49.0549C53.4953 46.5571 53.6805 46.1639 55.3161 46.9478C56.4125 47.4733 56.8481 47.5125 57.0953 47.107C57.4823 46.4735 57.3828 46.2545 56.5246 45.8469C55.0199 45.1329 54.0286 43.5527 54.7772 43.0626C55.0252 42.9007 55.2121 42.9608 55.6765 43.353C56.5372 44.0803 56.8849 44.0936 57.4984 43.423C58.6904 42.1212 59.5787 41.8557 61.5754 42.2049ZM65.216 48.018C65.4037 48.1698 65.4153 48.2163 65.3176 48.4308C65.1201 48.8638 65.0858 49.5862 65.242 50.0302C65.6208 51.1073 65.1257 51.5698 64.3525 50.8614C63.1669 49.7748 63.9989 47.0335 65.216 48.018ZM75.5915 52.6004C75.7582 52.713 76.2281 53.2147 76.6353 53.7149C77.4096 54.6654 78.4012 55.5054 78.9583 55.6813C81.5163 56.4912 76.8878 57.6617 73.4373 57.0778C72.9425 56.9942 72.0254 56.7626 71.3993 56.5632C70.0711 56.1399 69.6152 56.135 68.6193 56.5332C66.3797 57.428 62.4266 57.5235 60.8418 56.7207C59.8809 56.2337 59.9009 55.971 60.9314 55.5368C61.3043 55.3798 62.1528 54.8928 62.8167 54.4548C64.8274 53.129 65.749 52.9107 66.6636 53.5435C68.7338 54.9761 71.1304 55.1083 72.3531 53.8577C72.6599 53.5442 72.9687 53.334 73.3095 53.2073C73.5864 53.1045 73.9972 52.9107 74.2227 52.7763C74.9475 52.3443 75.1702 52.316 75.5915 52.6004ZM57.5506 55.619C57.7305 55.8104 57.7691 55.9843 57.838 56.9155C58.1241 60.7612 59.3942 64.906 60.2864 64.906C60.4692 64.906 60.5536 64.7898 60.8407 64.1437C61.4871 62.688 61.7652 62.5813 62.0537 63.6777C62.3703 64.8797 63.0331 67.0343 63.2961 67.7168C63.7093 68.7891 63.5549 69.0472 62.5012 69.0434C58.7058 69.0301 53.2369 60.2924 54.9051 56.9068C55.5154 55.668 56.943 54.9733 57.5506 55.619ZM73.3924 58.5793C74.7339 58.7087 74.6761 58.9459 73.217 59.2982C71.8219 59.6354 68.5773 59.8719 67.8917 59.6865C67.1777 59.4938 66.3713 58.8088 66.6864 58.6629C67.1693 58.4394 71.3979 58.3865 73.3924 58.5793ZM101.908 105.356C91.745 106.064 85.5625 111.69 85.5702 120.223C85.5775 128.771 94.2102 133.148 106.293 130.73C108.813 130.226 108.656 130.377 109.099 128.042C109.56 125.61 109.538 125.583 107.538 126.088C98.6251 128.339 92.8487 124.007 94.7543 116.502C95.759 112.546 98.5025 109.917 102.127 109.437C105.023 109.054 106.932 110.274 107.078 112.6C107.141 113.62 107.153 113.627 108.699 113.627C110.248 113.627 110.057 113.925 110.88 110.232C111.8 106.102 111.846 106.349 110.077 105.945C107.403 105.334 104.857 105.15 101.908 105.356ZM33.9353 105.916C33.7886 106.149 33.423 107.688 33.423 108.073C33.423 108.368 33.5452 108.487 34.1822 108.804C34.843 109.134 35.1798 109.642 35.226 110.376C35.2607 110.926 32.673 123.203 32.1404 125.016C31.6617 126.646 30.8668 127.684 29.8822 127.964C28.9413 128.232 28.9374 128.236 28.7091 129.142C28.1909 131.199 27.5231 131.005 35.1045 131.005C42.4153 131.005 41.6446 131.139 41.9457 129.816C42.2893 128.307 42.249 128.1 41.5557 127.826C41.1509 127.667 40.6543 127.162 40.5293 126.783C40.4383 126.508 41.4618 121.26 41.8589 119.964C41.9314 119.728 41.9296 119.726 43.1717 121.952C46.7042 128.285 48.3769 130.068 51.4601 130.784C52.3902 130.999 59.4127 131.092 59.6827 130.892C59.8508 130.767 60.2808 129.221 60.2861 128.722C60.2903 128.345 59.9944 128.157 59.2762 128.081C57.7922 127.922 57.588 127.71 53.2011 121.778C49.849 117.246 49.717 117.052 49.877 116.901C50.8186 116.011 58.8654 109.472 59.2699 109.269C59.9219 108.94 60.8239 108.66 61.5022 108.576C62.24 108.483 62.3531 108.358 62.5642 107.395C62.9715 105.538 63.5552 105.712 56.9192 105.712C50.9082 105.712 51.1639 105.69 51.0438 106.196C50.5917 108.093 50.6078 108.306 51.2258 108.652C52.1874 109.19 52.1906 109.186 47.7 112.917C42.6891 117.08 42.5316 117.208 42.4962 117.166C42.4384 117.098 43.9848 110.216 44.1325 109.883C44.3402 109.415 44.8574 108.943 45.4478 108.683C46.1008 108.395 46.1155 108.373 46.3435 107.324C46.7336 105.532 47.4251 105.712 40.1343 105.712H34.0645L33.9353 105.916ZM64.7174 105.916C64.5704 106.149 64.2048 107.688 64.2048 108.073C64.2048 108.37 64.2724 108.436 64.9359 108.782C65.2437 108.943 65.533 109.185 65.7 109.423C66.2186 110.16 66.2732 109.823 63.8952 120.589C61.54 131.255 61.672 130.567 61.928 130.823C62.1941 131.089 72.0758 131.11 72.385 130.846C72.5993 130.662 73.0906 128.582 72.9922 128.273C72.9603 128.173 72.779 128.011 72.5888 127.914C71.0603 127.135 71.0376 126.679 72.2653 121.474L72.3136 121.27H76.5292C79.7592 121.27 80.7806 121.243 80.8983 121.156C81.0481 121.045 81.8724 117.653 81.8724 117.147C81.8724 116.625 81.9106 116.63 77.4712 116.63C73.6568 116.63 73.4029 116.62 73.4047 116.47C73.4057 116.383 73.7262 114.858 74.1169 113.081L74.8271 109.851L77.7352 109.827C82.1165 109.79 82.599 110.02 82.6004 112.142C82.6011 113.123 82.7223 113.195 84.3036 113.156C85.2834 113.132 85.538 113.098 85.6616 112.974C85.8065 112.829 87.2457 106.681 87.2457 106.208C87.2457 105.681 87.9366 105.712 75.8797 105.712H64.8466L64.7174 105.916ZM132.781 130.914C132.781 131.184 132.786 131.187 133.282 131.187H133.783V132.87V134.553H134.102H134.42V132.87V131.187H134.921C135.417 131.187 135.422 131.184 135.422 130.914V130.641H134.102H132.781V130.914ZM136.333 132.597V134.553H136.606H136.879L136.882 133.166L136.885 131.778L137.26 132.574C137.736 133.585 137.821 133.589 138.311 132.62L138.69 131.869L138.695 133.211L138.701 134.553H138.974H139.247V132.597V130.641H138.968C138.703 130.641 138.666 130.688 138.252 131.574L137.815 132.506L137.346 131.574C136.909 130.703 136.859 130.641 136.605 130.641H136.333V132.597Z" fill="#050505"/>
<path fill-rule="evenodd" clip-rule="evenodd" d="M5.99249 2.02926C3.65362 2.42212 2.00698 4.36584 2 6.74325C1.99756 7.60294 11.9234 133.002 12.0694 133.95C12.3647 135.872 13.9911 137.533 15.9278 137.889C16.8605 138.06 123.338 138.023 124.155 137.851C125.861 137.491 127.247 136.252 127.745 134.641C127.921 134.07 138 8.26689 138 6.63613C138 4.70358 136.722 2.96327 134.75 2.20964L134.232 2.01217L70.2259 2.00135C35.0224 1.99577 6.11746 2.00798 5.99249 2.02926ZM35.953 51.9198V98.3336H24.332C17.9403 98.3336 12.7113 98.3033 12.712 98.2656C12.7127 98.2283 11.0961 77.8319 9.11959 52.9404C5.6612 9.3893 5.53099 7.66539 5.66504 7.20449C5.84447 6.58729 6.35484 5.99346 6.9406 5.72097L7.39965 5.50744L21.6762 5.5064L35.953 5.5057V51.9198ZM133.241 5.82564C133.768 6.15012 134.227 6.78825 134.351 7.36952C134.421 7.69749 133.693 17.1726 130.865 52.7638C128.899 77.5029 127.29 97.8766 127.289 98.0388L127.287 98.3336H115.621H103.954V51.9184V5.50326L118.374 5.52698L132.794 5.55106L133.241 5.82564ZM73.9482 6.76872C76.3554 7.15913 78.9621 7.97626 80.8293 8.92527C88.0369 12.5884 92.5977 19.3089 93.6442 27.8084C93.7978 29.0536 93.9828 29.443 94.6866 30.0002C95.3774 30.5469 95.2706 31.4436 94.061 35.2498C93.2229 37.8874 93.2421 37.7699 93.6205 37.9726C95.6385 39.0531 95.5237 40.8988 92.8452 50.4224C91.4569 55.3589 90.8313 56.3421 88.9941 56.4775C88.1381 56.5403 88.1598 56.5082 88.1584 57.7015C88.1535 61.0858 86.3061 66.895 84.4221 69.451C83.179 71.1372 79.5901 74.3534 77.1259 75.989C76.4769 76.4199 75.9125 76.7999 75.872 76.833C75.8315 76.8662 76.4651 76.893 77.2795 76.8927C80.7612 76.8906 80.8115 76.944 80.7211 80.5485C80.6443 83.6038 80.7752 83.4565 78.3337 83.2385C75.8702 83.0187 74.8156 82.9747 73.6954 83.0445L72.6555 83.1094L72.7291 83.3944C74.0016 88.3192 74.618 93.606 74.4044 97.7618C74.2857 100.065 74.2246 100.17 72.977 100.192C72.3581 100.203 71.7748 100.277 71.2518 100.41C70.5069 100.6 70.4458 100.603 70.1745 100.463L69.8866 100.314L69.9421 98.5754C70.0607 94.8631 70.11 90.6885 70.0461 89.751L69.9791 88.7692L69.6771 89.7629C68.9789 92.0601 66.4788 98.1539 65.9464 98.8556C65.6497 99.2464 65.5555 99.2345 64.3543 98.6508C63.7437 98.3539 63.1045 98.1135 62.7813 98.0583C61.9232 97.9129 61.851 97.8898 61.7958 97.7454C61.7665 97.6693 62.2786 96.5176 62.9565 95.136C64.3029 92.3908 65.1882 90.3518 66.5322 86.9005C67.0279 85.6277 67.5407 84.3326 67.6723 84.0221C67.975 83.3062 67.9805 83.1429 67.7002 83.213C67.5847 83.2423 65.8082 83.31 63.7531 83.3644C58.6499 83.4988 58.9721 83.7186 59.0272 80.1406C59.0747 77.0636 58.9239 77.2053 62.2636 77.0985C63.4267 77.0616 64.3975 77.0124 64.4206 76.9893C64.4436 76.9663 63.6142 76.3205 62.5778 75.554C56.8119 71.2915 54.4155 68.1594 53.8426 64.1362C53.7721 63.6408 53.6143 63.1038 53.3888 62.5916C52.662 60.941 52.2787 59.4767 52.1178 57.737C51.9963 56.4245 52.0441 56.5019 51.3526 56.5019C49.5569 56.5019 48.6856 55.249 47.9298 51.5807C47.6163 50.0592 47.3643 49.1251 46.5708 46.5443C45.3085 42.4378 45.0132 40.2812 45.5239 38.8996C45.7581 38.2663 46.3701 37.7186 46.8431 37.7186C47.0739 37.7186 47.0794 37.7908 46.7677 36.7403C46.6235 36.2553 46.3135 35.0418 46.0783 34.0436C45.843 33.0454 45.4897 31.6163 45.2932 30.8676C44.4962 27.8321 44.6477 27.1745 46.5 25.6281C46.841 25.3434 47.0976 25.0291 47.2599 24.6976L47.505 24.1973L47.3528 23.5853C47.1541 22.7878 46.8546 22.1378 46.2867 21.2714C45.7456 20.4459 45.7599 20.1584 46.3816 19.3361C46.9908 18.5308 47.5074 18.3473 49.2019 18.3354C50.1964 18.3285 50.7204 18.2866 50.9696 18.1934L51.324 18.0612L50.8789 17.8009C50.2554 17.4367 49.1223 16.2623 48.7994 15.6461C48.4412 14.9626 48.5044 14.9075 49.8002 14.7732C52.6945 14.4731 54.7516 13.0835 55.3025 11.056C55.5231 10.2441 55.7315 10.0819 57.5607 9.29998C63.1799 6.89886 69.1074 5.98299 73.9482 6.76872ZM68.4103 8.82827C63.8449 9.29754 61.0222 9.99778 60.0685 10.8979C59.71 11.2364 59.8434 11.3313 60.7161 11.3588C62.3687 11.4112 62.4043 12.0437 60.7849 12.5831C58.8429 13.2296 55.9822 15.0404 55.2232 16.1032C54.8323 16.651 54.7904 16.6534 56.3885 16.0376C61.6775 13.999 66.2899 14.7177 70.2259 18.1931C72.1385 19.8818 72.1867 20.043 71.0665 21.001C70.1236 21.8077 70.0827 21.8136 69.0145 21.3063C66.7668 20.2387 63.3985 19.9826 61.7469 20.754C58.6792 22.1862 56.8894 25.1439 55.8233 30.541C55.3534 32.9198 55.4226 32.7698 54.6308 33.1354C53.4328 33.6884 52.9524 34.4975 52.9322 35.9947C52.9308 36.114 53.5424 36.1307 57.9014 36.1307C64.3804 36.1307 64.8856 36.2337 67.1134 38.0078C67.8884 38.625 68.1453 38.6948 68.8662 38.4855C69.3912 38.333 69.7434 38.3351 70.9977 38.4994C71.3953 38.5514 71.4316 38.5343 72.3595 37.8508C74.5653 36.2263 75.2953 36.0875 81.6319 36.0861C85.091 36.0854 85.6114 36.1046 86.5344 36.2658C87.102 36.3652 87.7199 36.4468 87.907 36.4475L88.2477 36.4482V35.9085C88.2477 34.1643 87.3108 31.3292 86.297 30.0058C85.6568 29.1698 85.6781 29.2783 85.6973 26.932C85.7158 24.6634 85.7172 24.6519 85.9752 24.6519C86.6692 24.6519 88.1968 28.0547 89.4741 32.4446C90.2473 35.1011 90.5705 34.8824 90.8002 31.5483C91.1532 26.432 90.0347 21.3426 87.819 17.9824C84.118 12.37 75.1431 8.13675 68.4103 8.82827ZM59.059 18.3428C57.9897 18.5123 57.375 18.7129 56.0841 19.3127C54.0231 20.2701 50.9553 21.113 49.5314 21.113C48.8329 21.113 48.7955 21.2264 49.2043 22.1112C50.1776 24.2179 50.1643 24.8923 49.1226 26.3294C47.6083 28.4197 47.461 29.1349 48.0206 31.6843C48.5201 33.9609 49.3457 37.1743 49.4312 37.1743C50.2125 37.1743 50.5898 36.5602 50.6785 35.1454C50.8352 32.641 51.2859 30.2176 51.9687 28.2086C52.3852 26.9826 52.4993 26.8137 53.593 25.8008C54.4179 25.0371 54.5743 24.84 55.0187 24.0058C56.3096 21.583 58.0575 19.9142 60.2794 18.9827C61.1605 18.6135 61.2296 18.5151 60.7328 18.3358C60.3426 18.1948 59.9799 18.1962 59.059 18.3428ZM52.8519 37.4046C52.684 37.4775 52.4389 37.5378 52.3073 37.5385C51.7544 37.5417 51.6863 37.9293 52.2208 38.0312C52.3866 38.0629 52.691 38.132 52.8973 38.1847C53.3891 38.3107 53.6569 38.1795 53.6569 37.8128C53.6569 37.3222 53.3731 37.1785 52.8519 37.4046ZM86.2684 37.4646C85.9546 37.7782 86.2468 38.3218 86.6807 38.2321C86.8186 38.2039 87.1163 38.1456 87.3429 38.1031C88.0145 37.9768 88.2317 37.6812 87.7255 37.5828C87.5883 37.556 87.3017 37.4942 87.0888 37.445C86.5815 37.3281 86.4007 37.3323 86.2684 37.4646ZM56.2897 38.4544C55.0529 38.5947 54.2908 39.1013 54.1446 39.8807C53.9801 40.7571 54.5404 40.7425 55.9176 39.8343C56.5089 39.4442 57.1209 39.0556 57.2769 38.9704C57.7192 38.73 57.6162 38.3274 57.1223 38.3658C57.0388 38.3721 56.6643 38.4122 56.2897 38.4544ZM81.2978 38.4691C81.1564 38.8371 82.8107 40.1905 83.6419 40.3859C84.5523 40.6005 84.731 39.0088 83.8409 38.6152C83.2788 38.3668 81.3788 38.2576 81.2978 38.4691ZM60.5569 38.8005C59.5969 39.1173 57.2839 40.3999 57.0748 40.7313C56.7219 41.2903 57.6235 41.2582 58.9434 40.665C60.5653 39.9358 61.7323 39.6926 62.6905 39.8838C63.2798 40.0014 63.3814 39.9065 63.1433 39.462C62.7526 38.7328 61.6314 38.446 60.5569 38.8005ZM77.8977 39.0831C76.589 39.5506 76.0741 40.3018 77.2051 40.0935C78.716 39.8151 79.6162 39.9826 80.541 40.7128C81.4486 41.4298 82.4609 41.8136 82.7744 41.5593C82.8819 41.472 82.9011 41.4127 82.8313 41.3831C82.5493 41.2641 81.8511 40.7369 81.0297 40.0227C79.6909 38.8591 79.0574 38.669 77.8977 39.0831ZM87.8044 39.2754C86.4775 39.6222 86.415 39.7129 85.9755 41.9382C85.099 46.3741 83.7047 47.9724 80.7117 47.9724C79.4016 47.9724 79.4393 46.7369 80.7574 46.4732C82.1248 46.2 83.0313 45.6421 83.4024 44.8455C83.7993 43.9939 83.7058 43.8498 82.6568 43.6973C81.841 43.579 81.7663 43.5365 81.5188 43.0522C81.1662 42.361 80.3273 42.1684 79.0326 42.4807C77.7061 42.801 75.2939 42.5299 74.1035 41.927C73.251 41.4954 73.1187 41.5764 73.479 42.3104C73.8141 42.9936 73.4315 43.6397 72.5626 43.8578C72.0865 43.9771 71.3803 42.9468 70.9984 41.5753C70.7212 40.5792 70.4615 40.335 69.6792 40.335C68.7621 40.335 68.6599 40.5795 68.0968 44.116C67.932 45.1501 67.8482 45.424 67.4164 46.3392C66.4435 48.4015 66.4886 49.5574 67.5854 50.6537C69.0027 52.0702 71.1659 52.3821 73.1662 51.4586C74.7793 50.7133 74.9375 50.4977 74.6812 49.3928C74.3845 48.1137 74.5549 47.8939 75.5819 48.2309C76.767 48.6199 77.6265 49.3718 78.7791 51.028C79.7042 52.3577 80.4401 53.0852 81.3344 53.5534C82.3943 54.1081 82.4756 54.2836 82.5119 56.0867C82.5573 58.3316 82.2459 59.4299 81.2615 60.4975C80.7724 61.0282 80.5511 61.5561 80.3507 62.6726C80.0962 64.0898 79.633 64.9411 79.116 64.9411C78.7498 64.9411 78.539 63.9694 78.5348 62.2616C78.5313 60.8503 77.5587 60.4166 75.7034 60.9993C73.6745 61.6363 72.542 61.7637 70.5868 61.5749C68.8693 61.4092 68.6588 61.4232 67.9617 61.749C67.1354 62.1356 67.0824 62.5567 67.8413 62.7085C68.7618 62.8924 69.1392 63.3899 69.2352 64.5455C69.357 66.0102 68.9266 66.3263 68.3171 65.2195C67.6416 63.9935 67.2845 64.0982 67.4594 65.4708C67.6004 66.5761 67.5191 67.187 66.9884 69.0034C66.366 71.1344 66.4013 71.9687 67.1825 73.6068C68.0619 75.4517 69.8534 77.4666 71.2937 78.2318C71.7304 78.4638 71.7985 78.3905 71.965 77.5092C72.1458 76.5529 72.4094 76.0065 73.1215 75.1133C74.1471 73.8276 74.1998 73.7041 74.2595 72.4463C74.3259 71.0559 74.4173 70.9569 75.0586 71.5828C75.6353 72.1459 75.924 72.1948 76.8089 71.8786C81.8849 70.0651 85.2603 64.9021 85.889 57.9896C86.1546 55.0714 86.0729 55.4319 86.7062 54.3806C87.4033 53.2233 87.5286 53.1382 88.1447 53.403C89.3285 53.9121 89.9813 52.8615 90.9266 48.9252C91.0942 48.2264 91.4383 46.9257 91.6914 46.0346C93.0375 41.2903 92.9907 39.8964 91.4848 39.8964C90.9008 39.8964 90.4539 41.0495 90.6159 42.1381L90.7276 42.8868L90.4637 43.3118C90.1879 43.7552 89.4388 44.3428 89.1487 44.3428C88.8405 44.3428 88.8132 44.0829 88.9047 42.0289C89.0339 39.1403 88.9665 38.9718 87.8044 39.2754ZM48.1867 40.3071C47.6418 40.8517 47.6156 42.0439 48.1082 43.8892C49.5447 49.2699 49.5827 49.3781 50.1863 49.7915C50.8887 50.2723 50.9152 49.3488 50.2931 46.0667C49.8449 43.7012 49.7569 42.6349 49.9685 42.1311C50.5368 40.7784 49.1429 39.3514 48.1867 40.3071ZM59.3117 42.2965C58.691 42.4905 58.1556 42.8523 57.6291 43.4339C56.925 44.2116 56.665 44.2032 55.5622 43.3673C55.1045 43.0205 54.8993 42.9981 54.7062 43.2741C54.2681 43.899 55.1918 45.1787 56.532 45.8036C57.4602 46.2363 57.6099 46.6319 57.094 47.2875C56.8084 47.6504 56.3714 47.5704 55.0375 46.9124C53.8705 46.3367 53.696 46.657 54.1997 48.4497C55.3349 52.4913 56.6486 53.2097 59.4304 51.311C59.8347 51.0354 60.5087 50.6778 60.9283 50.5162C61.8939 50.1453 61.882 50.1561 62.0992 49.428C62.1993 49.0924 62.4008 48.6391 62.5474 48.4214C62.8975 47.9002 62.8888 47.8946 61.8059 47.942C60.5478 47.9972 60.4208 47.9291 60.4208 47.2006C60.4208 46.5653 60.3813 46.588 61.7539 46.4376C64.0038 46.1909 65.4102 44.9705 64.7445 43.8428C64.4799 43.3945 64.5023 43.1352 64.8374 42.7532C65.2326 42.3035 65.1118 42.2557 63.9846 42.4165C63.0508 42.5494 62.9572 42.547 61.8056 42.3586C60.4522 42.137 59.8689 42.1227 59.3117 42.2965ZM64.1919 48.2274C63.4986 48.92 63.6892 50.3948 64.549 50.9925C65.1222 51.3906 65.4692 51.0898 65.2476 50.3871C65.0706 49.8261 65.0517 49.0048 65.2036 48.4975C65.3792 47.912 64.6911 47.7282 64.1919 48.2274ZM74.72 52.5761C74.6449 52.6051 74.4407 52.7185 74.2658 52.8284C74.0909 52.9379 73.6839 53.1239 73.361 53.2415C72.9093 53.4061 72.6548 53.5768 72.2547 53.9829C71.0857 55.1695 68.8672 55.0805 66.8467 53.7662C65.6274 52.9735 64.9847 53.0967 62.8054 54.5408C62.2329 54.9204 61.4111 55.3938 60.9793 55.5934C60.1027 55.9981 60.0438 56.1063 60.5059 56.4587C61.8105 57.453 66.0309 57.4684 68.567 56.4876C69.5881 56.093 70.1009 56.1007 71.4222 56.5312C74.2225 57.4436 78.258 57.3871 79.4539 56.4192C79.6829 56.2336 79.5119 55.8669 79.1963 55.8669C78.6989 55.8669 77.4331 54.8816 76.6176 53.8594C75.6199 52.6093 75.2625 52.3671 74.72 52.5761ZM56.3962 55.5861C54.8763 56.1108 54.3097 57.7943 54.9255 59.9557C56.3592 64.9861 59.7163 68.9678 62.5041 68.9434C63.6226 68.9336 63.6369 68.8736 62.974 66.9724C62.798 66.4676 62.4636 65.3856 62.2308 64.5678C61.9983 63.75 61.7745 63.0449 61.7337 63.0012C61.6014 62.8592 61.2202 63.3843 60.9105 64.1341C60.4644 65.2133 60.1823 65.2642 59.6123 64.3682C58.7567 63.0225 57.7422 58.7555 57.7422 56.5016C57.7422 55.5369 57.3373 55.2612 56.3962 55.5861ZM67.6562 58.6058C66.5388 58.7185 66.4467 58.879 67.2248 59.357L67.6734 59.6326L69.3584 59.6183C71.8142 59.597 74.5699 59.1347 74.2348 58.7998C74.0316 58.5967 69.1688 58.453 67.6562 58.6058ZM106.769 105.241C108.895 105.447 110.978 105.925 111.285 106.277C111.565 106.597 111.575 106.524 110.8 110.039C109.956 113.873 110.147 113.578 108.498 113.578C106.965 113.578 106.932 113.555 106.851 112.411C106.698 110.246 105.147 109.173 102.415 109.342C98.3244 109.594 95.1474 112.881 94.4604 117.571C93.4697 124.335 99.1329 127.975 107.359 125.861C109.429 125.329 109.475 125.387 108.993 127.938C108.591 130.069 108.649 129.989 107.223 130.361C102.99 131.462 97.1962 131.478 93.6041 130.396C86.7934 128.346 83.8363 122.473 86.1148 115.521C88.534 108.14 96.3814 104.234 106.769 105.241ZM46.5122 105.793L46.6958 106.039L46.4821 107.056C46.2409 108.205 46.1212 108.39 45.4684 108.626C45.002 108.795 44.3887 109.347 44.2222 109.749C44.1136 110.011 42.5832 116.87 42.623 116.915C42.6548 116.95 51.4091 109.674 51.5432 109.502C51.8242 109.139 51.6455 108.763 51.0478 108.461C50.8674 108.369 50.7302 108.217 50.6914 108.064C50.5944 107.682 50.9805 105.969 51.221 105.713L51.4189 105.502H56.9254H62.4318L62.642 105.726C62.8773 105.976 62.8717 106.164 62.5928 107.388C62.3844 108.303 62.3023 108.379 61.341 108.545C60.4602 108.696 59.444 109.058 58.8771 109.422C58.5738 109.616 50.3308 116.425 49.9454 116.799C49.8393 116.902 50.3539 117.643 53.2572 121.573C57.7077 127.597 57.7614 127.653 59.2391 127.819C60.3569 127.944 60.4641 128.122 60.189 129.396C59.8277 131.07 60.2103 130.942 55.7273 130.885C48.9216 130.799 47.7193 129.942 43.2793 122.017C42.6502 120.894 42.1015 119.919 42.0599 119.85C41.9503 119.669 40.5467 126.121 40.6179 126.478C40.7027 126.901 40.9795 127.22 41.507 127.502C42.4164 127.988 42.4247 128.013 42.1203 129.383C41.8732 130.496 41.7943 130.685 41.5262 130.807C41.366 130.88 39.5266 130.91 35.1439 130.91C27.6417 130.91 28.2383 131.075 28.6942 129.121C28.9364 128.084 29.0269 127.956 29.607 127.831C30.8561 127.563 31.6576 126.625 32.1707 124.83C32.3034 124.366 35.1334 111.484 35.2633 110.752C35.413 109.91 34.9616 109.069 34.1664 108.705C33.3667 108.339 33.3346 108.233 33.6212 106.924C33.9706 105.327 33.1593 105.497 40.2894 105.524L46.3289 105.548L46.5122 105.793ZM87.0259 105.725C87.3118 106.011 87.3558 105.686 86.5239 109.439C85.6495 113.386 85.8813 113.034 84.1547 113.034C82.4836 113.034 82.4372 113.001 82.4372 111.825C82.4372 110.869 82.2281 110.41 81.634 110.061L81.2116 109.812L78.0185 109.786L74.8254 109.759L74.7161 110.285C74.6561 110.574 74.3332 112.056 73.9981 113.578L73.3893 116.346L77.4722 116.391L81.5551 116.437L81.7422 116.687L81.9289 116.937L81.5037 118.857C81.1795 120.32 81.0311 120.828 80.8792 120.989L80.6806 121.201H76.4961H72.312L71.8254 123.426C71.1551 126.49 71.2002 126.804 72.4244 127.622C72.7037 127.808 72.9609 128.042 72.9962 128.142C73.1079 128.46 72.5979 130.554 72.3616 130.745C72.1144 130.945 62.4992 131.005 62.0691 130.809C61.5549 130.575 61.4851 130.991 63.7723 120.628C66.2721 109.3 66.0445 110.437 65.9126 109.94C65.7583 109.362 65.4315 108.985 64.8147 108.674C64.0554 108.291 64.024 108.186 64.289 106.935C64.444 106.204 64.5637 105.852 64.7065 105.707L64.9065 105.502H75.8549H86.8032L87.0259 105.725Z" fill="#FBFBFB"/>
<path fill-rule="evenodd" clip-rule="evenodd" d="M137.945 6.29526C137.946 6.5458 137.964 6.63761 137.985 6.49884C138.006 6.36043 138.005 6.15544 137.984 6.04331C137.962 5.93118 137.945 6.04436 137.945 6.29526ZM69.1632 8.31747C69.2508 8.34024 69.394 8.34024 69.4819 8.31747C69.5695 8.29434 69.4977 8.27577 69.3226 8.27577C69.1471 8.27577 69.0753 8.29434 69.1632 8.31747ZM69.9828 8.31747C70.0707 8.34024 70.214 8.34024 70.3019 8.31747C70.3895 8.29434 70.3177 8.27577 70.1422 8.27577C69.9671 8.27577 69.8953 8.29434 69.9828 8.31747ZM48.0281 17.9775C48.116 18.0003 48.2593 18.0003 48.3472 17.9775C48.4348 17.9544 48.363 17.9358 48.1878 17.9358C48.0124 17.9358 47.9405 17.9544 48.0281 17.9775ZM49.4842 24.294C49.4842 24.4696 49.5031 24.5414 49.5259 24.4535C49.5486 24.3659 49.5486 24.2222 49.5259 24.1346C49.5031 24.047 49.4842 24.1185 49.4842 24.294ZM85.468 25.7521C85.468 25.9276 85.4866 25.9995 85.5097 25.9115C85.5324 25.8239 85.5324 25.6806 85.5097 25.5926C85.4866 25.505 85.468 25.5769 85.468 25.7521ZM44.4799 28.0304C44.4799 28.3062 44.497 28.419 44.518 28.281C44.5387 28.1433 44.5387 27.9176 44.518 27.7799C44.497 27.6422 44.4799 27.755 44.4799 28.0304ZM50.3042 35.1388C50.3042 35.3144 50.3228 35.3862 50.3459 35.2983C50.3686 35.2107 50.3686 35.0673 50.3459 34.9794C50.3228 34.8918 50.3042 34.9636 50.3042 35.1388ZM53.9954 35.8411C54.1078 35.8628 54.2924 35.8628 54.4052 35.8411C54.518 35.8193 54.4255 35.8018 54.2003 35.8018C53.9747 35.8018 53.8826 35.8193 53.9954 35.8411ZM61.2842 35.8414C61.3973 35.8631 61.5612 35.8624 61.6484 35.8396C61.7357 35.8165 61.6428 35.799 61.4425 35.7997C61.2421 35.8008 61.1707 35.8197 61.2842 35.8414ZM78.0009 35.8425C78.1393 35.8631 78.3442 35.8628 78.4562 35.8411C78.5683 35.8193 78.4552 35.8022 78.2044 35.8029C77.954 35.8036 77.8622 35.8214 78.0009 35.8425ZM69.2087 38.1194C69.3212 38.1411 69.5057 38.1411 69.6185 38.1194C69.7313 38.0977 69.6389 38.0802 69.4136 38.0802C69.1881 38.0802 69.0959 38.0977 69.2087 38.1194ZM94.76 40.2425C94.76 40.4177 94.7786 40.4896 94.8017 40.402C94.8245 40.3144 94.8245 40.1707 94.8017 40.0831C94.7786 39.9952 94.76 40.067 94.76 40.2425ZM47.3027 41.5639C47.3034 41.8145 47.3213 41.9063 47.3419 41.7675C47.363 41.6291 47.3626 41.4241 47.3409 41.312C47.3192 41.1999 47.302 41.3134 47.3027 41.5639ZM59.7356 41.8562C59.8487 41.8779 60.0127 41.8772 60.0999 41.8544C60.1868 41.8316 60.0943 41.8138 59.8939 41.8148C59.6932 41.8159 59.6221 41.8344 59.7356 41.8562ZM60.9654 47.6898C61.1038 47.7105 61.309 47.7101 61.4208 47.6884C61.5329 47.6667 61.4197 47.6495 61.1693 47.6502C60.9185 47.6509 60.8271 47.6688 60.9654 47.6898ZM80.3236 47.6887C80.437 47.7105 80.601 47.7098 80.6878 47.687C80.7751 47.6642 80.6822 47.6463 80.4819 47.6474C80.2815 47.6484 80.2104 47.667 80.3236 47.6887ZM88.3392 56.2552C88.452 56.2769 88.6362 56.2769 88.749 56.2552C88.8618 56.2335 88.7697 56.2156 88.5441 56.2156C88.3185 56.2156 88.2264 56.2335 88.3392 56.2552ZM63.1504 57.0737C63.2383 57.0969 63.3816 57.0969 63.4695 57.0737C63.5571 57.051 63.4853 57.032 63.3101 57.032C63.1347 57.032 63.0628 57.051 63.1504 57.0737ZM69.4833 58.262C69.6473 58.282 69.8931 58.2816 70.0301 58.2609C70.1671 58.2403 70.0329 58.2234 69.7324 58.2241C69.4318 58.2245 69.3198 58.2417 69.4833 58.262ZM67.1572 66.1245C67.1572 66.3 67.1761 66.3715 67.1989 66.2839C67.222 66.1963 67.222 66.0526 67.1989 65.965C67.1761 65.8771 67.1572 65.9489 67.1572 66.1245ZM58.6999 79.9313C58.7002 80.6328 58.7142 80.9079 58.7317 80.5424C58.7489 80.1769 58.7489 79.6026 58.7314 79.2666C58.7139 78.9302 58.6999 79.2294 58.6999 79.9313ZM63.4695 83.2325C63.6324 83.2525 63.8986 83.2525 64.0615 83.2325C64.2243 83.2122 64.0912 83.1957 63.7655 83.1957C63.4397 83.1957 63.3066 83.2122 63.4695 83.2325ZM69.7159 96.3809C69.7159 96.7068 69.7324 96.8399 69.7527 96.677C69.773 96.514 69.773 96.2474 69.7527 96.0848C69.7324 95.9218 69.7159 96.055 69.7159 96.3809ZM75.9557 109.755C76.7728 109.77 78.0846 109.77 78.8706 109.755C79.6566 109.739 78.988 109.727 77.3848 109.727C75.7812 109.727 75.1381 109.74 75.9557 109.755ZM106.699 112.648C106.699 112.899 106.717 112.991 106.738 112.852C106.759 112.713 106.758 112.508 106.737 112.396C106.715 112.284 106.698 112.397 106.699 112.648ZM107.789 113.581C108.077 113.599 108.548 113.599 108.836 113.581C109.124 113.563 108.889 113.548 108.312 113.548C107.736 113.548 107.5 113.563 107.789 113.581ZM74.0824 121.238C75.2222 121.252 77.0874 121.252 78.2272 121.238C79.3673 121.223 78.4345 121.211 76.155 121.211C73.875 121.211 72.9426 121.223 74.0824 121.238ZM31.7216 130.989C33.4127 131.003 36.1798 131.003 37.8709 130.989C39.5617 130.975 38.1785 130.963 34.7962 130.963C31.4144 130.963 30.0308 130.975 31.7216 130.989ZM54.8665 130.989C55.6584 131.004 56.9292 131.004 57.6904 130.989C58.4512 130.973 57.8032 130.961 56.2497 130.961C54.6966 130.961 54.0742 130.974 54.8665 130.989ZM64.3284 130.989C65.665 131.003 67.8787 131.003 69.2476 130.989C70.6165 130.975 69.5229 130.963 66.8174 130.963C64.1116 130.963 62.9917 130.975 64.3284 130.989Z" fill="#7C7C7C"/>
<path fill-rule="evenodd" clip-rule="evenodd" d="M38.4959 2.02317C56.074 2.03581 84.8657 2.03581 102.477 2.02317C120.089 2.01018 105.707 2 70.5169 2C35.3272 2 20.9177 2.01018 38.4959 2.02317ZM70.4028 6.67902C70.6913 6.69692 71.1637 6.69692 71.4525 6.67902C71.741 6.66076 71.5048 6.64601 70.9275 6.64601C70.3502 6.64601 70.114 6.66076 70.4028 6.67902ZM64.5615 20.465C64.6994 20.4857 64.9254 20.4857 65.0633 20.465C65.2016 20.444 65.0886 20.4268 64.8124 20.4268C64.5362 20.4268 64.4235 20.444 64.5615 20.465ZM86.3737 25.7869C86.3737 25.9624 86.3923 26.0344 86.4154 25.9466C86.4383 25.8589 86.4383 25.7149 86.4154 25.6272C86.3923 25.539 86.3737 25.611 86.3737 25.7869ZM48.0414 29.6675C48.0424 29.8684 48.061 29.94 48.0832 29.8262C48.1049 29.7128 48.1042 29.5485 48.081 29.4611C48.0582 29.3737 48.0403 29.4667 48.0414 29.6675ZM57.0314 36.4475C57.9477 36.4622 59.4469 36.4622 60.3628 36.4475C61.2791 36.4324 60.5295 36.4201 58.6973 36.4201C56.865 36.4201 56.1154 36.4324 57.0314 36.4475ZM80.0814 36.4468C80.4221 36.4643 80.9562 36.4643 81.2679 36.4464C81.5795 36.4289 81.3005 36.4141 80.6481 36.4145C79.9954 36.4145 79.7402 36.4292 80.0814 36.4468ZM83.7739 36.4468C84.1378 36.464 84.7334 36.464 85.0973 36.4468C85.4612 36.4296 85.1636 36.4152 84.4358 36.4152C83.708 36.4152 83.41 36.4296 83.7739 36.4468ZM89.663 40.7621C89.663 40.9878 89.6809 41.0805 89.7027 40.9675C89.7244 40.8544 89.7244 40.6694 89.7027 40.5563C89.6809 40.4436 89.663 40.536 89.663 40.7621ZM45.7578 41.3098C45.7578 41.4857 45.7768 41.5576 45.7996 41.4695C45.8224 41.3817 45.8224 41.2378 45.7996 41.15C45.7768 41.0623 45.7578 41.1339 45.7578 41.3098ZM51.2377 49.5278C51.2377 49.7539 51.2556 49.8462 51.2774 49.7332C51.2991 49.6201 51.2991 49.4355 51.2774 49.3224C51.2556 49.2094 51.2377 49.3017 51.2377 49.5278ZM67.8245 50.8349C67.8245 50.8504 67.9578 50.9841 68.121 51.1316L68.4176 51.3998L68.1494 51.1028C67.8996 50.8265 67.8245 50.7644 67.8245 50.8349ZM70.6327 55.1639C70.7966 55.1843 71.0429 55.1839 71.1802 55.1632C71.3174 55.1421 71.1833 55.1256 70.8819 55.126C70.5808 55.1267 70.4685 55.1435 70.6327 55.1639ZM58.2621 56.8327C58.2621 57.0085 58.2807 57.0805 58.3039 56.9927C58.3267 56.9046 58.3267 56.761 58.3039 56.6729C58.2807 56.5851 58.2621 56.6571 58.2621 56.8327ZM88.7572 57.9284C88.7572 58.3553 88.773 58.5302 88.7923 58.3167C88.8116 58.1033 88.8116 57.7539 88.7923 57.5405C88.773 57.327 88.7572 57.5015 88.7572 57.9284ZM64.6081 57.7192C64.7215 57.7409 64.8861 57.7402 64.9731 57.7174C65.0605 57.6946 64.9675 57.6767 64.7668 57.6777C64.566 57.6788 64.4944 57.6974 64.6081 57.7192ZM69.628 58.9062C69.7417 58.928 69.9059 58.9273 69.9933 58.9044C70.0803 58.8816 69.9877 58.8637 69.7866 58.8648C69.5858 58.8658 69.5146 58.8844 69.628 58.9062ZM71.27 58.9062C71.3826 58.928 71.5676 58.928 71.6806 58.9062C71.7936 58.8844 71.7009 58.8665 71.4753 58.8665C71.2493 58.8665 71.157 58.8844 71.27 58.9062ZM81.8803 69.5707C81.6585 69.7968 81.4977 69.9818 81.5227 69.9818C81.5479 69.9818 81.7497 69.7968 81.9715 69.5707C82.1929 69.3449 82.354 69.1599 82.3288 69.1599C82.3038 69.1599 82.1017 69.3449 81.8803 69.5707ZM83.429 71.6937L82.8383 72.3102L83.4546 71.7193C83.7936 71.3942 84.0708 71.1169 84.0708 71.1028C84.0708 71.0358 83.9778 71.1211 83.429 71.6937ZM74.8797 72.9949C74.8797 73.2712 74.8966 73.3842 74.9176 73.2459C74.9387 73.1079 74.9387 72.8818 74.9176 72.7438C74.8966 72.6059 74.8797 72.7186 74.8797 72.9949ZM81.2784 81.3955C81.2784 82.2244 81.2921 82.5632 81.3093 82.1489C81.3261 81.7346 81.3261 81.0567 81.3093 80.6424C81.2921 80.2281 81.2784 80.5669 81.2784 81.3955ZM59.5458 82.3087C59.5458 82.585 59.563 82.698 59.5841 82.5597C59.6048 82.4217 59.6048 82.1956 59.5841 82.0576C59.563 81.9196 59.5458 82.0323 59.5458 82.3087ZM67.2995 83.8328C67.3876 83.8556 67.5311 83.8556 67.6188 83.8328C67.7069 83.8096 67.635 83.791 67.4592 83.791C67.2837 83.791 67.2117 83.8096 67.2995 83.8328ZM63.3749 83.9265C63.5129 83.9472 63.7389 83.9472 63.8768 83.9265C64.015 83.9054 63.902 83.8882 63.6259 83.8882C63.3497 83.8882 63.2367 83.9054 63.3749 83.9265ZM60.8664 84.0185C61.0307 84.0388 61.277 84.0385 61.4142 84.0174C61.5515 83.9967 61.4171 83.9802 61.1159 83.9806C60.8148 83.9813 60.7025 83.9981 60.8664 84.0185ZM74.8734 95.1836C74.8734 95.3595 74.8924 95.4315 74.9152 95.3433C74.938 95.2556 74.938 95.1116 74.9152 95.0238C74.8924 94.9361 74.8734 95.0077 74.8734 95.1836ZM70.5885 98.0601C70.5892 98.3111 70.6071 98.4031 70.6281 98.2641C70.6488 98.1254 70.6485 97.92 70.6267 97.8076C70.605 97.6953 70.5878 97.8087 70.5885 98.0601ZM37.6364 106.301C39.2806 106.315 41.9705 106.315 43.6147 106.301C45.2588 106.287 43.9137 106.275 40.6254 106.275C37.3374 106.275 35.9923 106.287 37.6364 106.301ZM54.704 106.301C56.1975 106.315 58.6415 106.315 60.1347 106.301C61.6283 106.287 60.4063 106.275 57.4195 106.275C54.4327 106.275 53.2107 106.287 54.704 106.301ZM71.0029 106.301C74.0315 106.314 78.9601 106.314 81.9557 106.301C84.9513 106.288 82.4733 106.276 76.4495 106.276C70.4256 106.276 67.9747 106.288 71.0029 106.301ZM103.304 110.042C103.466 110.062 103.754 110.063 103.943 110.043C104.132 110.023 104 110.006 103.648 110.006C103.297 110.006 103.142 110.022 103.304 110.042ZM75.9248 117.258C77.0415 117.273 78.8692 117.273 79.9862 117.258C81.1033 117.243 80.1894 117.232 77.9554 117.232C75.7216 117.232 74.8078 117.243 75.9248 117.258ZM94.9601 119.883C94.9608 120.185 94.9776 120.297 94.998 120.133C95.0183 119.969 95.018 119.722 94.9973 119.585C94.9762 119.448 94.9597 119.582 94.9601 119.883ZM86.0147 120.933C86.0147 121.21 86.0319 121.323 86.0526 121.184C86.0736 121.047 86.0736 120.82 86.0526 120.682C86.0319 120.544 86.0147 120.657 86.0147 120.933ZM103.124 127.391C103.287 127.411 103.554 127.411 103.717 127.391C103.88 127.371 103.747 127.355 103.42 127.355C103.094 127.355 102.96 127.371 103.124 127.391ZM99.0619 132.045C99.1499 132.068 99.2935 132.068 99.3816 132.045C99.4693 132.022 99.3973 132.003 99.2215 132.003C99.0461 132.003 98.9741 132.022 99.0619 132.045ZM101.709 132.045C101.797 132.068 101.941 132.068 102.028 132.045C102.116 132.022 102.044 132.003 101.869 132.003C101.693 132.003 101.621 132.022 101.709 132.045ZM43.7059 138.991C58.4769 139.003 82.6481 139.003 97.4191 138.991C112.19 138.978 100.105 138.967 70.5625 138.967C41.0202 138.967 28.9349 138.978 43.7059 138.991Z" fill="#6C6C6C"/>
<path fill-rule="evenodd" clip-rule="evenodd" d="M87.2562 13.3183C87.4196 13.4936 87.5727 13.637 87.5969 13.637C87.6208 13.637 87.5071 13.4936 87.344 13.3183C87.1805 13.1434 87.0274 13 87.0032 13C86.9793 13 87.093 13.1434 87.2562 13.3183ZM88.6563 127.681C88.8195 127.857 88.9725 128 88.9968 128C89.021 128 88.9069 127.857 88.7438 127.681C88.5806 127.506 88.4272 127.363 88.403 127.363C88.3791 127.363 88.4928 127.506 88.6563 127.681Z" fill="#9C9C9C"/>
<path fill-rule="evenodd" clip-rule="evenodd" d="M2 6.3097C2 6.58519 2.01707 6.69805 2.03797 6.56031C2.05852 6.42256 2.05852 6.19684 2.03797 6.05875C2.01707 5.921 2 6.03386 2 6.3097ZM60.4738 10.932C60.5863 10.9538 60.7496 10.9527 60.836 10.9299C60.9228 10.9071 60.8305 10.8893 60.6312 10.8903C60.432 10.8914 60.3609 10.91 60.4738 10.932ZM61.2892 14.4871C61.4017 14.5088 61.5647 14.5078 61.6515 14.485C61.7382 14.4622 61.6459 14.4443 61.4466 14.4454C61.2474 14.4464 61.1763 14.465 61.2892 14.4871ZM85.6184 26.5462C85.6184 26.8722 85.6347 27.0054 85.6549 26.8424C85.6748 26.6794 85.6748 26.4131 85.6549 26.2501C85.6347 26.0871 85.6184 26.2203 85.6184 26.5462ZM94.943 30.6025C94.9441 30.8034 94.9625 30.8745 94.9841 30.7613C95.0061 30.6477 95.005 30.4837 94.9824 30.3964C94.9597 30.3095 94.942 30.402 94.943 30.6025ZM90.6834 30.8307C90.6834 31.0059 90.7022 31.0778 90.7248 30.9902C90.7478 30.9022 90.7478 30.7588 90.7248 30.6712C90.7022 30.5832 90.6834 30.6551 90.6834 30.8307ZM77.4585 35.8158C77.5459 35.8389 77.6884 35.8389 77.7758 35.8158C77.8629 35.793 77.7915 35.7741 77.6173 35.7741C77.4428 35.7741 77.3714 35.793 77.4585 35.8158ZM88.7812 41.587C88.7812 41.7626 88.7996 41.8341 88.8226 41.7465C88.8452 41.6589 88.8452 41.5152 88.8226 41.4276C88.7996 41.3396 88.7812 41.4114 88.7812 41.587ZM54.5411 58.1774C54.5411 58.4031 54.5585 58.4953 54.5801 58.3824C54.6017 58.2696 54.6017 58.0852 54.5801 57.9723C54.5585 57.8595 54.5411 57.9517 54.5411 58.1774ZM68.2184 59.5163C68.3055 59.5394 68.448 59.5394 68.5354 59.5163C68.6225 59.4935 68.5511 59.4749 68.3769 59.4749C68.2024 59.4749 68.131 59.4935 68.2184 59.5163ZM71.2078 61.4307C71.2949 61.4538 71.4377 61.4538 71.5247 61.4307C71.6122 61.4079 71.5408 61.389 71.3663 61.389C71.1921 61.389 71.1207 61.4079 71.2078 61.4307ZM72.2043 61.4307C72.2914 61.4538 72.4342 61.4538 72.5213 61.4307C72.6087 61.4079 72.5373 61.389 72.3628 61.389C72.1883 61.389 72.1173 61.4079 72.2043 61.4307ZM78.4617 62.4618C78.4617 62.7878 78.478 62.921 78.4979 62.758C78.5181 62.595 78.5181 62.3283 78.4979 62.1657C78.478 62.0027 78.4617 62.1359 78.4617 62.4618ZM77.0976 76.7477C77.2352 76.7683 77.439 76.768 77.5504 76.7463C77.6619 76.7245 77.5494 76.7074 77.3 76.708C77.0509 76.7087 76.9597 76.7266 77.0976 76.7477ZM63.8257 76.9289C63.9382 76.9506 64.1012 76.9499 64.188 76.9271C64.2747 76.9043 64.1824 76.8865 63.9832 76.8875C63.7839 76.8886 63.7129 76.9071 63.8257 76.9289ZM80.6279 78.3228C80.6279 78.4984 80.6464 78.5702 80.669 78.4823C80.692 78.3946 80.692 78.2513 80.669 78.1633C80.6464 78.0757 80.6279 78.1475 80.6279 78.3228ZM75.828 82.9437C75.9151 82.9665 76.0579 82.9665 76.1449 82.9437C76.2324 82.9206 76.161 82.902 75.9865 82.902C75.8123 82.902 75.7409 82.9206 75.828 82.9437ZM64.9132 83.2203C65.0762 83.2406 65.3207 83.2402 65.4569 83.2192C65.5931 83.1985 65.4597 83.182 65.1608 83.1824C64.862 83.1831 64.7505 83.1999 64.9132 83.2203ZM69.9427 89.125C69.9434 89.3756 69.9611 89.4675 69.982 89.3287C70.0026 89.1902 70.0022 88.9852 69.9806 88.873C69.959 88.7609 69.942 88.8741 69.9427 89.125ZM69.9507 94.8676C69.951 95.4192 69.966 95.633 69.9838 95.3428C70.0019 95.053 70.0019 94.6015 69.9834 94.3404C69.9653 94.0789 69.9507 94.3162 69.9507 94.8676ZM74.3006 96.5997C74.3006 97.2516 74.3152 97.5061 74.3326 97.1658C74.35 96.8251 74.35 96.292 74.3323 95.9807C74.3145 95.6695 74.3002 95.9478 74.3006 96.5997ZM53.2707 130.983C53.3578 131.006 53.5006 131.006 53.5877 130.983C53.6748 130.96 53.6034 130.941 53.4292 130.941C53.2547 130.941 53.1833 130.96 53.2707 130.983Z" fill="#BCBCBC"/>
<path fill-rule="evenodd" clip-rule="evenodd" d="M5.66929 6.2792L5.39643 6.56032L5.69821 6.30645C5.86429 6.16656 6 6.04029 6 6.02534C6 5.95855 5.92357 6.01736 5.66929 6.2792ZM5 7.81338C5 7.97953 5.01893 8.04765 5.0425 7.96458C5.06571 7.88117 5.06571 7.74526 5.0425 7.66186C5.01893 7.57879 5 7.64691 5 7.81338Z" fill="#F4839A"/>
<path fill-rule="evenodd" clip-rule="evenodd" d="M103.968 51.4905C103.968 77.0135 103.978 87.4417 103.99 74.6632C104.003 61.8852 104.003 41.0024 103.99 28.257C103.978 15.5121 103.968 25.9671 103.968 51.4905ZM71.0633 18.453C71.3073 18.7022 71.5275 18.9061 71.5524 18.9061C71.577 18.9061 71.3975 18.7022 71.1534 18.453C70.9091 18.2039 70.689 18 70.6644 18C70.6394 18 70.8189 18.2039 71.0633 18.453ZM57.3563 20.7416L57 21.1267L57.383 20.7685C57.7394 20.4353 57.8076 20.3566 57.7394 20.3566C57.7244 20.3566 57.5522 20.5298 57.3563 20.7416ZM84.1294 46.3013L83.8646 46.5958L84.1575 46.3295C84.3186 46.1832 84.4504 46.0507 84.4504 46.035C84.4504 45.965 84.3762 46.0267 84.1294 46.3013ZM77.1483 53.9206C77.1483 53.9362 77.2801 54.0687 77.4412 54.215L77.7345 54.4813L77.4697 54.1868C77.2229 53.9122 77.1483 53.8505 77.1483 53.9206ZM89.4941 109.521L89.1832 109.861L89.5215 109.548C89.8359 109.257 89.9011 109.181 89.8321 109.181C89.8172 109.181 89.665 109.334 89.4941 109.521ZM96.0797 123.439C96.0797 123.455 96.2117 123.587 96.3729 123.734L96.6658 124L96.401 123.706C96.1542 123.431 96.0797 123.369 96.0797 123.439Z" fill="#CCCCCC"/>
</svg>
