<svg width="190" height="21" viewBox="0 0 190 21" fill="none" xmlns="http://www.w3.org/2000/svg">
<path d="M22.8084 0.376032L13.5269 17.7314L4.24546 0.376032H0V20.595H2.40088V2.74793H2.81079L12.3557 20.595H14.7273L24.2723 2.74793H24.6822V20.595H27.0831V0.376032H22.8084Z" fill="#111111"/>
<path d="M51.2671 20.595H53.9022L44.5329 0.376032H39.2042L29.8349 20.595H32.47L34.4902 16.2562H49.2469L51.2671 20.595ZM35.6028 13.8554L40.7559 2.74793H42.9811L48.1343 13.8554H35.6028Z" fill="#111111"/>
<path d="M78.3088 0.376032V18.2231H77.5183L60.8878 0.376032H56.6423V20.595H59.0432V2.74793H59.7166L76.4642 20.595H80.7097V0.376032H78.3088Z" fill="#111111"/>
<path d="M105.551 11.6859C105.815 11.6859 106.108 11.8017 106.313 12.0041C106.518 12.2066 106.635 12.4959 106.635 12.7562V15.562C106.605 16.1405 106.576 16.7479 106.547 17.3264C106.547 17.6157 106.43 17.876 106.225 18.0785C106.02 18.281 105.756 18.3967 105.463 18.3967C102.565 18.5413 99.9005 18.5992 97.0019 18.5992C94.1032 18.5992 91.4388 18.5413 88.5402 18.3967C88.2474 18.3967 87.9839 18.281 87.779 18.0785C87.574 17.876 87.4569 17.6157 87.4276 17.3264C87.3983 16.7479 87.3983 16.1405 87.3691 15.562H84.9682C84.9682 16.1983 84.9975 16.8058 85.0267 17.4421C85.1146 19.2645 86.6078 20.7107 88.4231 20.7975C91.3803 20.9132 94.0447 21 97.0019 21C99.959 21 102.623 20.9132 105.581 20.7975C107.396 20.7107 108.889 19.2645 108.977 17.4421C109.006 16.8058 109.036 16.1983 109.036 15.562V12.6405C108.948 10.8471 107.484 9.3719 105.639 9.31405H88.4817C88.1889 9.28512 87.8961 9.16942 87.6911 8.96694C87.4862 8.76446 87.3691 8.50413 87.3691 8.21488V5.40909C87.3983 4.83058 87.4276 4.25207 87.4569 3.67355C87.4569 3.3843 87.574 3.09504 87.779 2.89256C87.9839 2.69008 88.2474 2.57438 88.5402 2.57438C91.4388 2.42975 94.1032 2.3719 97.0019 2.3719C99.9005 2.3719 102.565 2.42975 105.463 2.57438C105.756 2.57438 106.02 2.69008 106.225 2.89256C106.43 3.09504 106.547 3.3843 106.576 3.67355C106.605 4.25207 106.605 4.83058 106.635 5.40909H109.036C109.036 4.80165 109.006 4.16529 108.977 3.52892C108.889 1.73554 107.396 0.289256 105.581 0.202478C102.623 0.0578504 99.959 0 97.0019 0C94.0447 0 91.3803 0.0578504 88.4231 0.202478C86.6078 0.289256 85.1146 1.73554 85.0267 3.52892C84.9975 4.16529 84.9682 4.80165 84.9682 5.40909V8.33058C85.056 10.1529 86.52 11.5992 88.3645 11.6859H105.551Z" fill="#111111"/>
<path d="M115.686 20.595V0.376032H113.285V20.595H115.686Z" fill="#111111"/>
<path d="M132.586 2.3719C135.484 2.3719 138.412 2.45868 141.311 2.57438C141.604 2.6033 141.867 2.71901 142.072 2.92149C142.277 3.12397 142.394 3.3843 142.423 3.67355C142.658 8.18595 142.658 12.7851 142.423 17.3264C142.394 17.5868 142.277 17.876 142.072 18.0785C141.867 18.281 141.604 18.3967 141.311 18.3967C138.412 18.5413 135.484 18.5992 132.586 18.5992C129.687 18.5992 126.73 18.5413 123.831 18.3967C123.568 18.3967 123.275 18.281 123.07 18.0785C122.865 17.876 122.748 17.5868 122.748 17.3264C122.514 12.7851 122.514 8.18595 122.748 3.67355C122.748 3.3843 122.865 3.12397 123.07 2.92149C123.275 2.71901 123.568 2.6033 123.831 2.57438C126.73 2.45868 129.687 2.3719 132.586 2.3719ZM123.743 0.202478C121.899 0.289256 120.435 1.73554 120.347 3.55785C120.084 8.18595 120.084 12.814 120.347 17.4421C120.435 19.2355 121.899 20.7107 123.743 20.7686C126.671 20.9132 129.629 20.9711 132.586 20.9711C135.514 20.9711 138.471 20.9132 141.428 20.7686C143.273 20.7107 144.736 19.2355 144.824 17.4421C145.059 12.814 145.059 8.18595 144.824 3.55785C144.736 1.73554 143.273 0.289256 141.428 0.202478C138.471 0.0578504 135.514 0 132.586 0C129.629 0 126.671 0.0578504 123.743 0.202478Z" fill="#111111"/>
<path d="M168.356 21V0H166V21H168.356Z" fill="#111111"/>
<path d="M190 0H171.092V2.46352H179.339V21H181.724V2.46352H190V0Z" fill="#111111"/>
<path d="M156 8L159 14H153L156 8Z" fill="#6386FF"/>
</svg>
