<svg width="52" height="51" viewBox="0 0 52 51" fill="none" xmlns="http://www.w3.org/2000/svg">
<path fill-rule="evenodd" clip-rule="evenodd" d="M19.9663 0.096001C16.7492 0.627515 14.1159 2.83697 13.0898 5.86567C12.6587 7.13784 12.5464 8.42943 12.5992 11.5044C12.641 13.9317 12.656 14.0929 12.9037 14.7795C13.0471 15.1766 13.4043 15.8483 13.6977 16.2721C14.4891 17.4155 14.598 17.8094 14.7123 19.9415C14.8135 21.8301 14.9564 22.6952 15.3935 24.067C15.9755 25.8935 16.7987 27.2487 18.065 28.4648L18.8894 29.2565L18.8603 30.1667L18.8313 31.077L17.3568 31.5955C11.0805 33.8022 4.53668 36.1776 4.10153 36.407C2.96632 37.0055 1.78971 38.4528 1.35375 39.787C1.06301 40.6767 -0.0539034 47.64 0.00202847 48.2143C0.105248 49.274 0.866024 50.3156 1.87544 50.7789L2.35686 51H26.0008H49.6447L50.1261 50.7789C51.1179 50.3237 51.8979 49.2598 51.9979 48.2263C52.0543 47.6429 50.9437 40.697 50.6485 39.787C50.207 38.4262 49.0125 36.9863 47.8136 36.3701C47.2395 36.0751 45.8212 35.5588 37.1363 32.4837C35.1787 31.7905 33.4741 31.1802 33.3482 31.1273C33.1339 31.0373 33.1194 30.9711 33.1194 30.0851V29.139L33.9627 28.3059C35.7578 26.5327 36.6718 24.4674 37.2358 20.9104C37.5471 18.9472 37.8471 18.0039 38.6965 16.3168L39.3736 14.9722L39.4048 11.3314C39.4398 7.26388 39.4272 7.16176 38.7322 5.85505C38.2875 5.01889 37.533 4.23318 36.7654 3.80669L36.199 3.49202L36.1905 2.90354C36.1713 1.57621 35.3747 0.627215 33.8985 0.173591C33.3484 0.00449529 32.8314 -0.00801915 26.8816 0.00289346C23.3488 0.00930086 20.237 0.0512493 19.9663 0.096001ZM33.4558 1.85213C34.0007 2.03494 34.4414 2.49057 34.4414 2.87111C34.4414 3.01497 34.3874 3.39001 34.3214 3.70447C34.1629 4.46004 34.3074 4.6852 35.1432 4.98525C36.2948 5.39853 37.0986 6.19865 37.4802 7.31134C37.6808 7.89591 37.6956 8.1474 37.6956 10.9683C37.6956 13.0328 37.6554 14.1664 37.5691 14.528C37.443 15.0567 37.4424 15.0539 37.3843 13.7069C37.3397 12.674 37.2736 12.2146 37.1042 11.7586C36.6746 10.6026 35.7974 9.55603 34.7314 8.9277C34.429 8.7495 33.0617 8.21037 31.6929 7.72972L29.2042 6.85581L28.1872 6.85601C27.1921 6.85611 27.1364 6.86882 25.594 7.44719L24.0178 8.03817L21.4245 8.09885C19.0504 8.15451 18.782 8.17884 18.248 8.38698C16.0455 9.24557 14.6341 11.2446 14.6009 13.5527C14.5936 14.0582 14.5677 14.1868 14.5093 14.0073C14.4646 13.8696 14.424 12.3829 14.4192 10.7035C14.4095 7.23244 14.4571 6.88634 15.1346 5.50645C15.4651 4.83317 15.7241 4.48958 16.4269 3.79177C17.1747 3.04921 17.45 2.85088 18.272 2.46263C19.1143 2.06478 19.6149 1.92021 20.7127 1.75792C20.8525 1.7372 23.6702 1.71417 26.9742 1.70666C32.2217 1.69475 33.0415 1.71317 33.4558 1.85213ZM30.9562 9.36431C32.1739 9.78419 33.3892 10.2362 33.6567 10.369C34.2626 10.6694 34.8855 11.2924 35.239 11.9515L35.5092 12.4555L35.5393 16.3099C35.5719 20.4917 35.5044 21.3284 34.995 23.0579C34.3581 25.2209 33.1907 26.9396 31.6957 27.9154C31.444 28.0797 30.8491 28.5337 30.3736 28.9245C28.9955 30.0571 27.9814 30.5522 26.6727 30.7314C25.5733 30.882 24.719 30.7294 23.5985 30.1823C22.4896 29.6409 19.4717 27.5071 18.876 26.8432C17.9527 25.8142 17.1741 24.1657 16.7145 22.2668C16.5087 21.4172 16.4962 21.1144 16.4943 16.9607L16.4924 12.5556L16.7657 11.9813C17.0985 11.2823 17.8417 10.5299 18.5263 10.1986C19.0128 9.9632 19.1448 9.95008 21.5771 9.89382C24.3531 9.82954 24.1811 9.85968 26.3567 9.05825C28.1055 8.41411 28.2225 8.42192 30.9562 9.36431ZM31.3906 30.809V31.1917L28.6983 32.9634L26.006 34.735L23.3085 32.965C20.6773 31.2384 20.611 31.1867 20.611 30.8606C20.611 30.6767 20.6325 30.5264 20.6587 30.5264C20.6849 30.5264 21.0608 30.7541 21.494 31.0325C22.468 31.6585 23.5784 32.1834 24.3438 32.3797C25.1019 32.5741 26.635 32.5697 27.557 32.3706C28.4377 32.1803 30.1297 31.3874 30.8313 30.8362C31.1109 30.6165 31.3512 30.4343 31.3652 30.4314C31.3791 30.4285 31.3906 30.5984 31.3906 30.809ZM22.1873 34.3631C23.5296 35.2415 24.6445 35.974 24.6647 35.991C24.7128 36.0312 21.6075 40.2376 21.5296 40.2376C21.4536 40.2376 17.7127 33.5438 17.7127 33.408C17.7127 33.2831 19.5042 32.6383 19.6449 32.7125C19.7008 32.742 20.8449 33.4848 22.1873 34.3631ZM34.2889 33.4087C34.2889 33.5782 30.5359 40.2408 30.4558 40.2133C30.3699 40.1838 27.4247 36.2541 27.3657 36.0904C27.3445 36.0311 28.4738 35.2334 29.8753 34.3176L32.4237 32.6527L33.3562 32.9805C33.8692 33.1608 34.2889 33.3535 34.2889 33.4087ZM13.5476 36.4297C13.0043 37.5066 12.5771 38.479 12.5771 38.639C12.5771 38.7967 12.6871 39.0509 12.8223 39.2058C13.0633 39.4819 13.0894 39.4873 14.3451 39.5198L15.6226 39.553L15.3202 40.1427C14.7315 41.2908 14.4418 40.9163 19.3144 45.3085C21.6776 47.4387 23.6262 49.219 23.6448 49.2649C23.6942 49.3858 3.25076 49.3711 2.8215 49.25C2.38208 49.1259 1.93564 48.709 1.79592 48.2921C1.62904 47.7942 2.8931 40.4732 3.27364 39.734C3.60831 39.0839 4.34051 38.302 4.93685 37.9579C5.32654 37.7331 14.4072 34.4328 14.4883 34.4864C14.5047 34.4973 14.0814 35.3717 13.5476 36.4297ZM42.2719 36.1497C44.5931 36.976 46.71 37.7681 46.9764 37.9101C47.2426 38.052 47.6913 38.4084 47.9734 38.702C48.84 39.6041 48.9425 39.9339 49.6625 44.1392C50.0291 46.2803 50.2797 48.0181 50.2452 48.1791C50.1567 48.5919 49.6335 49.1276 49.2042 49.245C48.7496 49.3693 28.3059 49.3894 28.3567 49.2655C28.3754 49.22 30.0381 47.7043 32.0516 45.897C36.9859 41.4683 36.9838 41.4704 36.9838 41.0635C36.9838 40.8814 36.8477 40.467 36.6813 40.1427L36.379 39.553L37.6565 39.5198C38.9122 39.4873 38.9382 39.4819 39.1793 39.2058C39.3145 39.0509 39.4244 38.7967 39.4244 38.639C39.4244 38.4791 38.999 37.5098 38.4583 36.4384C37.927 35.3853 37.4922 34.5038 37.4922 34.4797C37.4922 34.4556 37.6181 34.4834 37.7719 34.5417C37.9257 34.5999 39.9507 35.3236 42.2719 36.1497ZM19.2363 39.8371C20.787 42.6178 22.195 45.1407 22.3652 45.4436L22.6746 45.9942L22.1767 45.536C21.9028 45.284 20.6157 44.1214 19.3163 42.9524L16.9539 40.827L17.4604 39.8333C17.739 39.2868 17.9669 38.7452 17.9669 38.6298C17.9669 38.5145 17.8332 38.2884 17.6697 38.1274C17.374 37.8363 17.3661 37.8348 16.1443 37.8348C15.4006 37.8348 14.9161 37.7956 14.9161 37.7356C14.9161 37.6351 16.3686 34.7229 16.3998 34.7607C16.4091 34.7721 17.6856 37.0564 19.2363 39.8371ZM37.0802 37.7096C37.0841 37.8032 36.7749 37.8348 35.8573 37.8348C34.6355 37.8348 34.6276 37.8363 34.3319 38.1274C34.1684 38.2884 34.0346 38.5145 34.0346 38.6298C34.0346 38.7452 34.263 39.2877 34.5422 39.8353L35.0498 40.831L32.6354 43.0037C31.3075 44.1985 30.0217 45.3603 29.778 45.5852L29.3349 45.9942L29.778 45.1897C30.0217 44.7473 31.4338 42.2141 32.916 39.5605L35.6109 34.7357L36.3429 36.1601C36.7454 36.9436 37.0772 37.6409 37.0802 37.7096ZM26.9522 38.609C26.9967 38.6818 26.8587 38.9774 26.6159 39.3293C26.3769 39.6758 26.2042 40.044 26.2041 40.207C26.204 40.3615 26.4158 41.799 26.6747 43.4015L27.1455 46.3151L26.5985 47.2808C26.2977 47.812 26.0288 48.2466 26.0008 48.2466C25.9728 48.2466 25.7071 47.8177 25.4103 47.2935L24.8706 46.3405L25.334 43.4782C25.5888 41.9039 25.7974 40.4479 25.7974 40.2428C25.7974 39.9666 25.6902 39.7223 25.3843 39.3019L24.9713 38.734L25.1995 38.4096C25.325 38.231 25.562 37.9143 25.7261 37.7055L26.0244 37.3261L26.4506 37.9058C26.685 38.2246 26.9108 38.5411 26.9522 38.609ZM23.9888 40.3627C24.0429 40.5181 23.5421 43.7421 23.4642 43.7402C23.3894 43.7383 22.5432 42.1865 22.5432 42.0513C22.5432 41.9207 23.7794 40.2376 23.8753 40.2376C23.9137 40.2376 23.9648 40.2939 23.9888 40.3627ZM28.8293 41.0868C29.1754 41.5539 29.4571 41.9932 29.4553 42.063C29.4497 42.3035 28.5549 43.7889 28.5063 43.6386C28.4269 43.3931 28.0347 40.7844 28.0347 40.5016C28.0347 40.3564 28.072 40.2376 28.1175 40.2376C28.163 40.2376 28.4834 40.6197 28.8293 41.0868Z" fill="#6386FF"/>
</svg>
