<svg width="57" height="60" viewBox="0 0 57 60" fill="none" xmlns="http://www.w3.org/2000/svg">
<path fill-rule="evenodd" clip-rule="evenodd" d="M38.707 0.363349C38.5171 0.552564 38.3597 0.830504 38.3571 0.981124C38.3545 1.13174 38.1485 3.21194 37.8995 5.60385C37.5776 8.69426 37.4789 10.0456 37.5587 10.2735C37.8186 11.0165 38.845 11.2055 39.4338 10.6189C39.6237 10.4297 39.78 10.1782 39.7813 10.06C39.7828 9.94169 39.9909 7.86032 40.2439 5.43452C40.6449 1.59231 40.6838 0.975829 40.5469 0.648937C40.2422 -0.0776843 39.2969 -0.224421 38.707 0.363349ZM20.332 8.13096C19.5689 8.40467 18.7378 8.96772 18.351 9.47301C18.1884 9.68552 15.9149 14.1821 13.2989 19.4654L8.54253 29.0714L5.70822 30.9682C2.43601 33.1579 1.48143 34.0259 0.77321 35.4555C0.1473 36.7189 -0.0544081 37.7122 0.0120801 39.204C0.0829379 40.7915 0.405341 41.7631 1.3083 43.1099C2.77908 45.3033 4.73357 46.4452 7.25433 46.5837C8.7114 46.6638 9.83119 46.4455 11.0198 45.8496C11.67 45.5237 11.8672 45.4694 11.9755 45.5869C12.0503 45.6682 14.0116 48.5283 16.3335 51.9427C19.2614 56.248 20.7342 58.3109 21.1395 58.6739C22.2881 59.703 23.8076 60.1881 25.0826 59.933C27.1571 59.518 28.5533 58.2223 28.9786 56.3182C29.2006 55.3236 29.1445 54.4472 28.8012 53.5458C28.6874 53.2468 26.8549 50.4474 24.7289 47.325C22.6031 44.2026 20.908 41.6096 20.9622 41.5626C21.0164 41.5158 23.6116 41.2786 26.7294 41.0354C38.5438 40.1142 38.8483 40.0836 39.565 39.7458C41.7769 38.7031 42.867 35.9822 42.4986 32.4224C41.5026 22.796 31.9581 10.1763 24.1386 8.14673C22.9085 7.82749 21.1977 7.82031 20.332 8.13096ZM51.047 9.47112C47.598 11.6631 43.5618 14.3838 43.4498 14.5923C43.048 15.3405 43.6152 16.2581 44.4796 16.2581C44.8898 16.2581 45.4422 15.9348 49.0058 13.6092C51.2382 12.1523 53.211 10.824 53.3896 10.6575C53.8532 10.225 53.8445 9.54467 53.3691 9.07104C52.8232 8.52716 52.4243 8.59588 51.047 9.47112ZM24.0722 10.5711C27.4954 11.6905 31.9121 15.6262 35.1421 20.4354C38.6443 25.6501 40.257 29.9466 40.1055 33.6585C40.0224 35.6943 39.5057 36.8016 38.314 37.4974C37.5706 37.9315 36.9187 37.9814 35.8401 37.6865C31.2159 36.4225 25.3579 30.4916 21.8226 23.4949C20.1307 20.1466 19.2198 16.9968 19.2022 14.4342C19.19 12.6511 19.4364 11.8053 20.1859 11.0585C21.1527 10.0951 22.2109 9.9624 24.0722 10.5711ZM17.506 18.7503C19.2827 25.6573 24.7638 33.5705 30.588 37.6369C31.1256 38.0122 31.4871 38.3323 31.3912 38.3482C30.5606 38.4855 17.4061 39.4312 17.3416 39.3583C17.1761 39.1707 10.933 29.9659 10.8826 29.8348C10.8345 29.7102 16.9878 17.044 17.061 17.1168C17.0794 17.1352 17.2796 17.8703 17.506 18.7503ZM26.1119 19.3611C25.2417 19.5823 23.9821 20.2245 23.7619 20.5593C23.6598 20.7148 23.5762 21.0399 23.5762 21.2818C23.5762 21.6258 23.6565 21.7933 23.9442 22.0494C24.4285 22.4805 24.8389 22.4681 25.7463 21.9946C26.4244 21.6407 26.5635 21.6121 27.6081 21.6121C28.5672 21.6121 28.8258 21.6555 29.3275 21.9008C30.9922 22.7143 31.9093 24.6399 31.4616 26.3815C31.196 27.4141 30.9383 27.7969 29.8137 28.829C29.2439 29.352 29.2128 29.9882 29.7317 30.5054C30.3687 31.1401 31.0576 30.9405 32.1824 29.7956C34.8248 27.106 34.3633 22.4717 31.2398 20.3282C29.8634 19.3837 27.6587 18.9678 26.1119 19.3611ZM45.7887 21.8475C45.1189 22.2101 45.0654 23.229 45.6917 23.6949C46.0525 23.9634 55.5882 25.7189 56.0909 25.6094C56.5192 25.5161 56.8994 25.0787 56.9795 24.587C57.0351 24.2455 56.9882 24.1092 56.7077 23.7963C56.4236 23.4796 56.2255 23.3923 55.4844 23.2569C50.6614 22.3763 46.6031 21.6718 46.3756 21.6757C46.2224 21.6782 45.9584 21.7556 45.7887 21.8475ZM11.8521 35.4385C13.3297 37.6066 14.6885 39.5984 14.8717 39.865L15.2046 40.3493L12.8183 41.9718C11.5059 42.8641 10.1535 43.7221 9.81312 43.8784C7.84694 44.7811 5.62756 44.3653 4.04542 42.7982C1.78553 40.5596 1.71975 37.1819 3.89603 35.1236C4.23284 34.805 9.10301 31.4252 9.14919 31.478C9.15804 31.4882 10.3743 33.2704 11.8521 35.4385ZM22.3326 47.9117C24.6034 51.2447 26.5348 54.1422 26.6248 54.3504C27.1412 55.5459 26.3722 57.1346 25.0699 57.5628C24.4308 57.7729 23.5201 57.633 22.9643 57.2393C22.3423 56.7987 13.7082 44.1476 13.9396 44.0158C14.024 43.9678 14.7839 43.4495 15.6283 42.8639C17.0473 41.8799 17.203 41.8013 17.6838 41.8254L18.2041 41.8516L22.3326 47.9117Z" fill="url(#paint0_linear_472_751)"/>
<defs>
<linearGradient id="paint0_linear_472_751" x1="12.0012" y1="1.0156e-06" x2="47.4855" y2="58.3105" gradientUnits="userSpaceOnUse">
<stop stop-color="#6386FF"/>
<stop offset="1" stop-color="#938AFF"/>
</linearGradient>
</defs>
</svg>
