<svg width="26" height="220" viewBox="0 0 26 220" fill="none" xmlns="http://www.w3.org/2000/svg">
<rect width="26" height="185" rx="13" fill="#F8F8F8"/>
<circle cx="13" cy="105" r="4.5" stroke="#6386FF"/>
<circle cx="13" cy="130" r="4.5" stroke="#6386FF"/>
<circle cx="13" cy="155" r="4.5" stroke="#6386FF"/>
<circle cx="13" cy="80" r="4.5" stroke="#6386FF"/>
<circle cx="13" cy="55" r="5" fill="#6386FF"/>
<circle cx="13" cy="30" r="4.5" stroke="#6386FF"/>
<path d="M12.6464 219.354C12.8417 219.549 13.1583 219.549 13.3536 219.354L16.5355 216.172C16.7308 215.976 16.7308 215.66 16.5355 215.464C16.3403 215.269 16.0237 215.269 15.8284 215.464L13 218.293L10.1716 215.464C9.97631 215.269 9.65973 215.269 9.46447 215.464C9.2692 215.66 9.2692 215.976 9.46447 216.172L12.6464 219.354ZM12.5 195L12.5 219L13.5 219L13.5 195L12.5 195Z" fill="#6386FF"/>
</svg>
