<svg width="56" height="50" viewBox="0 0 56 50" fill="none" xmlns="http://www.w3.org/2000/svg">
<path fill-rule="evenodd" clip-rule="evenodd" d="M4.37732 0.167542C3.4677 0.409442 2.53598 0.954503 1.79126 1.68031C1.04435 2.40839 0.6628 2.98647 0.289674 3.95558L0.0429296 4.59632L0.0132765 19.3436C-0.0192215 35.5273 -0.0464674 34.7919 0.633913 36.1251C1.21308 37.2598 2.17314 38.1971 3.36594 38.7921C4.53258 39.3741 4.77167 39.3893 12.8252 39.3913C19.8403 39.3931 20.2428 39.4036 20.1903 39.5826C20.1597 39.6867 19.7841 41.5254 19.3557 43.6684C18.9274 45.8114 18.5518 47.6499 18.5212 47.7542C18.47 47.9286 18.2292 47.9436 15.4788 47.9436H12.4921L12.2158 48.2168C11.7551 48.6725 11.7528 49.2688 12.2101 49.7211L12.4921 50H28H43.5079L43.7842 49.7268C44.2449 49.2711 44.2472 48.6748 43.7899 48.2225L43.5079 47.9436H40.5212C37.7708 47.9436 37.53 47.9286 37.4788 47.7542C37.4482 47.6499 37.0726 45.8114 36.6443 43.6684C36.2159 41.5254 35.8403 39.6867 35.8097 39.5826C35.7572 39.4036 36.1597 39.3931 43.1748 39.3913C51.2283 39.3893 51.4674 39.3741 52.6341 38.7921C53.8269 38.1971 54.7869 37.2598 55.3661 36.1251C56.0465 34.7919 56.0192 35.5273 55.9867 19.3436L55.9571 4.59632L55.7103 3.95558C55.5746 3.60318 55.3339 3.09578 55.1753 2.82801C54.7602 2.12764 53.6366 1.07529 52.8748 0.673639C51.4967 -0.0528201 53.3022 -0.00433184 27.9497 0.00356916C8.24086 0.00963019 4.88295 0.0330084 4.37732 0.167542ZM50.7087 2.17093C51.9317 2.39454 52.8916 3.10087 53.4474 4.18569L53.7687 4.81279L53.7979 16.7455L53.8271 28.6781H28.0019H2.17664V27.6499V26.6217H5.40806C9.07881 26.6217 9.28736 26.5862 9.57153 25.9138C9.72242 25.5564 9.71969 25.4885 9.54024 25.126C9.21602 24.4716 9.14818 24.4604 5.48433 24.4587L2.17215 24.457L2.2017 14.6349L2.23135 4.81279L2.49823 4.27628C3.03735 3.19265 3.98668 2.44314 5.12794 2.19994C5.95757 2.02309 49.7481 1.99527 50.7087 2.17093ZM25.3509 6.69561C25.0199 6.98816 24.9935 7.06392 24.9543 7.83292C24.8778 9.3301 25.1789 9.95385 25.9779 9.95385C26.8342 9.95385 27.1246 9.51399 27.1246 8.21682C27.1246 7.21686 26.9388 6.69755 26.5124 6.50544C26.0697 6.30586 25.7287 6.36171 25.3509 6.69561ZM21.2578 8.28522C20.8771 8.47106 20.6688 8.83191 20.6688 9.30553C20.6688 9.68727 21.769 10.9116 22.3622 11.1901C23.0736 11.524 23.842 11.0382 23.842 10.2544C23.842 9.87776 23.7607 9.74258 23.1581 9.11829C22.5668 8.50558 21.9817 8.10783 21.6844 8.11638C21.6374 8.11768 21.4454 8.19376 21.2578 8.28522ZM29.9149 8.26423C29.7343 8.34226 29.2789 8.73168 28.9027 9.12976C28.3138 9.75297 28.2188 9.91023 28.2188 10.2621C28.2188 10.7142 28.4952 11.0891 28.9563 11.2625C29.422 11.4376 29.896 11.1937 30.6732 10.3789C31.2779 9.74474 31.3921 9.56464 31.3921 9.24449C31.3921 8.75571 31.1383 8.37722 30.712 8.23024C30.3033 8.08932 30.3215 8.08856 29.9149 8.26423ZM25.2765 12.2696C24.9708 12.4371 24.7268 12.8313 24.7212 13.1663C24.7173 13.4093 26.8239 22.6112 27.027 23.2377C27.2407 23.8971 27.9721 24.2104 28.5817 23.904C28.7131 23.8378 29.2498 23.3656 29.7744 22.8547L30.7281 21.9255L31.9677 23.1236C33.308 24.4192 33.6459 24.5987 34.2017 24.3107C34.3716 24.2226 35.0892 23.5698 35.7962 22.8597C37.0303 21.6206 37.0819 21.5503 37.0819 21.1097C37.0819 20.6702 37.0285 20.5968 35.8266 19.3822L34.5713 18.1137L35.3463 17.362C36.3107 16.4266 36.7537 15.8426 36.7537 15.5062C36.7537 15.1041 36.4673 14.6507 36.1297 14.5184C35.7969 14.3879 25.8756 12.116 25.666 12.1223C25.5957 12.1245 25.4204 12.1907 25.2765 12.2696ZM19.2065 12.7285C18.7753 13.1552 18.7974 13.8388 19.2547 14.2194C19.5695 14.4814 19.665 14.4996 20.7258 14.4996C21.7447 14.4996 21.8894 14.4748 22.1466 14.2559C22.3394 14.0919 22.4532 13.8637 22.4947 13.5577C22.5493 13.1546 22.5184 13.0655 22.2228 12.7731C21.8917 12.4456 21.8806 12.4432 20.6921 12.4432C19.5446 12.4432 19.4831 12.455 19.2065 12.7285ZM30.462 15.3741C32.0869 15.7397 33.4382 16.059 33.465 16.0839C33.4918 16.1089 33.1892 16.4566 32.7924 16.8567C31.6042 18.0552 31.6322 18.2284 33.2821 19.8824L34.4986 21.102L34.1254 21.4828L33.7523 21.8637L32.5448 20.6765C31.8807 20.0235 31.2019 19.4393 31.0364 19.3782C30.5888 19.2132 30.2343 19.3918 29.4096 20.1977C28.7036 20.8875 28.6836 20.8985 28.6157 20.6311C28.4637 20.0319 27.2341 14.731 27.2341 14.6747C27.2341 14.6417 27.2957 14.636 27.3708 14.6621C27.4461 14.6882 28.8371 15.0086 30.462 15.3741ZM22.3648 15.7323C22.1843 15.8103 21.7289 16.1997 21.3527 16.5978C20.7875 17.1959 20.6688 17.3864 20.6688 17.6948C20.6688 18.2384 21.151 18.7424 21.6714 18.7424C22.2059 18.7424 22.3852 18.6297 23.1675 17.8025C23.728 17.2099 23.842 17.0252 23.842 16.7106C23.842 16.2237 23.5877 15.8451 23.162 15.6983C22.7533 15.5574 22.7714 15.5566 22.3648 15.7323ZM11.4071 24.5644C10.8701 24.7787 10.6334 25.6592 10.9807 26.1498C11.3995 26.7413 12.4123 26.6993 12.7376 26.0769C13.2299 25.1352 12.3845 24.1742 11.4071 24.5644ZM53.8032 32.6557C53.7708 34.3529 53.7502 34.5077 53.4789 35.0799C53.1099 35.8583 52.4381 36.5228 51.6511 36.8878L51.0331 37.1744H28H4.96688L4.34887 36.8878C3.56191 36.5228 2.89006 35.8583 2.5211 35.0799C2.24984 34.5077 2.22916 34.3529 2.19677 32.6557L2.1622 30.8428H28H53.8378L53.8032 32.6557ZM27.0351 32.2062C26.1403 32.6472 25.6798 33.6306 25.9308 34.5644C26.1906 35.5306 26.996 36.1462 28 36.1462C30.2343 36.1462 30.9585 33.1888 28.9649 32.2062C28.6513 32.0516 28.2171 31.9251 28 31.9251C27.7829 31.9251 27.3487 32.0516 27.0351 32.2062ZM33.6352 39.6367C33.9052 40.7529 35.2861 47.8439 35.242 47.8875C35.1678 47.9608 20.8322 47.9608 20.758 47.8875C20.7139 47.8439 22.0948 40.7529 22.3648 39.6367L22.4237 39.3932H28H33.5763L33.6352 39.6367Z" fill="#6386FF"/>
</svg>
