<svg width="13" height="23" viewBox="0 0 13 23" fill="none" xmlns="http://www.w3.org/2000/svg">
<path d="M3.52 15.296V13.568C3.52 12.672 3.68 11.8613 4 11.136C4.34133 10.3893 4.91733 9.62133 5.728 8.832C6.26133 8.29867 6.63467 7.82933 6.848 7.424C7.08267 6.99733 7.2 6.592 7.2 6.208C7.2 5.71733 7.008 5.344 6.624 5.088C6.24 4.81067 5.67467 4.672 4.928 4.672C4.096 4.672 3.25333 4.82133 2.4 5.12C1.54667 5.39733 0.746667 5.77067 0 6.24V1.536C0.789333 1.04533 1.71733 0.672 2.784 0.416C3.872 0.138667 4.90667 0 5.888 0C7.232 0 8.43733 0.181333 9.504 0.543999C10.5707 0.885333 11.4133 1.45067 12.032 2.24C12.6507 3.02933 12.96 4.07467 12.96 5.376C12.96 6.10133 12.8213 6.79467 12.544 7.456C12.2667 8.11733 11.8933 8.72533 11.424 9.28C10.976 9.83467 10.4533 10.336 9.856 10.784C8.81067 11.5307 8.096 12.1813 7.712 12.736C7.34933 13.2693 7.12533 13.7813 7.04 14.272L6.88 15.296H3.52ZM2.208 22.912V17.088H8.16V22.912H2.208Z" fill="#FFF"/>
</svg>
