<svg width="64" height="60" viewBox="0 0 64 60" fill="none" xmlns="http://www.w3.org/2000/svg">
<path fill-rule="evenodd" clip-rule="evenodd" d="M31.3828 0.148141C31.1519 0.262282 30.737 0.971508 29.7935 2.8654C29.0914 4.27498 28.4995 5.47365 28.4783 5.52928C28.4571 5.58479 27.2874 5.79394 25.8791 5.99422C24.4706 6.19437 23.1135 6.41653 22.8632 6.48792C22.3083 6.64619 22.0056 7.0755 22.005 7.70546C22.0045 8.15203 22.1239 8.29705 24.1219 10.2783L26.2393 12.3779L25.7565 15.2104C25.326 17.737 25.292 18.0863 25.4421 18.4452C25.5346 18.6665 25.7238 18.9083 25.8627 18.9827C26.4643 19.3046 26.9534 19.1462 29.4744 17.8129L31.9414 16.5081L34.4583 17.8129C37.2326 19.2512 37.6502 19.3632 38.1976 18.8159C38.3635 18.6499 38.5317 18.3827 38.5712 18.2221C38.6108 18.0614 38.4273 16.6784 38.1634 15.1486L37.6836 12.3672L39.7706 10.3006C41.9803 8.11252 42.127 7.88686 41.8184 7.14851C41.5767 6.56993 41.1431 6.42691 38.5096 6.0571C37.2374 5.87858 36.0361 5.70043 35.84 5.66142C35.5179 5.59729 35.364 5.34663 34.2486 3.07143C33.5677 1.68261 32.8692 0.42643 32.6914 0.271283C32.3335 -0.0410108 31.8565 -0.0858922 31.3828 0.148141ZM34.0084 7.76472C34.2638 7.94687 37.1101 8.47732 37.9225 8.49432C38.0047 8.49608 37.4108 9.13592 36.6028 9.91628C34.9014 11.5595 34.9697 11.3454 35.3838 13.7419C35.5204 14.5327 35.6326 15.2768 35.633 15.3956C35.6337 15.5672 35.2913 15.4323 33.9666 14.7392C33.0495 14.2595 32.1407 13.867 31.9469 13.867C31.7518 13.867 30.85 14.2599 29.9258 14.7476C29.008 15.232 28.257 15.5711 28.257 15.5012C28.257 15.4313 28.3963 14.5799 28.5666 13.6093C28.8364 12.0715 28.8548 11.7935 28.71 11.4492C28.6187 11.2318 27.9674 10.5016 27.263 9.82651C26.5585 9.15129 26.0055 8.57546 26.0341 8.54696C26.0627 8.51833 26.8981 8.37731 27.8906 8.23354C28.8829 8.08989 29.8164 7.89424 29.9648 7.79873C30.1152 7.70209 30.6109 6.84559 31.084 5.86483L31.9331 4.10445L32.8145 5.8232C33.3138 6.79671 33.8314 7.63858 34.0084 7.76472ZM9.94435 11.5105C9.67503 11.7223 8.2548 14.3229 7.98661 15.0953C7.9606 15.1699 7.15178 15.3472 6.18904 15.4892C3.90847 15.8259 3.90522 15.8267 3.55263 16.1792C3.32695 16.4048 3.25081 16.6169 3.25081 17.0199C3.25081 17.5417 3.29794 17.6059 4.73067 19.0347L6.21054 20.5105L5.92385 22.0958C5.45298 24.6999 5.54025 25.2203 6.49536 25.5065C6.96873 25.6484 7.02349 25.6291 8.80956 24.6942L10.6388 23.7369L12.4915 24.6915C14.5631 25.759 14.8498 25.7987 15.438 25.0998C15.8261 24.6386 15.8261 24.6409 15.4396 22.3582L15.1254 20.5014L16.5737 19.0907C17.8642 17.8338 18.0295 17.624 18.0899 17.1664C18.1481 16.7255 18.1067 16.5958 17.7975 16.2498C17.4493 15.8601 17.3723 15.8371 15.4562 15.5511C14.3664 15.3884 13.4595 15.2383 13.4407 15.2175C13.422 15.1966 13.0069 14.3797 12.5184 13.4019C11.8238 12.0121 11.5492 11.5824 11.26 11.4329C10.7507 11.1695 10.3477 11.1933 9.94435 11.5105ZM52.4549 11.5105C52.1856 11.7223 50.7654 14.3229 50.4972 15.0953C50.4712 15.1699 49.6623 15.3472 48.6996 15.4892C46.419 15.8259 46.4158 15.8267 46.0632 16.1792C45.8375 16.4048 45.7614 16.6169 45.7614 17.0199C45.7614 17.5417 45.8085 17.6059 47.2412 19.0347L48.7211 20.5105L48.4344 22.0958C47.9635 24.6999 48.0508 25.2203 49.0059 25.5065C49.4793 25.6484 49.5341 25.6291 51.3201 24.6942L53.1493 23.7369L55.002 24.6915C57.0737 25.759 57.3604 25.7987 57.9485 25.0998C58.3366 24.6386 58.3366 24.6409 57.9501 22.3582L57.6359 20.5014L59.0843 19.0907C60.3747 17.8338 60.54 17.624 60.6004 17.1664C60.6587 16.7255 60.6173 16.5958 60.3081 16.2498C59.9599 15.8601 59.8829 15.8371 57.9668 15.5511C56.877 15.3884 55.97 15.2383 55.9513 15.2175C55.9325 15.1966 55.5174 14.3797 55.0289 13.4019C54.3344 12.0121 54.0598 11.5824 53.7706 11.4329C53.2612 11.1695 52.8583 11.1933 52.4549 11.5105ZM11.9093 17.4162C12.1306 17.5574 13.6213 17.8675 14.0785 17.8675C14.1278 17.8675 13.8248 18.2251 13.4051 18.6621C12.9853 19.0992 12.6096 19.5914 12.5702 19.756C12.5307 19.9207 12.5759 20.4914 12.6703 21.0242C12.7648 21.5571 12.8207 21.9931 12.7946 21.9931C12.7683 21.9931 12.3559 21.7962 11.8779 21.5556C11.4 21.3149 10.8294 21.118 10.6099 21.118C10.3878 21.118 9.85307 21.3146 9.40396 21.5614C8.96023 21.8053 8.57188 21.9796 8.541 21.9487C8.51024 21.9179 8.545 21.5673 8.61852 21.1697C8.87208 19.7986 8.8397 19.6842 7.93435 18.7464L7.11652 17.8994L8.04825 17.7609C9.44085 17.5537 9.5785 17.4592 10.1544 16.3138L10.6589 15.3107L11.1435 16.2738C11.41 16.8034 11.7547 17.3176 11.9093 17.4162ZM54.4199 17.4162C54.6412 17.5574 56.1318 17.8675 56.5891 17.8675C56.6383 17.8675 56.3354 18.2251 55.9156 18.6621C55.4959 19.0992 55.1202 19.5914 55.0808 19.756C55.0413 19.9207 55.0864 20.4914 55.1808 21.0242C55.2754 21.5571 55.3312 21.9931 55.3051 21.9931C55.2789 21.9931 54.8665 21.7962 54.3885 21.5556C53.9105 21.3149 53.34 21.118 53.1204 21.118C52.8984 21.118 52.3636 21.3146 51.9145 21.5614C51.4708 21.8053 51.0824 21.9796 51.0516 21.9487C51.0208 21.9179 51.0556 21.5673 51.1291 21.1697C51.3826 19.7986 51.3503 19.6842 50.4449 18.7464L49.6271 17.8994L50.5588 17.7609C51.9514 17.5537 52.0891 17.4592 52.665 16.3138L53.1695 15.3107L53.6541 16.2738C53.9205 16.8034 54.2652 17.3176 54.4199 17.4162ZM30.1456 22.6783C28.2358 23.1122 26.9616 23.7249 25.6007 24.8638C24.138 26.0881 22.982 27.8422 22.4259 29.6817C22.1281 30.6668 22.0859 31.017 22.0859 32.4946C22.0859 33.9722 22.1281 34.3224 22.4259 35.3075C23.1586 37.7312 24.775 39.7779 27.0433 41.1541C27.8529 41.6454 29.4221 42.2049 30.3448 42.3312C30.9788 42.4181 31.0651 42.621 30.4681 42.621C29.3675 42.621 27.3453 43.1672 25.7707 43.8897C24.1095 44.652 22.6951 45.6621 21.2842 47.0939L20.0003 48.3967L19.4915 47.937C18.1186 46.697 16.0044 45.6796 13.9153 45.2539C13.2202 45.1123 12.604 44.9919 12.546 44.9865C12.488 44.981 12.8063 44.8977 13.2533 44.8013C16.5756 44.0852 19.1254 40.9128 19.1254 37.4953C19.1254 33.4502 15.6734 29.9986 11.6279 29.9986C7.58238 29.9986 4.1304 33.4502 4.1304 37.4953C4.1304 40.9142 6.69916 44.1076 10.0025 44.7953L10.8152 44.9646L10.3151 45.0553C8.20391 45.4377 6.74155 45.9686 5.36658 46.852C3.34733 48.1491 1.56801 50.2713 0.774817 52.3284C0.208427 53.7974 0 55.1242 0 57.26V59.1194L0.364841 59.5277L0.729681 59.936L31.9324 59.968L63.1351 60L63.5443 59.6347L63.9534 59.2695L63.9935 57.3908C64.0399 55.2192 63.8421 53.8864 63.2425 52.3315C62.4476 50.271 60.6697 48.1498 58.6493 46.852C57.2743 45.9686 55.812 45.4377 53.7008 45.0553L53.2007 44.9646L54.0134 44.7953C57.3167 44.1076 59.8855 40.9142 59.8855 37.4953C59.8855 33.4502 56.4335 29.9986 52.388 29.9986C48.3425 29.9986 44.8905 33.4502 44.8905 37.4953C44.8905 40.9128 47.4403 44.0852 50.7626 44.8013C51.2096 44.8977 51.5279 44.981 51.4699 44.9865C51.4119 44.9919 50.7957 45.1123 50.1006 45.2539C48.0055 45.6808 45.8975 46.6967 44.5144 47.946L43.9956 48.4149L43.0491 47.3863C41.8285 46.06 40.4132 44.9893 38.7915 44.1654C37.0502 43.2806 34.8104 42.621 33.5478 42.621C32.9508 42.621 33.0371 42.4181 33.6711 42.3312C34.5938 42.2049 36.163 41.6454 36.9726 41.1541C39.2409 39.7779 40.8573 37.7312 41.59 35.3075C41.8878 34.3224 41.93 33.9722 41.93 32.4946C41.93 31.017 41.8878 30.6668 41.59 29.6817C40.6152 26.4575 38.0118 23.8585 34.8211 22.9242C33.4123 22.5118 31.3553 22.4035 30.1456 22.6783ZM33.5708 25.1816C36.9448 25.8899 39.5054 29.0452 39.5054 32.4946C39.5054 35.944 36.9448 39.0993 33.5708 39.8076C31.0258 40.3418 28.6026 39.6137 26.7453 37.7567C23.7654 34.7772 23.7654 30.212 26.7453 27.2325C28.6036 25.3743 31.0243 24.647 33.5708 25.1816ZM12.7932 32.6815C14.8193 33.2092 16.1433 34.6459 16.5327 36.7395C16.8028 38.1919 16.2455 39.891 15.1348 41.0018C14.0239 42.1125 12.3246 42.6697 10.872 42.3996C8.65277 41.9869 7.13577 40.4701 6.72304 38.2512C6.45485 36.8087 7.01012 35.0997 8.10189 34.0079C9.37858 32.7315 11.1078 32.2426 12.7932 32.6815ZM53.5533 32.6815C55.5794 33.2092 56.9034 34.6459 57.2929 36.7395C57.5629 38.1919 57.0057 39.891 55.8949 41.0018C54.784 42.1125 53.0847 42.6697 51.6321 42.3996C49.4129 41.9869 47.8959 40.4701 47.4832 38.2512C47.215 36.8087 47.7702 35.0997 48.862 34.0079C50.1387 32.7315 51.8679 32.2426 53.5533 32.6815ZM35.0087 45.3673C36.4969 45.732 38.6081 46.7936 39.8688 47.8113C41.6086 49.2158 43.1292 51.4119 43.869 53.5886C44.17 54.4738 44.5111 56.294 44.5111 57.0145V57.4981H32.0079H19.5048V57.0145C19.5048 56.7484 19.5897 56.0439 19.6935 55.449C20.603 50.2339 24.628 46.1779 29.8844 45.1798C31.1671 44.9361 33.6147 45.0258 35.0087 45.3673ZM14.0615 47.8167C15.581 48.2281 17.3761 49.249 18.3047 50.2297L18.6675 50.6128L18.2825 51.5239C17.5567 53.2418 17.227 54.5902 17.0589 56.5293L16.9748 57.4981H9.73779H2.50062L2.50275 56.4668C2.50987 53.1314 4.35596 50.142 7.37683 48.5744C8.27968 48.1058 9.20391 47.7808 10.0979 47.6172C10.9342 47.4644 13.1773 47.5771 14.0615 47.8167ZM31.5563 47.6193C31.1627 47.7783 30.7576 48.3577 30.7576 48.7618C30.7576 49.2622 31.3323 49.8628 31.897 49.9525C32.2778 50.013 32.4148 49.9652 32.7694 49.6484C33.1206 49.3346 33.1901 49.1858 33.1901 48.7469C33.1901 48.3118 33.1201 48.1588 32.7845 47.859C32.3738 47.492 32.0351 47.4258 31.5563 47.6193ZM54.9511 47.876C57.4945 48.6619 59.4985 50.3456 60.6353 52.6517C61.2391 53.8765 61.5102 55.0547 61.5132 56.4668L61.5153 57.4981H54.2781H47.0411L46.957 56.5293C46.7889 54.5902 46.4592 53.2418 45.7334 51.5239L45.3484 50.6128L45.7112 50.2297C46.8978 48.9766 49.0762 47.8994 51.0752 47.5775C51.9219 47.4411 54.0822 47.6075 54.9511 47.876ZM35.9408 49.3039C35.7077 49.5368 35.6339 49.7433 35.6339 50.1614C35.6339 50.6941 35.6699 50.7452 36.7279 51.7151C37.3356 52.2723 38.0163 53.0379 38.2595 53.438C38.8817 54.4616 39.4168 54.9978 39.8161 54.9978C40.6203 54.9978 41.2235 54.34 41.1026 53.5947C40.938 52.5808 39.1052 50.2479 37.7878 49.3754C37.0542 48.8896 36.3812 48.8634 35.9408 49.3039Z" fill="url(#paint0_linear_472_731)"/>
<defs>
<linearGradient id="paint0_linear_472_731" x1="13.4751" y1="1.0156e-06" x2="46.9489" y2="61.762" gradientUnits="userSpaceOnUse">
<stop stop-color="#6386FF"/>
<stop offset="1" stop-color="#938AFF"/>
</linearGradient>
</defs>
</svg>
