<svg width="77" height="47" viewBox="0 0 77 47" fill="none" xmlns="http://www.w3.org/2000/svg">
<mask id="path-1-outside-1_453_887" maskUnits="userSpaceOnUse" x="0" y="0" width="77" height="47" fill="black">
<rect fill="white" width="77" height="47"/>
<path fill-rule="evenodd" clip-rule="evenodd" d="M63.8753 1.07684C62.4041 1.45015 61.976 2.30505 62.3778 4.06686C62.5904 4.99862 62.5852 5.10048 62.286 5.90033C62.1117 6.36621 61.9692 7.0215 61.9692 7.35653C61.9692 7.69157 61.8746 8.19191 61.7592 8.46839C61.4836 9.12779 59.8207 10.3807 58.1672 11.1746C57.4599 11.5141 56.5841 11.9963 56.221 12.2462C55.3782 12.826 54.7219 13.972 54.4988 15.2532C54.4033 15.8017 54.1579 16.6037 53.9538 17.0355C53.5345 17.9217 52.9703 18.5247 52.8588 18.2057C52.7013 17.7549 52.0099 17.1138 51.4992 16.9453C50.6747 16.6732 49.7413 16.8719 47.9504 17.7012C46.3618 18.4368 45.376 18.7806 44.8508 18.7822C44.626 18.783 44.6563 18.6818 45.04 18.1521C45.9114 16.9492 45.9054 15.8365 45.0245 15.2195C44.5057 14.856 44.0993 14.9 42.0687 15.5388C40.3383 16.0832 40.1921 16.1613 39.3819 16.9748C38.8677 17.4911 38.3356 17.8767 38.0517 17.9391C37.7914 17.9963 37.4049 18.2491 37.193 18.501C36.8102 18.9561 36.7391 19.3718 36.803 20.7832C36.8224 21.2102 36.7201 21.451 36.3494 21.8506C35.7292 22.5197 35.4673 23.0273 35.3438 23.7996C35.2679 24.274 35.1745 24.4256 34.9582 24.4256C34.4885 24.4256 34.6085 23.7165 35.2008 22.9938C36.247 21.7168 36.5438 20.6087 36.1719 19.3671C35.9077 18.4859 35.4118 18.0207 34.7361 18.0207C34.2751 18.0207 34.063 18.1369 33.547 18.6728C33.2016 19.0313 32.6788 19.6661 32.3853 20.0834C31.6451 21.1353 30.8347 21.5158 29.2274 21.5656C28.018 21.6033 27.968 21.5906 27.4771 21.1258C26.1467 19.866 24.5814 19.7221 20.0962 20.4474C18.4953 20.7063 17.1057 20.9181 17.0082 20.9181C16.803 20.9181 16.7734 20.1776 16.9663 19.8731C17.0714 19.7073 17.1651 19.703 17.4422 19.8514C17.958 20.1274 19.5704 19.983 20.0622 19.6169C21.3863 18.6308 21.3386 16.6921 19.9521 15.1501C19.1306 14.2363 18.2021 13.7506 17.2783 13.7514C16.4252 13.752 15.8432 14.103 14.9846 15.1347C12.8642 17.6826 11.8858 18.3888 9.85823 18.8353C8.41273 19.1536 7.64614 19.5609 6.68741 20.5197C5.7941 21.4128 5.10346 22.7464 4.70362 24.3493C4.34068 25.8048 4.33412 28.6086 4.68898 30.678C5.02553 32.6415 4.91848 33.1175 4.13954 33.1188C2.82992 33.121 1.563 33.8273 1.16651 34.7763C0.822334 35.6 1.00151 36.6327 1.79936 38.4225C4.50568 44.4944 6.06615 46.308 7.80931 45.4066C8.29973 45.153 8.5971 44.5383 9.65739 41.586C10.5104 39.2105 11.2134 37.9385 11.9564 37.426C13.0242 36.6893 14.7756 37.201 15.8549 38.5653C16.8931 39.8775 17.952 40.8893 18.4641 41.0583C19.5132 41.4046 20.3433 40.8523 20.8781 39.4517C21.0722 38.9433 21.3471 38.6119 21.9098 38.2075L22.677 37.6564L23.6808 38.1958C24.2326 38.4924 25.0901 38.8091 25.586 38.8997C26.0819 38.9901 26.5024 39.0816 26.5204 39.1028C26.5383 39.1242 26.6957 39.4246 26.87 39.7705C27.3916 40.8052 27.9846 41.2003 29.0155 41.2003C30.0251 41.2003 30.1645 41.3105 31.0636 42.8186C32.5085 45.2421 34.845 46.2906 37.9984 45.9311C39.8485 45.72 40.9301 45.4114 41.9924 44.7913C42.3868 44.561 42.729 44.4929 43.3025 44.5299C43.9151 44.5697 44.2975 44.4811 45.1153 44.1102C45.6855 43.8518 46.2476 43.6402 46.3647 43.6402C46.4817 43.6402 46.932 43.8199 47.3654 44.0396C48.363 44.5452 49.2243 44.5624 50.5937 44.1044C51.5634 43.7801 51.7273 43.7667 52.6726 43.9356C53.9481 44.1636 54.5529 44.0189 55.7561 43.1982C56.2467 42.8634 56.9196 42.5517 57.281 42.4915C58.205 42.3376 58.9519 41.9141 59.2747 41.361C59.4548 41.0524 59.6055 40.3356 59.699 39.3416C59.7787 38.4939 59.8801 37.7419 59.9244 37.6704C59.9686 37.5989 60.3488 37.5403 60.7693 37.5403C61.4717 37.5403 61.5797 37.5913 62.0947 38.1657C62.7919 38.9433 63.3088 39.2178 64.0757 39.2178C65.0814 39.2178 66.2968 39.5127 66.619 39.8351C66.8775 40.0936 66.9263 40.3484 66.9319 41.4714C66.937 42.4723 67.0124 42.952 67.2369 43.4095C67.8162 44.5903 69.1256 45.0386 70.1575 44.4094C70.8277 44.0008 71.0485 43.6073 71.4029 42.1915C72.1602 39.1657 72.1948 36.9686 71.517 34.9372C70.2911 31.2626 69.7442 29.8333 69.4935 29.6478C69.2811 29.4908 68.9092 29.465 67.9689 29.5422C66.8168 29.6367 66.7129 29.6212 66.5583 29.3323C66.3656 28.972 66.354 27.4563 66.531 25.7688C66.6202 24.9194 66.8052 24.2779 67.2012 23.4438C67.7022 22.389 68.0052 21.2625 68.1061 20.0794C68.1424 19.6532 68.1862 19.6949 68.7448 20.6894C70.2016 23.2832 71.4735 24.7733 72.9565 25.6237C74.0802 26.268 74.931 26.279 75.5529 25.6573C76.0804 25.1298 76.1334 24.4776 75.7528 23.1952C75.1776 21.2562 74.0757 19.6535 72.7072 18.7655C72.1469 18.4019 71.6518 17.9363 71.4572 17.5899C70.9415 16.6723 70.7731 15.1883 70.9811 13.3901C71.4445 9.38002 71.3963 8.33465 70.6958 7.19931C70.3527 6.6433 70.0542 6.40205 69.1794 5.97338L68.0901 5.43964L68.0796 4.32915C68.0674 3.0648 67.84 2.41196 67.2108 1.83628C66.5254 1.2089 64.8543 0.828421 63.8753 1.07684ZM65.9721 3.19442C66.1823 3.37848 66.239 3.67433 66.2393 4.58642C66.2396 6.26114 66.4879 6.67563 67.894 7.34952C69.4392 8.08989 69.7372 8.7685 69.4391 10.8687C69.0534 13.5862 68.9796 14.8937 69.1435 16.1113C69.4177 18.1488 70.1552 19.3485 71.732 20.3229C72.1112 20.5572 72.5654 20.9434 72.7412 21.1813C73.3948 22.0652 74.2911 24.1206 74.0231 24.1206C73.9505 24.1206 73.5471 23.8487 73.1269 23.5164C72.2828 22.8494 71.3646 21.6219 70.3417 19.7941C69.6382 18.5367 68.5563 17.423 68.0093 17.3931C66.6879 17.321 66.4764 17.6332 66.2553 19.9835C66.1457 21.1499 66.0147 21.6808 65.6639 22.3816C64.996 23.7165 64.8396 24.31 64.6471 26.2424C64.3714 29.0081 64.6425 30.2708 65.678 31.0432C66.0252 31.3023 66.3273 31.3642 67.245 31.3642H68.382L68.5461 31.9742C68.6364 32.3097 68.9782 33.2898 69.3058 34.1522C70.1459 36.3637 70.3107 37.471 70.0777 39.338C69.8348 41.2846 69.4263 42.8015 69.1451 42.8015C68.8413 42.8015 68.6647 42.0161 68.7762 41.1617C68.977 39.6226 68.1386 38.2458 66.7149 37.7775C66.3273 37.6498 65.5084 37.4998 64.8951 37.444C63.856 37.3493 63.7527 37.3067 63.3825 36.8213C62.7871 36.0407 62.017 35.7104 60.7934 35.7107C58.7961 35.7111 58.0836 36.4866 57.9102 38.8488C57.8552 39.5969 57.7442 40.2931 57.6632 40.3957C57.5824 40.4982 57.2658 40.6292 56.9597 40.6864C56.1671 40.8349 55.4927 41.1396 54.6031 41.7516C53.9044 42.2322 53.7674 42.2726 53.2094 42.1618C52.1688 41.9553 50.8119 42.0499 49.8042 42.3992L48.8476 42.7309L47.9743 42.3086C46.7948 41.7384 45.7352 41.7458 44.5963 42.3318C43.9045 42.6877 43.6517 42.7419 43.0535 42.6626C42.4452 42.5819 42.2077 42.6362 41.4678 43.0255C39.6867 43.9623 37.594 44.3599 35.8888 44.0854C34.2251 43.8174 33.3971 43.1971 32.3433 41.429C31.4147 39.8713 30.6996 39.3703 29.4043 39.3703C28.7483 39.3703 28.7202 39.35 28.3414 38.6023C27.8821 37.6959 27.2972 37.2962 26.2257 37.1564C25.7657 37.0963 24.9971 36.8106 24.3484 36.4588C22.8867 35.6658 22.3771 35.67 21.177 36.4846C19.869 37.3726 19.7261 37.5225 19.3174 38.4386L18.9507 39.2605L18.4879 38.8198C18.2334 38.5773 17.7751 38.036 17.4695 37.6166C16.8333 36.7434 16.6953 36.6162 15.7877 36.0663C14.1906 35.0986 12.613 34.9569 11.312 35.6643C9.88323 36.4411 8.89736 38.0634 7.66978 41.6578C7.31172 42.7062 6.98935 43.5983 6.95352 43.6402C6.6435 44.0026 3.38469 38.0486 2.92599 36.2815C2.67743 35.3243 2.89321 35.1001 4.19749 34.9601C5.74012 34.7946 6.30877 34.3118 6.62489 32.8989C6.77708 32.2189 6.76153 31.8336 6.52882 30.5064C6.20553 28.6623 6.1729 26.0818 6.45791 24.8831C7.08146 22.2595 8.23325 21.0333 10.5202 20.5584C12.6274 20.1209 14.0776 19.0863 16.2697 16.4576C17.1353 15.4195 17.4779 15.3547 18.2969 16.0739C18.937 16.6358 19.3303 17.4404 19.1865 17.8935C19.0838 18.2171 18.9016 18.2208 17.2228 17.9316C15.9295 17.709 15.135 18.657 15.0301 20.548C14.9726 21.5871 14.9877 21.644 15.4459 22.1021C16.1459 22.8021 16.7915 22.843 19.6552 22.369C22.2725 21.9357 24.6406 21.7317 25.2566 21.8863C25.4663 21.9389 25.9639 22.2513 26.3622 22.5805C27.2784 23.3377 28.1043 23.5507 29.6145 23.4195C31.6257 23.2448 32.8031 22.6275 33.8529 21.1973C34.156 20.7842 34.4354 20.4774 34.4734 20.5155C34.5952 20.6372 34.0636 21.5263 33.4884 22.1628C32.9969 22.7069 32.9243 22.8914 32.8708 23.7311C32.7635 25.4188 33.5766 26.3254 35.0969 26.213C35.761 26.1639 35.995 26.0637 36.4297 25.6423C36.7626 25.3197 36.9892 24.9311 37.0444 24.5878C37.1687 23.8163 37.394 23.3271 37.7346 23.0885C38.3563 22.6529 38.5497 21.9527 38.6337 19.831C38.6359 19.7784 38.8519 19.6463 39.1139 19.5377C39.3761 19.4293 39.9421 18.981 40.372 18.5418C41.052 17.847 41.3153 17.6945 42.3953 17.3706L43.6371 16.9982L43.12 17.718C41.8783 19.4462 42.3801 20.6131 44.3646 20.6131C45.5524 20.6131 46.659 20.2979 48.6259 19.3994C49.5485 18.9779 50.4532 18.6325 50.6364 18.6319C50.859 18.6311 51.1136 18.8455 51.4044 19.2788C52.2745 20.5753 53.3817 20.5755 54.6298 19.2791C55.4546 18.4224 55.9632 17.3367 56.2555 15.8089C56.379 15.1636 56.6178 14.442 56.7863 14.2053C56.9756 13.9398 57.7487 13.4426 58.8066 12.9062C60.782 11.9049 62.5101 10.6557 63.1022 9.80107C63.3845 9.39375 63.5749 8.83179 63.7088 8.00983C63.8163 7.35104 64.0327 6.45497 64.1899 6.01852C64.4594 5.27022 64.462 5.15981 64.2363 4.07936C64.0667 3.26808 64.0458 2.91306 64.1648 2.86258C64.4731 2.73205 65.7018 2.95774 65.9721 3.19442Z"/>
</mask>
<path fill-rule="evenodd" clip-rule="evenodd" d="M63.8753 1.07684C62.4041 1.45015 61.976 2.30505 62.3778 4.06686C62.5904 4.99862 62.5852 5.10048 62.286 5.90033C62.1117 6.36621 61.9692 7.0215 61.9692 7.35653C61.9692 7.69157 61.8746 8.19191 61.7592 8.46839C61.4836 9.12779 59.8207 10.3807 58.1672 11.1746C57.4599 11.5141 56.5841 11.9963 56.221 12.2462C55.3782 12.826 54.7219 13.972 54.4988 15.2532C54.4033 15.8017 54.1579 16.6037 53.9538 17.0355C53.5345 17.9217 52.9703 18.5247 52.8588 18.2057C52.7013 17.7549 52.0099 17.1138 51.4992 16.9453C50.6747 16.6732 49.7413 16.8719 47.9504 17.7012C46.3618 18.4368 45.376 18.7806 44.8508 18.7822C44.626 18.783 44.6563 18.6818 45.04 18.1521C45.9114 16.9492 45.9054 15.8365 45.0245 15.2195C44.5057 14.856 44.0993 14.9 42.0687 15.5388C40.3383 16.0832 40.1921 16.1613 39.3819 16.9748C38.8677 17.4911 38.3356 17.8767 38.0517 17.9391C37.7914 17.9963 37.4049 18.2491 37.193 18.501C36.8102 18.9561 36.7391 19.3718 36.803 20.7832C36.8224 21.2102 36.7201 21.451 36.3494 21.8506C35.7292 22.5197 35.4673 23.0273 35.3438 23.7996C35.2679 24.274 35.1745 24.4256 34.9582 24.4256C34.4885 24.4256 34.6085 23.7165 35.2008 22.9938C36.247 21.7168 36.5438 20.6087 36.1719 19.3671C35.9077 18.4859 35.4118 18.0207 34.7361 18.0207C34.2751 18.0207 34.063 18.1369 33.547 18.6728C33.2016 19.0313 32.6788 19.6661 32.3853 20.0834C31.6451 21.1353 30.8347 21.5158 29.2274 21.5656C28.018 21.6033 27.968 21.5906 27.4771 21.1258C26.1467 19.866 24.5814 19.7221 20.0962 20.4474C18.4953 20.7063 17.1057 20.9181 17.0082 20.9181C16.803 20.9181 16.7734 20.1776 16.9663 19.8731C17.0714 19.7073 17.1651 19.703 17.4422 19.8514C17.958 20.1274 19.5704 19.983 20.0622 19.6169C21.3863 18.6308 21.3386 16.6921 19.9521 15.1501C19.1306 14.2363 18.2021 13.7506 17.2783 13.7514C16.4252 13.752 15.8432 14.103 14.9846 15.1347C12.8642 17.6826 11.8858 18.3888 9.85823 18.8353C8.41273 19.1536 7.64614 19.5609 6.68741 20.5197C5.7941 21.4128 5.10346 22.7464 4.70362 24.3493C4.34068 25.8048 4.33412 28.6086 4.68898 30.678C5.02553 32.6415 4.91848 33.1175 4.13954 33.1188C2.82992 33.121 1.563 33.8273 1.16651 34.7763C0.822334 35.6 1.00151 36.6327 1.79936 38.4225C4.50568 44.4944 6.06615 46.308 7.80931 45.4066C8.29973 45.153 8.5971 44.5383 9.65739 41.586C10.5104 39.2105 11.2134 37.9385 11.9564 37.426C13.0242 36.6893 14.7756 37.201 15.8549 38.5653C16.8931 39.8775 17.952 40.8893 18.4641 41.0583C19.5132 41.4046 20.3433 40.8523 20.8781 39.4517C21.0722 38.9433 21.3471 38.6119 21.9098 38.2075L22.677 37.6564L23.6808 38.1958C24.2326 38.4924 25.0901 38.8091 25.586 38.8997C26.0819 38.9901 26.5024 39.0816 26.5204 39.1028C26.5383 39.1242 26.6957 39.4246 26.87 39.7705C27.3916 40.8052 27.9846 41.2003 29.0155 41.2003C30.0251 41.2003 30.1645 41.3105 31.0636 42.8186C32.5085 45.2421 34.845 46.2906 37.9984 45.9311C39.8485 45.72 40.9301 45.4114 41.9924 44.7913C42.3868 44.561 42.729 44.4929 43.3025 44.5299C43.9151 44.5697 44.2975 44.4811 45.1153 44.1102C45.6855 43.8518 46.2476 43.6402 46.3647 43.6402C46.4817 43.6402 46.932 43.8199 47.3654 44.0396C48.363 44.5452 49.2243 44.5624 50.5937 44.1044C51.5634 43.7801 51.7273 43.7667 52.6726 43.9356C53.9481 44.1636 54.5529 44.0189 55.7561 43.1982C56.2467 42.8634 56.9196 42.5517 57.281 42.4915C58.205 42.3376 58.9519 41.9141 59.2747 41.361C59.4548 41.0524 59.6055 40.3356 59.699 39.3416C59.7787 38.4939 59.8801 37.7419 59.9244 37.6704C59.9686 37.5989 60.3488 37.5403 60.7693 37.5403C61.4717 37.5403 61.5797 37.5913 62.0947 38.1657C62.7919 38.9433 63.3088 39.2178 64.0757 39.2178C65.0814 39.2178 66.2968 39.5127 66.619 39.8351C66.8775 40.0936 66.9263 40.3484 66.9319 41.4714C66.937 42.4723 67.0124 42.952 67.2369 43.4095C67.8162 44.5903 69.1256 45.0386 70.1575 44.4094C70.8277 44.0008 71.0485 43.6073 71.4029 42.1915C72.1602 39.1657 72.1948 36.9686 71.517 34.9372C70.2911 31.2626 69.7442 29.8333 69.4935 29.6478C69.2811 29.4908 68.9092 29.465 67.9689 29.5422C66.8168 29.6367 66.7129 29.6212 66.5583 29.3323C66.3656 28.972 66.354 27.4563 66.531 25.7688C66.6202 24.9194 66.8052 24.2779 67.2012 23.4438C67.7022 22.389 68.0052 21.2625 68.1061 20.0794C68.1424 19.6532 68.1862 19.6949 68.7448 20.6894C70.2016 23.2832 71.4735 24.7733 72.9565 25.6237C74.0802 26.268 74.931 26.279 75.5529 25.6573C76.0804 25.1298 76.1334 24.4776 75.7528 23.1952C75.1776 21.2562 74.0757 19.6535 72.7072 18.7655C72.1469 18.4019 71.6518 17.9363 71.4572 17.5899C70.9415 16.6723 70.7731 15.1883 70.9811 13.3901C71.4445 9.38002 71.3963 8.33465 70.6958 7.19931C70.3527 6.6433 70.0542 6.40205 69.1794 5.97338L68.0901 5.43964L68.0796 4.32915C68.0674 3.0648 67.84 2.41196 67.2108 1.83628C66.5254 1.2089 64.8543 0.828421 63.8753 1.07684ZM65.9721 3.19442C66.1823 3.37848 66.239 3.67433 66.2393 4.58642C66.2396 6.26114 66.4879 6.67563 67.894 7.34952C69.4392 8.08989 69.7372 8.7685 69.4391 10.8687C69.0534 13.5862 68.9796 14.8937 69.1435 16.1113C69.4177 18.1488 70.1552 19.3485 71.732 20.3229C72.1112 20.5572 72.5654 20.9434 72.7412 21.1813C73.3948 22.0652 74.2911 24.1206 74.0231 24.1206C73.9505 24.1206 73.5471 23.8487 73.1269 23.5164C72.2828 22.8494 71.3646 21.6219 70.3417 19.7941C69.6382 18.5367 68.5563 17.423 68.0093 17.3931C66.6879 17.321 66.4764 17.6332 66.2553 19.9835C66.1457 21.1499 66.0147 21.6808 65.6639 22.3816C64.996 23.7165 64.8396 24.31 64.6471 26.2424C64.3714 29.0081 64.6425 30.2708 65.678 31.0432C66.0252 31.3023 66.3273 31.3642 67.245 31.3642H68.382L68.5461 31.9742C68.6364 32.3097 68.9782 33.2898 69.3058 34.1522C70.1459 36.3637 70.3107 37.471 70.0777 39.338C69.8348 41.2846 69.4263 42.8015 69.1451 42.8015C68.8413 42.8015 68.6647 42.0161 68.7762 41.1617C68.977 39.6226 68.1386 38.2458 66.7149 37.7775C66.3273 37.6498 65.5084 37.4998 64.8951 37.444C63.856 37.3493 63.7527 37.3067 63.3825 36.8213C62.7871 36.0407 62.017 35.7104 60.7934 35.7107C58.7961 35.7111 58.0836 36.4866 57.9102 38.8488C57.8552 39.5969 57.7442 40.2931 57.6632 40.3957C57.5824 40.4982 57.2658 40.6292 56.9597 40.6864C56.1671 40.8349 55.4927 41.1396 54.6031 41.7516C53.9044 42.2322 53.7674 42.2726 53.2094 42.1618C52.1688 41.9553 50.8119 42.0499 49.8042 42.3992L48.8476 42.7309L47.9743 42.3086C46.7948 41.7384 45.7352 41.7458 44.5963 42.3318C43.9045 42.6877 43.6517 42.7419 43.0535 42.6626C42.4452 42.5819 42.2077 42.6362 41.4678 43.0255C39.6867 43.9623 37.594 44.3599 35.8888 44.0854C34.2251 43.8174 33.3971 43.1971 32.3433 41.429C31.4147 39.8713 30.6996 39.3703 29.4043 39.3703C28.7483 39.3703 28.7202 39.35 28.3414 38.6023C27.8821 37.6959 27.2972 37.2962 26.2257 37.1564C25.7657 37.0963 24.9971 36.8106 24.3484 36.4588C22.8867 35.6658 22.3771 35.67 21.177 36.4846C19.869 37.3726 19.7261 37.5225 19.3174 38.4386L18.9507 39.2605L18.4879 38.8198C18.2334 38.5773 17.7751 38.036 17.4695 37.6166C16.8333 36.7434 16.6953 36.6162 15.7877 36.0663C14.1906 35.0986 12.613 34.9569 11.312 35.6643C9.88323 36.4411 8.89736 38.0634 7.66978 41.6578C7.31172 42.7062 6.98935 43.5983 6.95352 43.6402C6.6435 44.0026 3.38469 38.0486 2.92599 36.2815C2.67743 35.3243 2.89321 35.1001 4.19749 34.9601C5.74012 34.7946 6.30877 34.3118 6.62489 32.8989C6.77708 32.2189 6.76153 31.8336 6.52882 30.5064C6.20553 28.6623 6.1729 26.0818 6.45791 24.8831C7.08146 22.2595 8.23325 21.0333 10.5202 20.5584C12.6274 20.1209 14.0776 19.0863 16.2697 16.4576C17.1353 15.4195 17.4779 15.3547 18.2969 16.0739C18.937 16.6358 19.3303 17.4404 19.1865 17.8935C19.0838 18.2171 18.9016 18.2208 17.2228 17.9316C15.9295 17.709 15.135 18.657 15.0301 20.548C14.9726 21.5871 14.9877 21.644 15.4459 22.1021C16.1459 22.8021 16.7915 22.843 19.6552 22.369C22.2725 21.9357 24.6406 21.7317 25.2566 21.8863C25.4663 21.9389 25.9639 22.2513 26.3622 22.5805C27.2784 23.3377 28.1043 23.5507 29.6145 23.4195C31.6257 23.2448 32.8031 22.6275 33.8529 21.1973C34.156 20.7842 34.4354 20.4774 34.4734 20.5155C34.5952 20.6372 34.0636 21.5263 33.4884 22.1628C32.9969 22.7069 32.9243 22.8914 32.8708 23.7311C32.7635 25.4188 33.5766 26.3254 35.0969 26.213C35.761 26.1639 35.995 26.0637 36.4297 25.6423C36.7626 25.3197 36.9892 24.9311 37.0444 24.5878C37.1687 23.8163 37.394 23.3271 37.7346 23.0885C38.3563 22.6529 38.5497 21.9527 38.6337 19.831C38.6359 19.7784 38.8519 19.6463 39.1139 19.5377C39.3761 19.4293 39.9421 18.981 40.372 18.5418C41.052 17.847 41.3153 17.6945 42.3953 17.3706L43.6371 16.9982L43.12 17.718C41.8783 19.4462 42.3801 20.6131 44.3646 20.6131C45.5524 20.6131 46.659 20.2979 48.6259 19.3994C49.5485 18.9779 50.4532 18.6325 50.6364 18.6319C50.859 18.6311 51.1136 18.8455 51.4044 19.2788C52.2745 20.5753 53.3817 20.5755 54.6298 19.2791C55.4546 18.4224 55.9632 17.3367 56.2555 15.8089C56.379 15.1636 56.6178 14.442 56.7863 14.2053C56.9756 13.9398 57.7487 13.4426 58.8066 12.9062C60.782 11.9049 62.5101 10.6557 63.1022 9.80107C63.3845 9.39375 63.5749 8.83179 63.7088 8.00983C63.8163 7.35104 64.0327 6.45497 64.1899 6.01852C64.4594 5.27022 64.462 5.15981 64.2363 4.07936C64.0667 3.26808 64.0458 2.91306 64.1648 2.86258C64.4731 2.73205 65.7018 2.95774 65.9721 3.19442Z" fill="#6386FF"/>
<path fill-rule="evenodd" clip-rule="evenodd" d="M63.8753 1.07684C62.4041 1.45015 61.976 2.30505 62.3778 4.06686C62.5904 4.99862 62.5852 5.10048 62.286 5.90033C62.1117 6.36621 61.9692 7.0215 61.9692 7.35653C61.9692 7.69157 61.8746 8.19191 61.7592 8.46839C61.4836 9.12779 59.8207 10.3807 58.1672 11.1746C57.4599 11.5141 56.5841 11.9963 56.221 12.2462C55.3782 12.826 54.7219 13.972 54.4988 15.2532C54.4033 15.8017 54.1579 16.6037 53.9538 17.0355C53.5345 17.9217 52.9703 18.5247 52.8588 18.2057C52.7013 17.7549 52.0099 17.1138 51.4992 16.9453C50.6747 16.6732 49.7413 16.8719 47.9504 17.7012C46.3618 18.4368 45.376 18.7806 44.8508 18.7822C44.626 18.783 44.6563 18.6818 45.04 18.1521C45.9114 16.9492 45.9054 15.8365 45.0245 15.2195C44.5057 14.856 44.0993 14.9 42.0687 15.5388C40.3383 16.0832 40.1921 16.1613 39.3819 16.9748C38.8677 17.4911 38.3356 17.8767 38.0517 17.9391C37.7914 17.9963 37.4049 18.2491 37.193 18.501C36.8102 18.9561 36.7391 19.3718 36.803 20.7832C36.8224 21.2102 36.7201 21.451 36.3494 21.8506C35.7292 22.5197 35.4673 23.0273 35.3438 23.7996C35.2679 24.274 35.1745 24.4256 34.9582 24.4256C34.4885 24.4256 34.6085 23.7165 35.2008 22.9938C36.247 21.7168 36.5438 20.6087 36.1719 19.3671C35.9077 18.4859 35.4118 18.0207 34.7361 18.0207C34.2751 18.0207 34.063 18.1369 33.547 18.6728C33.2016 19.0313 32.6788 19.6661 32.3853 20.0834C31.6451 21.1353 30.8347 21.5158 29.2274 21.5656C28.018 21.6033 27.968 21.5906 27.4771 21.1258C26.1467 19.866 24.5814 19.7221 20.0962 20.4474C18.4953 20.7063 17.1057 20.9181 17.0082 20.9181C16.803 20.9181 16.7734 20.1776 16.9663 19.8731C17.0714 19.7073 17.1651 19.703 17.4422 19.8514C17.958 20.1274 19.5704 19.983 20.0622 19.6169C21.3863 18.6308 21.3386 16.6921 19.9521 15.1501C19.1306 14.2363 18.2021 13.7506 17.2783 13.7514C16.4252 13.752 15.8432 14.103 14.9846 15.1347C12.8642 17.6826 11.8858 18.3888 9.85823 18.8353C8.41273 19.1536 7.64614 19.5609 6.68741 20.5197C5.7941 21.4128 5.10346 22.7464 4.70362 24.3493C4.34068 25.8048 4.33412 28.6086 4.68898 30.678C5.02553 32.6415 4.91848 33.1175 4.13954 33.1188C2.82992 33.121 1.563 33.8273 1.16651 34.7763C0.822334 35.6 1.00151 36.6327 1.79936 38.4225C4.50568 44.4944 6.06615 46.308 7.80931 45.4066C8.29973 45.153 8.5971 44.5383 9.65739 41.586C10.5104 39.2105 11.2134 37.9385 11.9564 37.426C13.0242 36.6893 14.7756 37.201 15.8549 38.5653C16.8931 39.8775 17.952 40.8893 18.4641 41.0583C19.5132 41.4046 20.3433 40.8523 20.8781 39.4517C21.0722 38.9433 21.3471 38.6119 21.9098 38.2075L22.677 37.6564L23.6808 38.1958C24.2326 38.4924 25.0901 38.8091 25.586 38.8997C26.0819 38.9901 26.5024 39.0816 26.5204 39.1028C26.5383 39.1242 26.6957 39.4246 26.87 39.7705C27.3916 40.8052 27.9846 41.2003 29.0155 41.2003C30.0251 41.2003 30.1645 41.3105 31.0636 42.8186C32.5085 45.2421 34.845 46.2906 37.9984 45.9311C39.8485 45.72 40.9301 45.4114 41.9924 44.7913C42.3868 44.561 42.729 44.4929 43.3025 44.5299C43.9151 44.5697 44.2975 44.4811 45.1153 44.1102C45.6855 43.8518 46.2476 43.6402 46.3647 43.6402C46.4817 43.6402 46.932 43.8199 47.3654 44.0396C48.363 44.5452 49.2243 44.5624 50.5937 44.1044C51.5634 43.7801 51.7273 43.7667 52.6726 43.9356C53.9481 44.1636 54.5529 44.0189 55.7561 43.1982C56.2467 42.8634 56.9196 42.5517 57.281 42.4915C58.205 42.3376 58.9519 41.9141 59.2747 41.361C59.4548 41.0524 59.6055 40.3356 59.699 39.3416C59.7787 38.4939 59.8801 37.7419 59.9244 37.6704C59.9686 37.5989 60.3488 37.5403 60.7693 37.5403C61.4717 37.5403 61.5797 37.5913 62.0947 38.1657C62.7919 38.9433 63.3088 39.2178 64.0757 39.2178C65.0814 39.2178 66.2968 39.5127 66.619 39.8351C66.8775 40.0936 66.9263 40.3484 66.9319 41.4714C66.937 42.4723 67.0124 42.952 67.2369 43.4095C67.8162 44.5903 69.1256 45.0386 70.1575 44.4094C70.8277 44.0008 71.0485 43.6073 71.4029 42.1915C72.1602 39.1657 72.1948 36.9686 71.517 34.9372C70.2911 31.2626 69.7442 29.8333 69.4935 29.6478C69.2811 29.4908 68.9092 29.465 67.9689 29.5422C66.8168 29.6367 66.7129 29.6212 66.5583 29.3323C66.3656 28.972 66.354 27.4563 66.531 25.7688C66.6202 24.9194 66.8052 24.2779 67.2012 23.4438C67.7022 22.389 68.0052 21.2625 68.1061 20.0794C68.1424 19.6532 68.1862 19.6949 68.7448 20.6894C70.2016 23.2832 71.4735 24.7733 72.9565 25.6237C74.0802 26.268 74.931 26.279 75.5529 25.6573C76.0804 25.1298 76.1334 24.4776 75.7528 23.1952C75.1776 21.2562 74.0757 19.6535 72.7072 18.7655C72.1469 18.4019 71.6518 17.9363 71.4572 17.5899C70.9415 16.6723 70.7731 15.1883 70.9811 13.3901C71.4445 9.38002 71.3963 8.33465 70.6958 7.19931C70.3527 6.6433 70.0542 6.40205 69.1794 5.97338L68.0901 5.43964L68.0796 4.32915C68.0674 3.0648 67.84 2.41196 67.2108 1.83628C66.5254 1.2089 64.8543 0.828421 63.8753 1.07684ZM65.9721 3.19442C66.1823 3.37848 66.239 3.67433 66.2393 4.58642C66.2396 6.26114 66.4879 6.67563 67.894 7.34952C69.4392 8.08989 69.7372 8.7685 69.4391 10.8687C69.0534 13.5862 68.9796 14.8937 69.1435 16.1113C69.4177 18.1488 70.1552 19.3485 71.732 20.3229C72.1112 20.5572 72.5654 20.9434 72.7412 21.1813C73.3948 22.0652 74.2911 24.1206 74.0231 24.1206C73.9505 24.1206 73.5471 23.8487 73.1269 23.5164C72.2828 22.8494 71.3646 21.6219 70.3417 19.7941C69.6382 18.5367 68.5563 17.423 68.0093 17.3931C66.6879 17.321 66.4764 17.6332 66.2553 19.9835C66.1457 21.1499 66.0147 21.6808 65.6639 22.3816C64.996 23.7165 64.8396 24.31 64.6471 26.2424C64.3714 29.0081 64.6425 30.2708 65.678 31.0432C66.0252 31.3023 66.3273 31.3642 67.245 31.3642H68.382L68.5461 31.9742C68.6364 32.3097 68.9782 33.2898 69.3058 34.1522C70.1459 36.3637 70.3107 37.471 70.0777 39.338C69.8348 41.2846 69.4263 42.8015 69.1451 42.8015C68.8413 42.8015 68.6647 42.0161 68.7762 41.1617C68.977 39.6226 68.1386 38.2458 66.7149 37.7775C66.3273 37.6498 65.5084 37.4998 64.8951 37.444C63.856 37.3493 63.7527 37.3067 63.3825 36.8213C62.7871 36.0407 62.017 35.7104 60.7934 35.7107C58.7961 35.7111 58.0836 36.4866 57.9102 38.8488C57.8552 39.5969 57.7442 40.2931 57.6632 40.3957C57.5824 40.4982 57.2658 40.6292 56.9597 40.6864C56.1671 40.8349 55.4927 41.1396 54.6031 41.7516C53.9044 42.2322 53.7674 42.2726 53.2094 42.1618C52.1688 41.9553 50.8119 42.0499 49.8042 42.3992L48.8476 42.7309L47.9743 42.3086C46.7948 41.7384 45.7352 41.7458 44.5963 42.3318C43.9045 42.6877 43.6517 42.7419 43.0535 42.6626C42.4452 42.5819 42.2077 42.6362 41.4678 43.0255C39.6867 43.9623 37.594 44.3599 35.8888 44.0854C34.2251 43.8174 33.3971 43.1971 32.3433 41.429C31.4147 39.8713 30.6996 39.3703 29.4043 39.3703C28.7483 39.3703 28.7202 39.35 28.3414 38.6023C27.8821 37.6959 27.2972 37.2962 26.2257 37.1564C25.7657 37.0963 24.9971 36.8106 24.3484 36.4588C22.8867 35.6658 22.3771 35.67 21.177 36.4846C19.869 37.3726 19.7261 37.5225 19.3174 38.4386L18.9507 39.2605L18.4879 38.8198C18.2334 38.5773 17.7751 38.036 17.4695 37.6166C16.8333 36.7434 16.6953 36.6162 15.7877 36.0663C14.1906 35.0986 12.613 34.9569 11.312 35.6643C9.88323 36.4411 8.89736 38.0634 7.66978 41.6578C7.31172 42.7062 6.98935 43.5983 6.95352 43.6402C6.6435 44.0026 3.38469 38.0486 2.92599 36.2815C2.67743 35.3243 2.89321 35.1001 4.19749 34.9601C5.74012 34.7946 6.30877 34.3118 6.62489 32.8989C6.77708 32.2189 6.76153 31.8336 6.52882 30.5064C6.20553 28.6623 6.1729 26.0818 6.45791 24.8831C7.08146 22.2595 8.23325 21.0333 10.5202 20.5584C12.6274 20.1209 14.0776 19.0863 16.2697 16.4576C17.1353 15.4195 17.4779 15.3547 18.2969 16.0739C18.937 16.6358 19.3303 17.4404 19.1865 17.8935C19.0838 18.2171 18.9016 18.2208 17.2228 17.9316C15.9295 17.709 15.135 18.657 15.0301 20.548C14.9726 21.5871 14.9877 21.644 15.4459 22.1021C16.1459 22.8021 16.7915 22.843 19.6552 22.369C22.2725 21.9357 24.6406 21.7317 25.2566 21.8863C25.4663 21.9389 25.9639 22.2513 26.3622 22.5805C27.2784 23.3377 28.1043 23.5507 29.6145 23.4195C31.6257 23.2448 32.8031 22.6275 33.8529 21.1973C34.156 20.7842 34.4354 20.4774 34.4734 20.5155C34.5952 20.6372 34.0636 21.5263 33.4884 22.1628C32.9969 22.7069 32.9243 22.8914 32.8708 23.7311C32.7635 25.4188 33.5766 26.3254 35.0969 26.213C35.761 26.1639 35.995 26.0637 36.4297 25.6423C36.7626 25.3197 36.9892 24.9311 37.0444 24.5878C37.1687 23.8163 37.394 23.3271 37.7346 23.0885C38.3563 22.6529 38.5497 21.9527 38.6337 19.831C38.6359 19.7784 38.8519 19.6463 39.1139 19.5377C39.3761 19.4293 39.9421 18.981 40.372 18.5418C41.052 17.847 41.3153 17.6945 42.3953 17.3706L43.6371 16.9982L43.12 17.718C41.8783 19.4462 42.3801 20.6131 44.3646 20.6131C45.5524 20.6131 46.659 20.2979 48.6259 19.3994C49.5485 18.9779 50.4532 18.6325 50.6364 18.6319C50.859 18.6311 51.1136 18.8455 51.4044 19.2788C52.2745 20.5753 53.3817 20.5755 54.6298 19.2791C55.4546 18.4224 55.9632 17.3367 56.2555 15.8089C56.379 15.1636 56.6178 14.442 56.7863 14.2053C56.9756 13.9398 57.7487 13.4426 58.8066 12.9062C60.782 11.9049 62.5101 10.6557 63.1022 9.80107C63.3845 9.39375 63.5749 8.83179 63.7088 8.00983C63.8163 7.35104 64.0327 6.45497 64.1899 6.01852C64.4594 5.27022 64.462 5.15981 64.2363 4.07936C64.0667 3.26808 64.0458 2.91306 64.1648 2.86258C64.4731 2.73205 65.7018 2.95774 65.9721 3.19442Z" stroke="#6386FF" stroke-width="0.6" mask="url(#path-1-outside-1_453_887)"/>
</svg>
