<svg width="50" height="60" viewBox="0 0 50 60" fill="none" xmlns="http://www.w3.org/2000/svg">
<path fill-rule="evenodd" clip-rule="evenodd" d="M15.6597 0.341963L15.2744 0.683926V3.73101C15.2744 6.7775 15.2745 6.7782 15.5547 7.07458C15.9067 7.44678 16.4244 7.56514 16.8804 7.37752C17.529 7.11067 17.5749 6.86692 17.5749 3.68964C17.5749 1.93529 17.5274 0.716622 17.4534 0.579509C17.3003 0.295204 16.7351 0 16.3438 0C16.1795 0 15.8716 0.153872 15.6597 0.341963ZM21.2794 0.398449L20.8783 0.796898V5.6779C20.8783 10.8819 20.8969 11.0639 21.4617 11.364C21.9111 11.603 22.5247 11.5079 22.8929 11.1422L23.2378 10.7996V5.87408C23.2378 0.581384 23.2262 0.472865 22.6308 0.166997C22.101 -0.10512 21.7207 -0.0399621 21.2794 0.398449ZM31.8638 2.81774C28.3031 3.74401 26.1169 7.34025 26.9584 10.8867C27.238 12.0646 27.8909 13.1896 28.8358 14.1215C30.1628 15.4303 31.6896 16.0552 33.5607 16.0552C35.4854 16.0552 36.9871 15.4318 38.3497 14.0672C39.7183 12.6968 40.3444 11.2125 40.3444 9.33824C40.3444 4.92542 36.1522 1.70208 31.8638 2.81774ZM34.9346 5.15699C35.9257 5.46742 36.7145 6.06393 37.2765 6.92786C38.7478 9.18894 37.8732 12.1939 35.41 13.341C34.825 13.6134 34.5917 13.6527 33.5607 13.6527C32.5268 13.6527 32.2973 13.6138 31.7043 13.3377C30.8407 12.9356 29.9821 12.0827 29.5419 11.1892C29.2341 10.5646 29.1965 10.3678 29.1961 9.37527C29.1956 8.37235 29.2318 8.18637 29.5607 7.50022C30.5506 5.43473 32.7544 4.47388 34.9346 5.15699ZM14.9794 12.9481C12.4859 13.505 10.4215 15.5341 9.83756 18.002C9.70106 18.579 9.66367 19.1267 9.70625 19.9225C9.77657 21.2342 10.0748 22.1791 10.7421 23.2046C10.9962 23.5952 11.2042 23.9394 11.2042 23.9695C11.2042 23.9995 9.80288 24.0241 8.09021 24.0241C5.3173 24.0241 4.89329 24.0496 4.21799 24.2568C2.0549 24.9204 0.407358 26.8527 0.118434 29.0646C-0.00803711 30.0322 -0.0469692 36.3187 0.0698274 36.8988C0.249623 37.7915 1.27956 38.1561 1.96594 37.57L2.29699 37.2874L2.36211 33.2046C2.41803 29.7055 2.45684 29.0444 2.63404 28.579C2.93524 27.7875 3.55627 27.1334 4.39602 26.723L5.12842 26.3651L22.5299 26.3958L39.9314 26.4265L40.5013 26.7157C41.1854 27.0629 41.8136 27.7258 42.1568 28.4631C42.3937 28.9719 42.4112 29.2191 42.4462 32.5426L42.4834 36.0806L35.8396 36.1209C29.3404 36.1605 29.1785 36.1671 28.4111 36.4221C25.0139 37.5514 23.359 41.3666 24.9024 44.5107C25.3746 45.4726 26.464 46.6232 27.3434 47.0888C28.7023 47.8083 28.769 47.8139 35.9528 47.8139H42.4835L42.4462 51.3618L42.409 54.9098L42.018 55.6983C41.7414 56.2558 41.4677 56.6075 41.0833 56.8992C40.0154 57.709 41.172 57.6644 22.17 57.6301L5.01044 57.5993L4.46457 57.3321C3.70987 56.9629 3.08731 56.3279 2.723 55.5563L2.41496 54.9039L2.35597 50.7624L2.29699 46.6209L2.01667 46.3955C1.57131 46.0376 1.18258 45.9921 0.711855 46.2428C0.00541206 46.619 -0.028683 46.8692 0.0267659 51.271C0.0718328 54.8496 0.0946025 55.1966 0.331971 55.9176C0.821691 57.4051 1.90377 58.6545 3.32008 59.3674C4.62666 60.0251 3.70492 59.9981 24.9619 60C37.8059 60.0011 44.7782 59.9605 45.1943 59.8821C47.2309 59.4984 49.0045 57.935 49.6919 55.9176L49.9573 55.1383L49.9928 42.6575C50.0152 34.7985 49.9845 29.8193 49.9099 29.2119C49.6148 26.8077 47.9938 24.9005 45.6613 24.213C45.0909 24.0449 43.7342 24.0241 33.2894 24.0241H21.5582L21.8604 23.6304C23.8759 21.0055 23.6052 17.1232 21.243 14.7768C19.6467 13.1911 17.152 12.4628 14.9794 12.9481ZM18.223 15.5123C19.1399 15.9293 20.0668 16.8393 20.4802 17.7284C20.7783 18.3696 20.8193 18.592 20.8193 19.5709C20.8193 20.5282 20.7761 20.7745 20.5114 21.3287C20.0869 22.2172 19.3722 22.9769 18.5526 23.4108C16.3105 24.5979 13.5958 23.7306 12.4761 21.4694C12.1167 20.7438 12.089 20.6036 12.089 19.514C12.089 18.464 12.1241 18.2695 12.4215 17.6678C12.9952 16.5073 14.1773 15.5496 15.4214 15.2374C16.1664 15.0505 17.4938 15.1807 18.223 15.5123ZM45.6338 26.7284C46.4473 27.1322 47.0726 27.802 47.3854 28.6048C47.5551 29.04 47.5942 29.6744 47.6322 32.6084L47.6773 36.0948H46.2524H44.8275L44.8265 32.9013C44.8256 29.1599 44.7455 28.5039 44.1405 27.2762L43.6929 26.368H44.3004C44.7425 26.368 45.1053 26.466 45.6338 26.7284ZM47.6312 41.9836L47.6624 45.4701H38.5975C28.4469 45.4701 28.9054 45.5063 27.8988 44.6261C27.6002 44.365 27.2134 43.8811 27.0392 43.5508C26.6073 42.7317 26.5827 41.3485 26.9855 40.5363C27.4828 39.5336 28.4662 38.7704 29.5311 38.5603C29.8008 38.507 33.9766 38.4711 38.8107 38.4803L47.5999 38.4972L47.6312 41.9836ZM0.743118 40.9533C-0.009689 41.2785 -0.159637 42.2514 0.458441 42.8C0.966684 43.2511 1.54677 43.245 2.01113 42.7837C2.61564 42.1832 2.40788 41.1803 1.62275 40.9084C1.18046 40.7552 1.20417 40.7541 0.743118 40.9533ZM29.3755 40.9878C28.7937 41.2785 28.5678 41.8919 28.836 42.4533C29.1909 43.1962 30.1 43.3591 30.6794 42.7837C31.2839 42.1832 31.0761 41.1803 30.291 40.9084C29.829 40.7484 29.8596 40.7458 29.3755 40.9878ZM47.5999 51.3882V54.9039L47.2919 55.5563C46.7209 56.7657 45.6613 57.5091 44.3385 57.6283L43.6169 57.6932L43.9267 57.1682C44.0971 56.8793 44.3525 56.3308 44.4944 55.9493C44.735 55.302 44.7555 55.0057 44.7999 51.5311L44.8475 47.8066L46.2237 47.8395L47.5999 47.8725V51.3882Z" fill="url(#paint0_linear_472_736)"/>
<defs>
<linearGradient id="paint0_linear_472_736" x1="10.5274" y1="1.0156e-06" x2="47.9496" y2="53.943" gradientUnits="userSpaceOnUse">
<stop stop-color="#6386FF"/>
<stop offset="1" stop-color="#938AFF"/>
</linearGradient>
</defs>
</svg>
