<svg width="62" height="62" viewBox="0 0 62 62" fill="none" xmlns="http://www.w3.org/2000/svg">
<mask id="path-1-outside-1_472_722" maskUnits="userSpaceOnUse" x="-0.333336" y="0.333344" width="62" height="62" fill="black">
<rect fill="white" x="-0.333336" y="0.333344" width="62" height="62"/>
<path fill-rule="evenodd" clip-rule="evenodd" d="M29.6566 1.48593C28.6034 1.8792 27.9292 2.69566 27.7191 3.83263C27.6497 4.20864 27.5928 5.24938 27.5928 6.14541C27.5928 7.04156 27.5431 7.86729 27.4826 7.98054C27.4219 8.09391 27.1712 8.27206 26.9253 8.37675C26.6794 8.48131 25.9041 8.81168 25.2026 9.11094C24.2842 9.5028 23.8425 9.63401 23.6251 9.57944C23.459 9.53766 22.6868 8.88092 21.9089 8.11997C21.1311 7.3589 20.3121 6.64266 20.0892 6.52812C19.8663 6.41369 19.3629 6.29422 18.9704 6.26277C17.7138 6.16184 17.4314 6.35443 14.4868 9.31996C12.1474 11.6764 11.8805 11.9858 11.6951 12.5569C11.4482 13.3174 11.5108 14.0908 11.8782 14.8221C12.0271 15.1184 12.9218 16.1205 14.0334 17.2359C15.7613 18.9699 15.9704 19.1426 16.3369 19.1392C16.7834 19.1351 17.0434 18.9795 17.249 18.5933C17.5464 18.0345 17.4335 17.8583 15.5739 15.9826C13.7631 14.1561 13.4543 13.729 13.5806 13.2254C13.6176 13.078 14.7162 11.8934 16.0218 10.5931C18.1274 8.49598 18.4387 8.22864 18.7751 8.22864C19.1022 8.22864 19.3689 8.43636 20.7121 9.73764C22.0209 11.0057 22.3693 11.2797 22.8934 11.4539C23.7441 11.7366 24.3802 11.6406 25.8538 11.0072C26.5198 10.721 27.3094 10.3964 27.6084 10.2859C28.377 10.0018 28.9859 9.45691 29.3079 8.76509C29.5612 8.22089 29.5852 8.01434 29.5868 6.3509C29.5877 5.35042 29.6436 4.33386 29.7107 4.09199C29.9272 3.31238 30.0768 3.28433 33.8122 3.32376C37.0436 3.35779 37.0937 3.36202 37.357 3.62537C37.6117 3.88004 37.6267 3.99658 37.6827 6.15797L37.7414 8.42369L38.0973 9.00098C38.534 9.70888 38.9788 10.0063 40.5925 10.6689C43.2087 11.7432 43.4131 11.784 44.4325 11.4366C44.8903 11.2805 45.3197 10.9372 46.5608 9.73494C47.9072 8.43038 48.1669 8.22864 48.4983 8.22864C48.8398 8.22864 49.143 8.4907 51.3187 10.6669C53.5012 12.8501 53.7562 13.1456 53.7562 13.4908C53.7562 13.8253 53.5649 14.073 52.3074 15.3654C50.7148 17.0022 50.4809 17.3538 50.3902 18.2467C50.3234 18.9045 50.3926 19.1382 51.3515 21.4901C51.9972 23.074 52.2788 23.4828 53.0269 23.9228C53.5676 24.2407 53.6317 24.2494 55.8357 24.3067C57.9866 24.3627 58.1036 24.3779 58.3582 24.6325C58.6215 24.8959 58.6257 24.946 58.6597 28.1784C58.6991 31.9149 58.6711 32.0645 57.8917 32.281C57.6499 32.3482 56.6336 32.404 55.6334 32.405C53.9705 32.4066 53.764 32.4305 53.2199 32.6839C52.5283 33.0061 51.9836 33.6152 51.6995 34.384C51.5891 34.683 51.2646 35.4728 50.9784 36.1391C50.3452 37.6131 50.2493 38.2493 50.5319 39.1003C50.706 39.6245 50.98 39.973 52.2477 41.2822C53.5486 42.6258 53.7562 42.8926 53.7562 43.2198C53.7562 43.5562 53.489 43.8676 51.3925 45.9738C50.0925 47.2798 48.9082 48.3787 48.7609 48.4157C48.2574 48.5421 47.8305 48.2332 46.0044 46.4219C44.4061 44.8364 44.1304 44.6098 43.7993 44.6098C43.2616 44.6098 42.845 45.0551 42.845 45.6302C42.845 46.0485 42.9568 46.1855 44.7515 47.9681C45.851 49.0601 46.8725 49.97 47.1647 50.1175C47.8946 50.486 48.6681 50.5489 49.4292 50.3018C50.0002 50.1163 50.3095 49.8493 52.6652 47.5092C55.6299 44.5639 55.8224 44.2814 55.7215 43.0244C55.6901 42.6318 55.5707 42.1282 55.4563 41.9052C55.3418 41.6823 54.6257 40.8631 53.8649 40.085C53.1041 39.3069 52.4473 38.5335 52.4053 38.3663C52.3528 38.1569 52.4378 37.8117 52.6785 37.2578C52.8708 36.8154 53.1972 36.0431 53.404 35.5416C53.6107 35.0401 53.8767 34.5781 53.995 34.5147C54.1134 34.4513 54.943 34.3996 55.8389 34.3996C58.4396 34.3996 59.342 34.1254 60.0756 33.1124C60.654 32.3137 60.6951 31.9559 60.6559 28.0622C60.6215 24.6527 60.6077 24.4605 60.3661 24.0134C60.0359 23.4025 59.4468 22.8446 58.8599 22.5871C58.4856 22.4228 57.9746 22.373 56.3374 22.3413C55.1976 22.3193 54.1719 22.2456 54.0319 22.1758C53.8931 22.1065 53.6987 21.8578 53.5997 21.6232C52.4339 18.8589 52.3409 18.6014 52.4095 18.3231C52.4495 18.1608 53.1052 17.3943 53.8666 16.6198C54.6282 15.8452 55.3441 15.029 55.4578 14.806C55.5714 14.583 55.6904 14.0744 55.7225 13.6756C55.8251 12.3969 55.538 11.9604 52.7817 9.20424C50.2048 6.6274 49.653 6.23695 48.5855 6.23472C47.4992 6.23237 47.024 6.50758 45.4297 8.06258C44.6093 8.86261 43.8157 9.53648 43.6428 9.57991C43.4183 9.63635 43.0767 9.54317 42.4138 9.24473C41.9089 9.01752 41.1899 8.71767 40.8161 8.57849C39.6974 8.16186 39.7062 8.18334 39.6541 5.72444C39.618 4.01782 39.5679 3.49945 39.4025 3.12355C39.1441 2.53605 38.5863 1.94703 37.976 1.6169C37.5263 1.37373 37.3521 1.36211 33.811 1.33899C30.8147 1.31928 30.0284 1.34721 29.6566 1.48593ZM31.269 15.554C28.8826 16.0076 26.1121 17.4298 24.725 18.9133C24.0922 19.5899 24.022 20.0415 24.4784 20.4979C24.9752 20.995 25.4285 20.8968 26.3617 20.0896C30.9648 16.1082 37.6325 16.4185 41.7346 20.8051C43.4137 22.6007 44.3516 24.671 44.6349 27.2081C44.9651 30.1629 43.9298 33.3326 41.8802 35.6422C41.5075 36.0622 41.1964 36.4958 41.189 36.6057C41.1387 37.3481 41.5015 37.803 42.1436 37.803C42.5158 37.803 42.6621 37.7108 43.2155 37.1282C44.8764 35.3793 46.1267 32.7713 46.4875 30.3038C46.7133 28.7583 46.5776 26.2522 46.1987 24.9742C45.4814 22.5542 44.4569 20.7854 42.83 19.158C41.2052 17.5326 39.4453 16.512 37.0155 15.7859C36.1204 15.5184 35.7215 15.4713 34.0456 15.4356C32.7387 15.4077 31.8366 15.4462 31.269 15.554ZM17.4323 21.5965C17.1676 21.7168 16.7683 21.998 16.545 22.2214C15.9109 22.8555 15.7039 23.4029 15.6228 24.6588C15.5832 25.272 15.5106 25.8623 15.4616 25.9705C15.3696 26.1736 14.7202 26.5159 13.9595 26.7624C13.4153 26.9386 13.2367 26.8527 12.2614 25.9447C11.1208 24.8827 9.95259 24.6377 8.73287 25.2042C8.49083 25.3166 7.51399 26.1736 6.56225 27.1086C4.55364 29.0817 4.24508 29.5638 4.24508 30.7295C4.24508 31.7075 4.46072 32.1838 5.2983 33.0563C6.18634 33.9814 6.23866 34.1973 5.82873 35.2424C5.43663 36.2422 5.17218 36.3934 3.80886 36.3973C2.74707 36.4003 2.14801 36.6223 1.52736 37.2433C0.701627 38.0693 0.666664 38.2372 0.666664 41.3824C0.666664 44.4924 0.682738 44.5728 1.47175 45.4123C2.09991 46.0805 2.64277 46.2901 3.8931 46.3468C4.50612 46.3747 5.10554 46.4489 5.22521 46.5118C5.48673 46.6493 6.12228 48.0041 6.12228 48.4243C6.12228 48.6278 5.89431 48.9683 5.40824 49.4909C4.53487 50.43 4.22161 51.0932 4.22161 52.0033C4.22161 53.1483 4.51387 53.6107 6.46428 55.552C8.43464 57.5131 8.81324 57.7487 9.994 57.7487C10.9745 57.7487 11.4795 57.5159 12.4895 56.598C13.0178 56.1178 13.3821 55.8762 13.5773 55.8762C13.9931 55.8762 15.3473 56.5135 15.484 56.7735C15.5469 56.8932 15.621 57.4928 15.6489 58.106C15.7056 59.3567 15.9152 59.8997 16.5832 60.528C17.4224 61.3173 17.5028 61.3333 20.6119 61.3333C23.7471 61.3333 23.9259 61.2967 24.7342 60.488C25.3753 59.8468 25.5194 59.4546 25.5961 58.1399C25.6563 57.1098 25.7037 56.9015 25.9335 56.6567C26.2075 56.3651 27.3231 55.8762 27.7149 55.8762C27.8351 55.8762 28.2924 56.199 28.731 56.5937C29.7296 57.492 30.3365 57.7774 31.2481 57.7774C32.3725 57.7774 32.9152 57.4318 34.8235 55.5003C35.7352 54.5775 36.5942 53.5981 36.7321 53.324C37.3549 52.0874 37.1303 50.9014 36.0547 49.7454C35.2373 48.8669 35.058 48.5546 35.1533 48.175C35.2881 47.6377 35.8243 46.6228 36.0203 46.5339C36.128 46.4849 36.7177 46.4125 37.3307 46.373C38.5863 46.2919 39.1335 46.0847 39.7675 45.4505C40.5573 44.6606 40.6107 44.4027 40.6107 41.3824C40.6107 38.9179 40.5899 38.6373 40.3717 38.155C39.8314 36.9612 38.8787 36.3987 37.3894 36.3941C36.8732 36.3926 36.3188 36.326 36.1575 36.2462C35.8007 36.0699 35.1777 34.8478 35.1744 34.3174C35.1724 34.0203 35.3084 33.7988 35.826 33.2559C36.9734 32.0529 37.2793 31.1103 36.9256 29.8698C36.7387 29.2146 36.6221 29.0714 34.7708 27.2225C32.9272 25.3812 32.7736 25.2563 32.1213 25.0672C30.8843 24.7087 29.941 25.0143 28.7361 26.1639C28.1879 26.6869 27.9728 26.8182 27.6637 26.8182C27.1352 26.8182 25.9265 26.1967 25.7466 25.8324C25.6669 25.671 25.6003 25.1165 25.5988 24.6001C25.5942 23.1104 25.0319 22.1574 23.8384 21.617C23.3563 21.3987 23.0757 21.378 20.6119 21.378C18.2303 21.378 17.8569 21.4037 17.4323 21.5965ZM23.2653 23.59C23.5073 23.7859 23.5487 23.9486 23.6173 24.9711C23.6601 25.6086 23.7827 26.3405 23.8899 26.5975C24.1748 27.2817 24.8127 27.8725 25.716 28.289C27.5913 29.1537 28.5939 29.0327 29.9262 27.781C30.8011 26.9592 31.1864 26.7983 31.6709 27.0525C32.1766 27.3179 34.9558 30.1965 35.0434 30.5456C35.145 30.9505 34.9762 31.2575 34.2016 32.0774C32.933 33.4199 32.8306 34.5791 33.8104 36.5059C34.4777 37.8183 35.228 38.2557 37.0185 38.3762C38.6782 38.4876 38.6213 38.3812 38.6213 41.3733C38.6213 44.3998 38.6699 44.3238 36.6854 44.4041C35.0576 44.4701 34.2397 45.0807 33.5707 46.7295C32.8801 48.4315 33.0445 49.4629 34.2016 50.6874C35.4502 52.009 35.4211 52.1219 33.2913 54.2164C31.85 55.6338 31.6876 55.7588 31.289 55.7588C30.9231 55.7588 30.7367 55.6503 30.0989 55.0657C28.7224 53.804 27.8222 53.6086 26.225 54.2248C24.9824 54.704 24.4425 55.1088 24.0281 55.8711C23.744 56.3937 23.6816 56.6647 23.6385 57.5638C23.6103 58.1525 23.5323 58.7471 23.4653 58.8852C23.2484 59.3316 22.8765 59.3969 20.5543 59.3969C18.3798 59.3969 18.3309 59.3915 18.008 59.1137C17.6966 58.8459 17.6752 58.764 17.6116 57.6045C17.5549 56.5711 17.4968 56.2976 17.2414 55.8633C16.8154 55.1387 16.5152 54.8918 15.4472 54.3876C14.6251 53.9996 14.4038 53.9456 13.6311 53.945C12.5712 53.9443 12.234 54.1 11.1922 55.0712C10.5682 55.6531 10.3879 55.7588 10.0205 55.7588C9.61844 55.7588 9.46229 55.635 7.91301 54.088C6.35822 52.5356 6.2396 52.3862 6.2396 51.9799C6.2396 51.6087 6.34367 51.4309 6.92701 50.8048C7.89799 49.7627 8.05356 49.4254 8.05286 48.3652C8.05227 47.5923 7.9983 47.371 7.61043 46.5486C7.1064 45.4803 6.85955 45.18 6.13518 44.7539C5.70096 44.4984 5.4276 44.4403 4.39443 44.3836C3.23526 44.32 3.15337 44.2985 2.88563 43.9871C2.60792 43.6641 2.60253 43.6152 2.60253 41.44C2.60253 39.1172 2.66788 38.7451 3.11406 38.5282C3.25216 38.4612 3.84664 38.3832 4.43514 38.3549C6.26483 38.2671 7.04175 37.665 7.77316 35.7677C8.38911 34.1704 8.18074 33.2179 6.92056 31.8705C6.33886 31.2485 6.2396 31.0775 6.2396 30.698C6.2396 30.2862 6.34942 30.1423 7.7355 28.7374C8.5583 27.9036 9.38227 27.1421 9.5667 27.0454C10.0511 26.7913 10.3799 26.9229 11.2249 27.7091C12.1266 28.5483 12.6443 28.7908 13.5724 28.8084C14.1208 28.8188 14.49 28.7352 15.2434 28.4292C16.8996 27.7567 17.5254 26.9236 17.591 25.3043C17.6402 24.0915 17.6875 23.8931 17.9957 23.6059C18.2347 23.3831 18.4023 23.3679 20.6211 23.3679C22.7714 23.3679 23.0165 23.3884 23.2653 23.59ZM18.4164 32.644C12.8964 34.0016 10.036 40.2656 12.6042 45.3726C13.8019 47.7543 15.7877 49.3582 18.4491 50.0932C19.5961 50.41 21.8476 50.3782 23.0757 50.028C24.5523 49.6069 26.3739 48.5138 27.4954 47.3759C28.1784 46.6829 28.9358 45.1477 29.311 43.6958C29.5739 42.6784 29.5994 42.392 29.548 41.0303C29.4887 39.4632 29.3371 38.7833 28.7626 37.5096C27.728 35.2158 25.3842 33.3132 22.75 32.6288C21.6119 32.333 19.6529 32.3399 18.4164 32.644ZM22.3131 34.5739C24.7953 35.2338 26.8469 37.2934 27.4124 39.6928C28.6015 44.739 24.1799 49.2667 19.1117 48.1924C16.8096 47.7044 14.8164 45.9326 14.0224 43.6682C12.6734 39.8214 14.9286 35.6307 18.9107 34.5845C19.7544 34.363 21.4989 34.3574 22.3131 34.5739Z"/>
</mask>
<path fill-rule="evenodd" clip-rule="evenodd" d="M29.6566 1.48593C28.6034 1.8792 27.9292 2.69566 27.7191 3.83263C27.6497 4.20864 27.5928 5.24938 27.5928 6.14541C27.5928 7.04156 27.5431 7.86729 27.4826 7.98054C27.4219 8.09391 27.1712 8.27206 26.9253 8.37675C26.6794 8.48131 25.9041 8.81168 25.2026 9.11094C24.2842 9.5028 23.8425 9.63401 23.6251 9.57944C23.459 9.53766 22.6868 8.88092 21.9089 8.11997C21.1311 7.3589 20.3121 6.64266 20.0892 6.52812C19.8663 6.41369 19.3629 6.29422 18.9704 6.26277C17.7138 6.16184 17.4314 6.35443 14.4868 9.31996C12.1474 11.6764 11.8805 11.9858 11.6951 12.5569C11.4482 13.3174 11.5108 14.0908 11.8782 14.8221C12.0271 15.1184 12.9218 16.1205 14.0334 17.2359C15.7613 18.9699 15.9704 19.1426 16.3369 19.1392C16.7834 19.1351 17.0434 18.9795 17.249 18.5933C17.5464 18.0345 17.4335 17.8583 15.5739 15.9826C13.7631 14.1561 13.4543 13.729 13.5806 13.2254C13.6176 13.078 14.7162 11.8934 16.0218 10.5931C18.1274 8.49598 18.4387 8.22864 18.7751 8.22864C19.1022 8.22864 19.3689 8.43636 20.7121 9.73764C22.0209 11.0057 22.3693 11.2797 22.8934 11.4539C23.7441 11.7366 24.3802 11.6406 25.8538 11.0072C26.5198 10.721 27.3094 10.3964 27.6084 10.2859C28.377 10.0018 28.9859 9.45691 29.3079 8.76509C29.5612 8.22089 29.5852 8.01434 29.5868 6.3509C29.5877 5.35042 29.6436 4.33386 29.7107 4.09199C29.9272 3.31238 30.0768 3.28433 33.8122 3.32376C37.0436 3.35779 37.0937 3.36202 37.357 3.62537C37.6117 3.88004 37.6267 3.99658 37.6827 6.15797L37.7414 8.42369L38.0973 9.00098C38.534 9.70888 38.9788 10.0063 40.5925 10.6689C43.2087 11.7432 43.4131 11.784 44.4325 11.4366C44.8903 11.2805 45.3197 10.9372 46.5608 9.73494C47.9072 8.43038 48.1669 8.22864 48.4983 8.22864C48.8398 8.22864 49.143 8.4907 51.3187 10.6669C53.5012 12.8501 53.7562 13.1456 53.7562 13.4908C53.7562 13.8253 53.5649 14.073 52.3074 15.3654C50.7148 17.0022 50.4809 17.3538 50.3902 18.2467C50.3234 18.9045 50.3926 19.1382 51.3515 21.4901C51.9972 23.074 52.2788 23.4828 53.0269 23.9228C53.5676 24.2407 53.6317 24.2494 55.8357 24.3067C57.9866 24.3627 58.1036 24.3779 58.3582 24.6325C58.6215 24.8959 58.6257 24.946 58.6597 28.1784C58.6991 31.9149 58.6711 32.0645 57.8917 32.281C57.6499 32.3482 56.6336 32.404 55.6334 32.405C53.9705 32.4066 53.764 32.4305 53.2199 32.6839C52.5283 33.0061 51.9836 33.6152 51.6995 34.384C51.5891 34.683 51.2646 35.4728 50.9784 36.1391C50.3452 37.6131 50.2493 38.2493 50.5319 39.1003C50.706 39.6245 50.98 39.973 52.2477 41.2822C53.5486 42.6258 53.7562 42.8926 53.7562 43.2198C53.7562 43.5562 53.489 43.8676 51.3925 45.9738C50.0925 47.2798 48.9082 48.3787 48.7609 48.4157C48.2574 48.5421 47.8305 48.2332 46.0044 46.4219C44.4061 44.8364 44.1304 44.6098 43.7993 44.6098C43.2616 44.6098 42.845 45.0551 42.845 45.6302C42.845 46.0485 42.9568 46.1855 44.7515 47.9681C45.851 49.0601 46.8725 49.97 47.1647 50.1175C47.8946 50.486 48.6681 50.5489 49.4292 50.3018C50.0002 50.1163 50.3095 49.8493 52.6652 47.5092C55.6299 44.5639 55.8224 44.2814 55.7215 43.0244C55.6901 42.6318 55.5707 42.1282 55.4563 41.9052C55.3418 41.6823 54.6257 40.8631 53.8649 40.085C53.1041 39.3069 52.4473 38.5335 52.4053 38.3663C52.3528 38.1569 52.4378 37.8117 52.6785 37.2578C52.8708 36.8154 53.1972 36.0431 53.404 35.5416C53.6107 35.0401 53.8767 34.5781 53.995 34.5147C54.1134 34.4513 54.943 34.3996 55.8389 34.3996C58.4396 34.3996 59.342 34.1254 60.0756 33.1124C60.654 32.3137 60.6951 31.9559 60.6559 28.0622C60.6215 24.6527 60.6077 24.4605 60.3661 24.0134C60.0359 23.4025 59.4468 22.8446 58.8599 22.5871C58.4856 22.4228 57.9746 22.373 56.3374 22.3413C55.1976 22.3193 54.1719 22.2456 54.0319 22.1758C53.8931 22.1065 53.6987 21.8578 53.5997 21.6232C52.4339 18.8589 52.3409 18.6014 52.4095 18.3231C52.4495 18.1608 53.1052 17.3943 53.8666 16.6198C54.6282 15.8452 55.3441 15.029 55.4578 14.806C55.5714 14.583 55.6904 14.0744 55.7225 13.6756C55.8251 12.3969 55.538 11.9604 52.7817 9.20424C50.2048 6.6274 49.653 6.23695 48.5855 6.23472C47.4992 6.23237 47.024 6.50758 45.4297 8.06258C44.6093 8.86261 43.8157 9.53648 43.6428 9.57991C43.4183 9.63635 43.0767 9.54317 42.4138 9.24473C41.9089 9.01752 41.1899 8.71767 40.8161 8.57849C39.6974 8.16186 39.7062 8.18334 39.6541 5.72444C39.618 4.01782 39.5679 3.49945 39.4025 3.12355C39.1441 2.53605 38.5863 1.94703 37.976 1.6169C37.5263 1.37373 37.3521 1.36211 33.811 1.33899C30.8147 1.31928 30.0284 1.34721 29.6566 1.48593ZM31.269 15.554C28.8826 16.0076 26.1121 17.4298 24.725 18.9133C24.0922 19.5899 24.022 20.0415 24.4784 20.4979C24.9752 20.995 25.4285 20.8968 26.3617 20.0896C30.9648 16.1082 37.6325 16.4185 41.7346 20.8051C43.4137 22.6007 44.3516 24.671 44.6349 27.2081C44.9651 30.1629 43.9298 33.3326 41.8802 35.6422C41.5075 36.0622 41.1964 36.4958 41.189 36.6057C41.1387 37.3481 41.5015 37.803 42.1436 37.803C42.5158 37.803 42.6621 37.7108 43.2155 37.1282C44.8764 35.3793 46.1267 32.7713 46.4875 30.3038C46.7133 28.7583 46.5776 26.2522 46.1987 24.9742C45.4814 22.5542 44.4569 20.7854 42.83 19.158C41.2052 17.5326 39.4453 16.512 37.0155 15.7859C36.1204 15.5184 35.7215 15.4713 34.0456 15.4356C32.7387 15.4077 31.8366 15.4462 31.269 15.554ZM17.4323 21.5965C17.1676 21.7168 16.7683 21.998 16.545 22.2214C15.9109 22.8555 15.7039 23.4029 15.6228 24.6588C15.5832 25.272 15.5106 25.8623 15.4616 25.9705C15.3696 26.1736 14.7202 26.5159 13.9595 26.7624C13.4153 26.9386 13.2367 26.8527 12.2614 25.9447C11.1208 24.8827 9.95259 24.6377 8.73287 25.2042C8.49083 25.3166 7.51399 26.1736 6.56225 27.1086C4.55364 29.0817 4.24508 29.5638 4.24508 30.7295C4.24508 31.7075 4.46072 32.1838 5.2983 33.0563C6.18634 33.9814 6.23866 34.1973 5.82873 35.2424C5.43663 36.2422 5.17218 36.3934 3.80886 36.3973C2.74707 36.4003 2.14801 36.6223 1.52736 37.2433C0.701627 38.0693 0.666664 38.2372 0.666664 41.3824C0.666664 44.4924 0.682738 44.5728 1.47175 45.4123C2.09991 46.0805 2.64277 46.2901 3.8931 46.3468C4.50612 46.3747 5.10554 46.4489 5.22521 46.5118C5.48673 46.6493 6.12228 48.0041 6.12228 48.4243C6.12228 48.6278 5.89431 48.9683 5.40824 49.4909C4.53487 50.43 4.22161 51.0932 4.22161 52.0033C4.22161 53.1483 4.51387 53.6107 6.46428 55.552C8.43464 57.5131 8.81324 57.7487 9.994 57.7487C10.9745 57.7487 11.4795 57.5159 12.4895 56.598C13.0178 56.1178 13.3821 55.8762 13.5773 55.8762C13.9931 55.8762 15.3473 56.5135 15.484 56.7735C15.5469 56.8932 15.621 57.4928 15.6489 58.106C15.7056 59.3567 15.9152 59.8997 16.5832 60.528C17.4224 61.3173 17.5028 61.3333 20.6119 61.3333C23.7471 61.3333 23.9259 61.2967 24.7342 60.488C25.3753 59.8468 25.5194 59.4546 25.5961 58.1399C25.6563 57.1098 25.7037 56.9015 25.9335 56.6567C26.2075 56.3651 27.3231 55.8762 27.7149 55.8762C27.8351 55.8762 28.2924 56.199 28.731 56.5937C29.7296 57.492 30.3365 57.7774 31.2481 57.7774C32.3725 57.7774 32.9152 57.4318 34.8235 55.5003C35.7352 54.5775 36.5942 53.5981 36.7321 53.324C37.3549 52.0874 37.1303 50.9014 36.0547 49.7454C35.2373 48.8669 35.058 48.5546 35.1533 48.175C35.2881 47.6377 35.8243 46.6228 36.0203 46.5339C36.128 46.4849 36.7177 46.4125 37.3307 46.373C38.5863 46.2919 39.1335 46.0847 39.7675 45.4505C40.5573 44.6606 40.6107 44.4027 40.6107 41.3824C40.6107 38.9179 40.5899 38.6373 40.3717 38.155C39.8314 36.9612 38.8787 36.3987 37.3894 36.3941C36.8732 36.3926 36.3188 36.326 36.1575 36.2462C35.8007 36.0699 35.1777 34.8478 35.1744 34.3174C35.1724 34.0203 35.3084 33.7988 35.826 33.2559C36.9734 32.0529 37.2793 31.1103 36.9256 29.8698C36.7387 29.2146 36.6221 29.0714 34.7708 27.2225C32.9272 25.3812 32.7736 25.2563 32.1213 25.0672C30.8843 24.7087 29.941 25.0143 28.7361 26.1639C28.1879 26.6869 27.9728 26.8182 27.6637 26.8182C27.1352 26.8182 25.9265 26.1967 25.7466 25.8324C25.6669 25.671 25.6003 25.1165 25.5988 24.6001C25.5942 23.1104 25.0319 22.1574 23.8384 21.617C23.3563 21.3987 23.0757 21.378 20.6119 21.378C18.2303 21.378 17.8569 21.4037 17.4323 21.5965ZM23.2653 23.59C23.5073 23.7859 23.5487 23.9486 23.6173 24.9711C23.6601 25.6086 23.7827 26.3405 23.8899 26.5975C24.1748 27.2817 24.8127 27.8725 25.716 28.289C27.5913 29.1537 28.5939 29.0327 29.9262 27.781C30.8011 26.9592 31.1864 26.7983 31.6709 27.0525C32.1766 27.3179 34.9558 30.1965 35.0434 30.5456C35.145 30.9505 34.9762 31.2575 34.2016 32.0774C32.933 33.4199 32.8306 34.5791 33.8104 36.5059C34.4777 37.8183 35.228 38.2557 37.0185 38.3762C38.6782 38.4876 38.6213 38.3812 38.6213 41.3733C38.6213 44.3998 38.6699 44.3238 36.6854 44.4041C35.0576 44.4701 34.2397 45.0807 33.5707 46.7295C32.8801 48.4315 33.0445 49.4629 34.2016 50.6874C35.4502 52.009 35.4211 52.1219 33.2913 54.2164C31.85 55.6338 31.6876 55.7588 31.289 55.7588C30.9231 55.7588 30.7367 55.6503 30.0989 55.0657C28.7224 53.804 27.8222 53.6086 26.225 54.2248C24.9824 54.704 24.4425 55.1088 24.0281 55.8711C23.744 56.3937 23.6816 56.6647 23.6385 57.5638C23.6103 58.1525 23.5323 58.7471 23.4653 58.8852C23.2484 59.3316 22.8765 59.3969 20.5543 59.3969C18.3798 59.3969 18.3309 59.3915 18.008 59.1137C17.6966 58.8459 17.6752 58.764 17.6116 57.6045C17.5549 56.5711 17.4968 56.2976 17.2414 55.8633C16.8154 55.1387 16.5152 54.8918 15.4472 54.3876C14.6251 53.9996 14.4038 53.9456 13.6311 53.945C12.5712 53.9443 12.234 54.1 11.1922 55.0712C10.5682 55.6531 10.3879 55.7588 10.0205 55.7588C9.61844 55.7588 9.46229 55.635 7.91301 54.088C6.35822 52.5356 6.2396 52.3862 6.2396 51.9799C6.2396 51.6087 6.34367 51.4309 6.92701 50.8048C7.89799 49.7627 8.05356 49.4254 8.05286 48.3652C8.05227 47.5923 7.9983 47.371 7.61043 46.5486C7.1064 45.4803 6.85955 45.18 6.13518 44.7539C5.70096 44.4984 5.4276 44.4403 4.39443 44.3836C3.23526 44.32 3.15337 44.2985 2.88563 43.9871C2.60792 43.6641 2.60253 43.6152 2.60253 41.44C2.60253 39.1172 2.66788 38.7451 3.11406 38.5282C3.25216 38.4612 3.84664 38.3832 4.43514 38.3549C6.26483 38.2671 7.04175 37.665 7.77316 35.7677C8.38911 34.1704 8.18074 33.2179 6.92056 31.8705C6.33886 31.2485 6.2396 31.0775 6.2396 30.698C6.2396 30.2862 6.34942 30.1423 7.7355 28.7374C8.5583 27.9036 9.38227 27.1421 9.5667 27.0454C10.0511 26.7913 10.3799 26.9229 11.2249 27.7091C12.1266 28.5483 12.6443 28.7908 13.5724 28.8084C14.1208 28.8188 14.49 28.7352 15.2434 28.4292C16.8996 27.7567 17.5254 26.9236 17.591 25.3043C17.6402 24.0915 17.6875 23.8931 17.9957 23.6059C18.2347 23.3831 18.4023 23.3679 20.6211 23.3679C22.7714 23.3679 23.0165 23.3884 23.2653 23.59ZM18.4164 32.644C12.8964 34.0016 10.036 40.2656 12.6042 45.3726C13.8019 47.7543 15.7877 49.3582 18.4491 50.0932C19.5961 50.41 21.8476 50.3782 23.0757 50.028C24.5523 49.6069 26.3739 48.5138 27.4954 47.3759C28.1784 46.6829 28.9358 45.1477 29.311 43.6958C29.5739 42.6784 29.5994 42.392 29.548 41.0303C29.4887 39.4632 29.3371 38.7833 28.7626 37.5096C27.728 35.2158 25.3842 33.3132 22.75 32.6288C21.6119 32.333 19.6529 32.3399 18.4164 32.644ZM22.3131 34.5739C24.7953 35.2338 26.8469 37.2934 27.4124 39.6928C28.6015 44.739 24.1799 49.2667 19.1117 48.1924C16.8096 47.7044 14.8164 45.9326 14.0224 43.6682C12.6734 39.8214 14.9286 35.6307 18.9107 34.5845C19.7544 34.363 21.4989 34.3574 22.3131 34.5739Z" fill="url(#paint0_linear_472_722)"/>
<path fill-rule="evenodd" clip-rule="evenodd" d="M29.6566 1.48593C28.6034 1.8792 27.9292 2.69566 27.7191 3.83263C27.6497 4.20864 27.5928 5.24938 27.5928 6.14541C27.5928 7.04156 27.5431 7.86729 27.4826 7.98054C27.4219 8.09391 27.1712 8.27206 26.9253 8.37675C26.6794 8.48131 25.9041 8.81168 25.2026 9.11094C24.2842 9.5028 23.8425 9.63401 23.6251 9.57944C23.459 9.53766 22.6868 8.88092 21.9089 8.11997C21.1311 7.3589 20.3121 6.64266 20.0892 6.52812C19.8663 6.41369 19.3629 6.29422 18.9704 6.26277C17.7138 6.16184 17.4314 6.35443 14.4868 9.31996C12.1474 11.6764 11.8805 11.9858 11.6951 12.5569C11.4482 13.3174 11.5108 14.0908 11.8782 14.8221C12.0271 15.1184 12.9218 16.1205 14.0334 17.2359C15.7613 18.9699 15.9704 19.1426 16.3369 19.1392C16.7834 19.1351 17.0434 18.9795 17.249 18.5933C17.5464 18.0345 17.4335 17.8583 15.5739 15.9826C13.7631 14.1561 13.4543 13.729 13.5806 13.2254C13.6176 13.078 14.7162 11.8934 16.0218 10.5931C18.1274 8.49598 18.4387 8.22864 18.7751 8.22864C19.1022 8.22864 19.3689 8.43636 20.7121 9.73764C22.0209 11.0057 22.3693 11.2797 22.8934 11.4539C23.7441 11.7366 24.3802 11.6406 25.8538 11.0072C26.5198 10.721 27.3094 10.3964 27.6084 10.2859C28.377 10.0018 28.9859 9.45691 29.3079 8.76509C29.5612 8.22089 29.5852 8.01434 29.5868 6.3509C29.5877 5.35042 29.6436 4.33386 29.7107 4.09199C29.9272 3.31238 30.0768 3.28433 33.8122 3.32376C37.0436 3.35779 37.0937 3.36202 37.357 3.62537C37.6117 3.88004 37.6267 3.99658 37.6827 6.15797L37.7414 8.42369L38.0973 9.00098C38.534 9.70888 38.9788 10.0063 40.5925 10.6689C43.2087 11.7432 43.4131 11.784 44.4325 11.4366C44.8903 11.2805 45.3197 10.9372 46.5608 9.73494C47.9072 8.43038 48.1669 8.22864 48.4983 8.22864C48.8398 8.22864 49.143 8.4907 51.3187 10.6669C53.5012 12.8501 53.7562 13.1456 53.7562 13.4908C53.7562 13.8253 53.5649 14.073 52.3074 15.3654C50.7148 17.0022 50.4809 17.3538 50.3902 18.2467C50.3234 18.9045 50.3926 19.1382 51.3515 21.4901C51.9972 23.074 52.2788 23.4828 53.0269 23.9228C53.5676 24.2407 53.6317 24.2494 55.8357 24.3067C57.9866 24.3627 58.1036 24.3779 58.3582 24.6325C58.6215 24.8959 58.6257 24.946 58.6597 28.1784C58.6991 31.9149 58.6711 32.0645 57.8917 32.281C57.6499 32.3482 56.6336 32.404 55.6334 32.405C53.9705 32.4066 53.764 32.4305 53.2199 32.6839C52.5283 33.0061 51.9836 33.6152 51.6995 34.384C51.5891 34.683 51.2646 35.4728 50.9784 36.1391C50.3452 37.6131 50.2493 38.2493 50.5319 39.1003C50.706 39.6245 50.98 39.973 52.2477 41.2822C53.5486 42.6258 53.7562 42.8926 53.7562 43.2198C53.7562 43.5562 53.489 43.8676 51.3925 45.9738C50.0925 47.2798 48.9082 48.3787 48.7609 48.4157C48.2574 48.5421 47.8305 48.2332 46.0044 46.4219C44.4061 44.8364 44.1304 44.6098 43.7993 44.6098C43.2616 44.6098 42.845 45.0551 42.845 45.6302C42.845 46.0485 42.9568 46.1855 44.7515 47.9681C45.851 49.0601 46.8725 49.97 47.1647 50.1175C47.8946 50.486 48.6681 50.5489 49.4292 50.3018C50.0002 50.1163 50.3095 49.8493 52.6652 47.5092C55.6299 44.5639 55.8224 44.2814 55.7215 43.0244C55.6901 42.6318 55.5707 42.1282 55.4563 41.9052C55.3418 41.6823 54.6257 40.8631 53.8649 40.085C53.1041 39.3069 52.4473 38.5335 52.4053 38.3663C52.3528 38.1569 52.4378 37.8117 52.6785 37.2578C52.8708 36.8154 53.1972 36.0431 53.404 35.5416C53.6107 35.0401 53.8767 34.5781 53.995 34.5147C54.1134 34.4513 54.943 34.3996 55.8389 34.3996C58.4396 34.3996 59.342 34.1254 60.0756 33.1124C60.654 32.3137 60.6951 31.9559 60.6559 28.0622C60.6215 24.6527 60.6077 24.4605 60.3661 24.0134C60.0359 23.4025 59.4468 22.8446 58.8599 22.5871C58.4856 22.4228 57.9746 22.373 56.3374 22.3413C55.1976 22.3193 54.1719 22.2456 54.0319 22.1758C53.8931 22.1065 53.6987 21.8578 53.5997 21.6232C52.4339 18.8589 52.3409 18.6014 52.4095 18.3231C52.4495 18.1608 53.1052 17.3943 53.8666 16.6198C54.6282 15.8452 55.3441 15.029 55.4578 14.806C55.5714 14.583 55.6904 14.0744 55.7225 13.6756C55.8251 12.3969 55.538 11.9604 52.7817 9.20424C50.2048 6.6274 49.653 6.23695 48.5855 6.23472C47.4992 6.23237 47.024 6.50758 45.4297 8.06258C44.6093 8.86261 43.8157 9.53648 43.6428 9.57991C43.4183 9.63635 43.0767 9.54317 42.4138 9.24473C41.9089 9.01752 41.1899 8.71767 40.8161 8.57849C39.6974 8.16186 39.7062 8.18334 39.6541 5.72444C39.618 4.01782 39.5679 3.49945 39.4025 3.12355C39.1441 2.53605 38.5863 1.94703 37.976 1.6169C37.5263 1.37373 37.3521 1.36211 33.811 1.33899C30.8147 1.31928 30.0284 1.34721 29.6566 1.48593ZM31.269 15.554C28.8826 16.0076 26.1121 17.4298 24.725 18.9133C24.0922 19.5899 24.022 20.0415 24.4784 20.4979C24.9752 20.995 25.4285 20.8968 26.3617 20.0896C30.9648 16.1082 37.6325 16.4185 41.7346 20.8051C43.4137 22.6007 44.3516 24.671 44.6349 27.2081C44.9651 30.1629 43.9298 33.3326 41.8802 35.6422C41.5075 36.0622 41.1964 36.4958 41.189 36.6057C41.1387 37.3481 41.5015 37.803 42.1436 37.803C42.5158 37.803 42.6621 37.7108 43.2155 37.1282C44.8764 35.3793 46.1267 32.7713 46.4875 30.3038C46.7133 28.7583 46.5776 26.2522 46.1987 24.9742C45.4814 22.5542 44.4569 20.7854 42.83 19.158C41.2052 17.5326 39.4453 16.512 37.0155 15.7859C36.1204 15.5184 35.7215 15.4713 34.0456 15.4356C32.7387 15.4077 31.8366 15.4462 31.269 15.554ZM17.4323 21.5965C17.1676 21.7168 16.7683 21.998 16.545 22.2214C15.9109 22.8555 15.7039 23.4029 15.6228 24.6588C15.5832 25.272 15.5106 25.8623 15.4616 25.9705C15.3696 26.1736 14.7202 26.5159 13.9595 26.7624C13.4153 26.9386 13.2367 26.8527 12.2614 25.9447C11.1208 24.8827 9.95259 24.6377 8.73287 25.2042C8.49083 25.3166 7.51399 26.1736 6.56225 27.1086C4.55364 29.0817 4.24508 29.5638 4.24508 30.7295C4.24508 31.7075 4.46072 32.1838 5.2983 33.0563C6.18634 33.9814 6.23866 34.1973 5.82873 35.2424C5.43663 36.2422 5.17218 36.3934 3.80886 36.3973C2.74707 36.4003 2.14801 36.6223 1.52736 37.2433C0.701627 38.0693 0.666664 38.2372 0.666664 41.3824C0.666664 44.4924 0.682738 44.5728 1.47175 45.4123C2.09991 46.0805 2.64277 46.2901 3.8931 46.3468C4.50612 46.3747 5.10554 46.4489 5.22521 46.5118C5.48673 46.6493 6.12228 48.0041 6.12228 48.4243C6.12228 48.6278 5.89431 48.9683 5.40824 49.4909C4.53487 50.43 4.22161 51.0932 4.22161 52.0033C4.22161 53.1483 4.51387 53.6107 6.46428 55.552C8.43464 57.5131 8.81324 57.7487 9.994 57.7487C10.9745 57.7487 11.4795 57.5159 12.4895 56.598C13.0178 56.1178 13.3821 55.8762 13.5773 55.8762C13.9931 55.8762 15.3473 56.5135 15.484 56.7735C15.5469 56.8932 15.621 57.4928 15.6489 58.106C15.7056 59.3567 15.9152 59.8997 16.5832 60.528C17.4224 61.3173 17.5028 61.3333 20.6119 61.3333C23.7471 61.3333 23.9259 61.2967 24.7342 60.488C25.3753 59.8468 25.5194 59.4546 25.5961 58.1399C25.6563 57.1098 25.7037 56.9015 25.9335 56.6567C26.2075 56.3651 27.3231 55.8762 27.7149 55.8762C27.8351 55.8762 28.2924 56.199 28.731 56.5937C29.7296 57.492 30.3365 57.7774 31.2481 57.7774C32.3725 57.7774 32.9152 57.4318 34.8235 55.5003C35.7352 54.5775 36.5942 53.5981 36.7321 53.324C37.3549 52.0874 37.1303 50.9014 36.0547 49.7454C35.2373 48.8669 35.058 48.5546 35.1533 48.175C35.2881 47.6377 35.8243 46.6228 36.0203 46.5339C36.128 46.4849 36.7177 46.4125 37.3307 46.373C38.5863 46.2919 39.1335 46.0847 39.7675 45.4505C40.5573 44.6606 40.6107 44.4027 40.6107 41.3824C40.6107 38.9179 40.5899 38.6373 40.3717 38.155C39.8314 36.9612 38.8787 36.3987 37.3894 36.3941C36.8732 36.3926 36.3188 36.326 36.1575 36.2462C35.8007 36.0699 35.1777 34.8478 35.1744 34.3174C35.1724 34.0203 35.3084 33.7988 35.826 33.2559C36.9734 32.0529 37.2793 31.1103 36.9256 29.8698C36.7387 29.2146 36.6221 29.0714 34.7708 27.2225C32.9272 25.3812 32.7736 25.2563 32.1213 25.0672C30.8843 24.7087 29.941 25.0143 28.7361 26.1639C28.1879 26.6869 27.9728 26.8182 27.6637 26.8182C27.1352 26.8182 25.9265 26.1967 25.7466 25.8324C25.6669 25.671 25.6003 25.1165 25.5988 24.6001C25.5942 23.1104 25.0319 22.1574 23.8384 21.617C23.3563 21.3987 23.0757 21.378 20.6119 21.378C18.2303 21.378 17.8569 21.4037 17.4323 21.5965ZM23.2653 23.59C23.5073 23.7859 23.5487 23.9486 23.6173 24.9711C23.6601 25.6086 23.7827 26.3405 23.8899 26.5975C24.1748 27.2817 24.8127 27.8725 25.716 28.289C27.5913 29.1537 28.5939 29.0327 29.9262 27.781C30.8011 26.9592 31.1864 26.7983 31.6709 27.0525C32.1766 27.3179 34.9558 30.1965 35.0434 30.5456C35.145 30.9505 34.9762 31.2575 34.2016 32.0774C32.933 33.4199 32.8306 34.5791 33.8104 36.5059C34.4777 37.8183 35.228 38.2557 37.0185 38.3762C38.6782 38.4876 38.6213 38.3812 38.6213 41.3733C38.6213 44.3998 38.6699 44.3238 36.6854 44.4041C35.0576 44.4701 34.2397 45.0807 33.5707 46.7295C32.8801 48.4315 33.0445 49.4629 34.2016 50.6874C35.4502 52.009 35.4211 52.1219 33.2913 54.2164C31.85 55.6338 31.6876 55.7588 31.289 55.7588C30.9231 55.7588 30.7367 55.6503 30.0989 55.0657C28.7224 53.804 27.8222 53.6086 26.225 54.2248C24.9824 54.704 24.4425 55.1088 24.0281 55.8711C23.744 56.3937 23.6816 56.6647 23.6385 57.5638C23.6103 58.1525 23.5323 58.7471 23.4653 58.8852C23.2484 59.3316 22.8765 59.3969 20.5543 59.3969C18.3798 59.3969 18.3309 59.3915 18.008 59.1137C17.6966 58.8459 17.6752 58.764 17.6116 57.6045C17.5549 56.5711 17.4968 56.2976 17.2414 55.8633C16.8154 55.1387 16.5152 54.8918 15.4472 54.3876C14.6251 53.9996 14.4038 53.9456 13.6311 53.945C12.5712 53.9443 12.234 54.1 11.1922 55.0712C10.5682 55.6531 10.3879 55.7588 10.0205 55.7588C9.61844 55.7588 9.46229 55.635 7.91301 54.088C6.35822 52.5356 6.2396 52.3862 6.2396 51.9799C6.2396 51.6087 6.34367 51.4309 6.92701 50.8048C7.89799 49.7627 8.05356 49.4254 8.05286 48.3652C8.05227 47.5923 7.9983 47.371 7.61043 46.5486C7.1064 45.4803 6.85955 45.18 6.13518 44.7539C5.70096 44.4984 5.4276 44.4403 4.39443 44.3836C3.23526 44.32 3.15337 44.2985 2.88563 43.9871C2.60792 43.6641 2.60253 43.6152 2.60253 41.44C2.60253 39.1172 2.66788 38.7451 3.11406 38.5282C3.25216 38.4612 3.84664 38.3832 4.43514 38.3549C6.26483 38.2671 7.04175 37.665 7.77316 35.7677C8.38911 34.1704 8.18074 33.2179 6.92056 31.8705C6.33886 31.2485 6.2396 31.0775 6.2396 30.698C6.2396 30.2862 6.34942 30.1423 7.7355 28.7374C8.5583 27.9036 9.38227 27.1421 9.5667 27.0454C10.0511 26.7913 10.3799 26.9229 11.2249 27.7091C12.1266 28.5483 12.6443 28.7908 13.5724 28.8084C14.1208 28.8188 14.49 28.7352 15.2434 28.4292C16.8996 27.7567 17.5254 26.9236 17.591 25.3043C17.6402 24.0915 17.6875 23.8931 17.9957 23.6059C18.2347 23.3831 18.4023 23.3679 20.6211 23.3679C22.7714 23.3679 23.0165 23.3884 23.2653 23.59ZM18.4164 32.644C12.8964 34.0016 10.036 40.2656 12.6042 45.3726C13.8019 47.7543 15.7877 49.3582 18.4491 50.0932C19.5961 50.41 21.8476 50.3782 23.0757 50.028C24.5523 49.6069 26.3739 48.5138 27.4954 47.3759C28.1784 46.6829 28.9358 45.1477 29.311 43.6958C29.5739 42.6784 29.5994 42.392 29.548 41.0303C29.4887 39.4632 29.3371 38.7833 28.7626 37.5096C27.728 35.2158 25.3842 33.3132 22.75 32.6288C21.6119 32.333 19.6529 32.3399 18.4164 32.644ZM22.3131 34.5739C24.7953 35.2338 26.8469 37.2934 27.4124 39.6928C28.6015 44.739 24.1799 49.2667 19.1117 48.1924C16.8096 47.7044 14.8164 45.9326 14.0224 43.6682C12.6734 39.8214 14.9286 35.6307 18.9107 34.5845C19.7544 34.363 21.4989 34.3574 22.3131 34.5739Z" stroke="url(#paint1_linear_472_722)" stroke-width="0.779221" mask="url(#path-1-outside-1_472_722)"/>
<defs>
<linearGradient id="paint0_linear_472_722" x1="13.2995" y1="1.33334" x2="47.9219" y2="61.2219" gradientUnits="userSpaceOnUse">
<stop stop-color="#6386FF"/>
<stop offset="1" stop-color="#938AFF"/>
</linearGradient>
<linearGradient id="paint1_linear_472_722" x1="13.2995" y1="1.33334" x2="47.9219" y2="61.2219" gradientUnits="userSpaceOnUse">
<stop stop-color="#6386FF"/>
<stop offset="1" stop-color="#938AFF"/>
</linearGradient>
</defs>
</svg>
