<svg width="190" height="59" viewBox="0 0 190 59" fill="none" xmlns="http://www.w3.org/2000/svg">
<path d="M0 20C0 8.95431 8.95431 0 20 0H190V39C190 50.0457 181.046 59 170 59H0V20Z" fill="#6386FF"/>
<path d="M40.54 37L35.6 22.9H37.76L41.86 35.08H41.12L45.46 22.9H47.04L51.12 35.08H50.44L54.68 22.9H56.72L51.74 37H49.96L46 25.4H46.42L42.3 37H40.54ZM58.8042 37V26.92H60.8242V37H58.8042ZM58.6442 24.82V22.72H60.9842V24.82H58.6442ZM63.7047 32.32V30.7H69.5647V32.32H63.7047ZM72.617 37V22.9H81.657V24.56H74.697V29.08H81.197V30.74H74.697V37H72.617ZM83.7847 37V26.92H85.8047V37H83.7847ZM83.6247 24.82V22.72H85.9647V24.82H83.6247ZM94.2172 41.32V29.34C94.2172 28.9533 94.1972 28.56 94.1572 28.16C94.1305 27.7467 94.0972 27.3333 94.0572 26.92H96.0172L96.2172 29.2H95.9972C96.2105 28.44 96.6372 27.84 97.2772 27.4C97.9305 26.96 98.7039 26.74 99.5972 26.74C100.491 26.74 101.271 26.9533 101.937 27.38C102.604 27.7933 103.117 28.3867 103.477 29.16C103.851 29.9333 104.037 30.8667 104.037 31.96C104.037 33.04 103.851 33.9733 103.477 34.76C103.117 35.5467 102.604 36.1467 101.937 36.56C101.271 36.9733 100.491 37.18 99.5972 37.18C98.7172 37.18 97.9505 36.9667 97.2972 36.54C96.6572 36.1 96.2305 35.5067 96.0172 34.76H96.2372V41.32H94.2172ZM99.0972 35.6C99.9772 35.6 100.677 35.2933 101.197 34.68C101.731 34.0667 101.997 33.16 101.997 31.96C101.997 30.76 101.731 29.86 101.197 29.26C100.677 28.6467 99.9772 28.34 99.0972 28.34C98.2172 28.34 97.5105 28.6467 96.9772 29.26C96.4572 29.86 96.1972 30.76 96.1972 31.96C96.1972 33.16 96.4572 34.0667 96.9772 34.68C97.5105 35.2933 98.2172 35.6 99.0972 35.6ZM110.499 37.18C109.606 37.18 108.826 36.9733 108.159 36.56C107.492 36.1467 106.972 35.5467 106.599 34.76C106.239 33.9733 106.059 33.04 106.059 31.96C106.059 30.8667 106.239 29.9333 106.599 29.16C106.972 28.3867 107.492 27.7933 108.159 27.38C108.826 26.9533 109.606 26.74 110.499 26.74C111.379 26.74 112.146 26.96 112.799 27.4C113.452 27.84 113.886 28.44 114.099 29.2H113.879L114.079 26.92H116.039C115.999 27.3333 115.959 27.7467 115.919 28.16C115.892 28.56 115.879 28.9533 115.879 29.34V37H113.859V34.76H114.079C113.866 35.5067 113.426 36.1 112.759 36.54C112.106 36.9667 111.352 37.18 110.499 37.18ZM110.999 35.6C111.866 35.6 112.559 35.2933 113.079 34.68C113.612 34.0667 113.879 33.16 113.879 31.96C113.879 30.76 113.612 29.86 113.079 29.26C112.559 28.6467 111.866 28.34 110.999 28.34C110.119 28.34 109.412 28.6467 108.879 29.26C108.359 29.86 108.099 30.76 108.099 31.96C108.099 33.16 108.359 34.0667 108.879 34.68C109.399 35.2933 110.106 35.6 110.999 35.6ZM117.981 39.6V35.44H119.101C119.541 34.7733 119.861 33.9933 120.061 33.1C120.261 32.2067 120.361 31.1267 120.361 29.86V26.92H127.741V35.44H129.361V39.6H127.621V37H119.721V39.6H117.981ZM120.961 35.46H125.841V28.48H122.101V30.26C122.101 31.2333 122.001 32.1867 121.801 33.12C121.614 34.04 121.334 34.82 120.961 35.46ZM135.304 37.18C134.41 37.18 133.63 36.9733 132.964 36.56C132.297 36.1467 131.777 35.5467 131.404 34.76C131.044 33.9733 130.864 33.04 130.864 31.96C130.864 30.8667 131.044 29.9333 131.404 29.16C131.777 28.3867 132.297 27.7933 132.964 27.38C133.63 26.9533 134.41 26.74 135.304 26.74C136.184 26.74 136.95 26.96 137.604 27.4C138.257 27.84 138.69 28.44 138.904 29.2H138.684L138.884 26.92H140.844C140.804 27.3333 140.764 27.7467 140.724 28.16C140.697 28.56 140.684 28.9533 140.684 29.34V37H138.664V34.76H138.884C138.67 35.5067 138.23 36.1 137.564 36.54C136.91 36.9667 136.157 37.18 135.304 37.18ZM135.804 35.6C136.67 35.6 137.364 35.2933 137.884 34.68C138.417 34.0667 138.684 33.16 138.684 31.96C138.684 30.76 138.417 29.86 137.884 29.26C137.364 28.6467 136.67 28.34 135.804 28.34C134.924 28.34 134.217 28.6467 133.684 29.26C133.164 29.86 132.904 30.76 132.904 31.96C132.904 33.16 133.164 34.0667 133.684 34.68C134.204 35.2933 134.91 35.6 135.804 35.6ZM143.866 41.32V29.34C143.866 28.9533 143.846 28.56 143.806 28.16C143.779 27.7467 143.746 27.3333 143.706 26.92H145.666L145.866 29.2H145.646C145.859 28.44 146.286 27.84 146.926 27.4C147.579 26.96 148.352 26.74 149.246 26.74C150.139 26.74 150.919 26.9533 151.586 27.38C152.252 27.7933 152.766 28.3867 153.126 29.16C153.499 29.9333 153.686 30.8667 153.686 31.96C153.686 33.04 153.499 33.9733 153.126 34.76C152.766 35.5467 152.252 36.1467 151.586 36.56C150.919 36.9733 150.139 37.18 149.246 37.18C148.366 37.18 147.599 36.9667 146.946 36.54C146.306 36.1 145.879 35.5067 145.666 34.76H145.886V41.32H143.866ZM148.746 35.6C149.626 35.6 150.326 35.2933 150.846 34.68C151.379 34.0667 151.646 33.16 151.646 31.96C151.646 30.76 151.379 29.86 150.846 29.26C150.326 28.6467 149.626 28.34 148.746 28.34C147.866 28.34 147.159 28.6467 146.626 29.26C146.106 29.86 145.846 30.76 145.846 31.96C145.846 33.16 146.106 34.0667 146.626 34.68C147.159 35.2933 147.866 35.6 148.746 35.6Z" fill="white"/>
</svg>
