<svg width="190" height="59" viewBox="0 0 190 59" fill="none" xmlns="http://www.w3.org/2000/svg">
<path d="M0 20C0 8.95431 8.95431 0 20 0H190V39C190 50.0457 181.046 59 170 59H0V20Z" fill="#6386FF"/>
<path d="M39.42 37.18C38.2867 37.18 37.26 37.04 36.34 36.76C35.42 36.4667 34.62 36.0533 33.94 35.52L34.64 33.88C35.0933 34.2267 35.56 34.5133 36.04 34.74C36.5333 34.9667 37.0533 35.14 37.6 35.26C38.16 35.3667 38.7667 35.42 39.42 35.42C40.54 35.42 41.36 35.22 41.88 34.82C42.4133 34.42 42.68 33.8933 42.68 33.24C42.68 32.68 42.4933 32.2467 42.12 31.94C41.76 31.6333 41.12 31.3867 40.2 31.2L38.02 30.76C36.7267 30.4933 35.76 30.06 35.12 29.46C34.4933 28.8467 34.18 28.0133 34.18 26.96C34.18 26.1067 34.4067 25.36 34.86 24.72C35.3133 24.08 35.94 23.5867 36.74 23.24C37.5533 22.8933 38.5 22.72 39.58 22.72C40.58 22.72 41.5 22.8667 42.34 23.16C43.18 23.44 43.8867 23.86 44.46 24.42L43.78 26C43.18 25.48 42.54 25.1 41.86 24.86C41.18 24.6067 40.4067 24.48 39.54 24.48C38.5133 24.48 37.7067 24.6933 37.12 25.12C36.5467 25.5467 36.26 26.1267 36.26 26.86C36.26 27.4467 36.44 27.9067 36.8 28.24C37.1733 28.5733 37.7867 28.8267 38.64 29L40.82 29.42C42.1667 29.7 43.16 30.1333 43.8 30.72C44.44 31.2933 44.76 32.0867 44.76 33.1C44.76 33.9133 44.54 34.6267 44.1 35.24C43.6733 35.8533 43.06 36.3333 42.26 36.68C41.46 37.0133 40.5133 37.18 39.42 37.18ZM47.3363 37V22.9H49.1563L54.5963 35.16H53.9963L59.4363 22.9H61.2363V37H59.3563V25.72H60.0163L54.9363 37H53.6363L48.5563 25.72H49.2363V37H47.3363ZM69.3614 37.18C68.2281 37.18 67.2014 37.04 66.2814 36.76C65.3614 36.4667 64.5614 36.0533 63.8814 35.52L64.5814 33.88C65.0347 34.2267 65.5014 34.5133 65.9814 34.74C66.4747 34.9667 66.9947 35.14 67.5414 35.26C68.1014 35.3667 68.7081 35.42 69.3614 35.42C70.4814 35.42 71.3014 35.22 71.8214 34.82C72.3547 34.42 72.6214 33.8933 72.6214 33.24C72.6214 32.68 72.4347 32.2467 72.0614 31.94C71.7014 31.6333 71.0614 31.3867 70.1414 31.2L67.9614 30.76C66.6681 30.4933 65.7014 30.06 65.0614 29.46C64.4347 28.8467 64.1214 28.0133 64.1214 26.96C64.1214 26.1067 64.3481 25.36 64.8014 24.72C65.2547 24.08 65.8814 23.5867 66.6814 23.24C67.4947 22.8933 68.4414 22.72 69.5214 22.72C70.5214 22.72 71.4414 22.8667 72.2814 23.16C73.1214 23.44 73.8281 23.86 74.4014 24.42L73.7214 26C73.1214 25.48 72.4814 25.1 71.8014 24.86C71.1214 24.6067 70.3481 24.48 69.4814 24.48C68.4547 24.48 67.6481 24.6933 67.0614 25.12C66.4881 25.5467 66.2014 26.1267 66.2014 26.86C66.2014 27.4467 66.3814 27.9067 66.7414 28.24C67.1147 28.5733 67.7281 28.8267 68.5814 29L70.7614 29.42C72.1081 29.7 73.1014 30.1333 73.7414 30.72C74.3814 31.2933 74.7014 32.0867 74.7014 33.1C74.7014 33.9133 74.4814 34.6267 74.0414 35.24C73.6147 35.8533 73.0014 36.3333 72.2014 36.68C71.4014 37.0133 70.4547 37.18 69.3614 37.18ZM82.3297 32.32V30.7H88.1897V32.32H82.3297ZM96.5141 41.32V29.34C96.5141 28.9533 96.4941 28.56 96.4541 28.16C96.4274 27.7467 96.3941 27.3333 96.3541 26.92H98.3141L98.5141 29.2H98.2941C98.5074 28.44 98.9341 27.84 99.5741 27.4C100.227 26.96 101.001 26.74 101.894 26.74C102.787 26.74 103.567 26.9533 104.234 27.38C104.901 27.7933 105.414 28.3867 105.774 29.16C106.147 29.9333 106.334 30.8667 106.334 31.96C106.334 33.04 106.147 33.9733 105.774 34.76C105.414 35.5467 104.901 36.1467 104.234 36.56C103.567 36.9733 102.787 37.18 101.894 37.18C101.014 37.18 100.247 36.9667 99.5941 36.54C98.9541 36.1 98.5274 35.5067 98.3141 34.76H98.5341V41.32H96.5141ZM101.394 35.6C102.274 35.6 102.974 35.2933 103.494 34.68C104.027 34.0667 104.294 33.16 104.294 31.96C104.294 30.76 104.027 29.86 103.494 29.26C102.974 28.6467 102.274 28.34 101.394 28.34C100.514 28.34 99.8074 28.6467 99.2741 29.26C98.7541 29.86 98.4941 30.76 98.4941 31.96C98.4941 33.16 98.7541 34.0667 99.2741 34.68C99.8074 35.2933 100.514 35.6 101.394 35.6ZM112.796 37.18C111.903 37.18 111.123 36.9733 110.456 36.56C109.789 36.1467 109.269 35.5467 108.896 34.76C108.536 33.9733 108.356 33.04 108.356 31.96C108.356 30.8667 108.536 29.9333 108.896 29.16C109.269 28.3867 109.789 27.7933 110.456 27.38C111.123 26.9533 111.903 26.74 112.796 26.74C113.676 26.74 114.443 26.96 115.096 27.4C115.749 27.84 116.183 28.44 116.396 29.2H116.176L116.376 26.92H118.336C118.296 27.3333 118.256 27.7467 118.216 28.16C118.189 28.56 118.176 28.9533 118.176 29.34V37H116.156V34.76H116.376C116.163 35.5067 115.723 36.1 115.056 36.54C114.403 36.9667 113.649 37.18 112.796 37.18ZM113.296 35.6C114.163 35.6 114.856 35.2933 115.376 34.68C115.909 34.0667 116.176 33.16 116.176 31.96C116.176 30.76 115.909 29.86 115.376 29.26C114.856 28.6467 114.163 28.34 113.296 28.34C112.416 28.34 111.709 28.6467 111.176 29.26C110.656 29.86 110.396 30.76 110.396 31.96C110.396 33.16 110.656 34.0667 111.176 34.68C111.696 35.2933 112.403 35.6 113.296 35.6ZM120.278 39.6V35.44H121.398C121.838 34.7733 122.158 33.9933 122.358 33.1C122.558 32.2067 122.658 31.1267 122.658 29.86V26.92H130.038V35.44H131.658V39.6H129.918V37H122.018V39.6H120.278ZM123.258 35.46H128.138V28.48H124.398V30.26C124.398 31.2333 124.298 32.1867 124.098 33.12C123.911 34.04 123.631 34.82 123.258 35.46ZM137.601 37.18C136.707 37.18 135.927 36.9733 135.261 36.56C134.594 36.1467 134.074 35.5467 133.701 34.76C133.341 33.9733 133.161 33.04 133.161 31.96C133.161 30.8667 133.341 29.9333 133.701 29.16C134.074 28.3867 134.594 27.7933 135.261 27.38C135.927 26.9533 136.707 26.74 137.601 26.74C138.481 26.74 139.247 26.96 139.901 27.4C140.554 27.84 140.987 28.44 141.201 29.2H140.981L141.181 26.92H143.141C143.101 27.3333 143.061 27.7467 143.021 28.16C142.994 28.56 142.981 28.9533 142.981 29.34V37H140.961V34.76H141.181C140.967 35.5067 140.527 36.1 139.861 36.54C139.207 36.9667 138.454 37.18 137.601 37.18ZM138.101 35.6C138.967 35.6 139.661 35.2933 140.181 34.68C140.714 34.0667 140.981 33.16 140.981 31.96C140.981 30.76 140.714 29.86 140.181 29.26C139.661 28.6467 138.967 28.34 138.101 28.34C137.221 28.34 136.514 28.6467 135.981 29.26C135.461 29.86 135.201 30.76 135.201 31.96C135.201 33.16 135.461 34.0667 135.981 34.68C136.501 35.2933 137.207 35.6 138.101 35.6ZM146.163 41.32V29.34C146.163 28.9533 146.143 28.56 146.103 28.16C146.076 27.7467 146.043 27.3333 146.003 26.92H147.963L148.163 29.2H147.943C148.156 28.44 148.583 27.84 149.223 27.4C149.876 26.96 150.649 26.74 151.543 26.74C152.436 26.74 153.216 26.9533 153.883 27.38C154.549 27.7933 155.063 28.3867 155.423 29.16C155.796 29.9333 155.983 30.8667 155.983 31.96C155.983 33.04 155.796 33.9733 155.423 34.76C155.063 35.5467 154.549 36.1467 153.883 36.56C153.216 36.9733 152.436 37.18 151.543 37.18C150.663 37.18 149.896 36.9667 149.243 36.54C148.603 36.1 148.176 35.5067 147.963 34.76H148.183V41.32H146.163ZM151.043 35.6C151.923 35.6 152.623 35.2933 153.143 34.68C153.676 34.0667 153.943 33.16 153.943 31.96C153.943 30.76 153.676 29.86 153.143 29.26C152.623 28.6467 151.923 28.34 151.043 28.34C150.163 28.34 149.456 28.6467 148.923 29.26C148.403 29.86 148.143 30.76 148.143 31.96C148.143 33.16 148.403 34.0667 148.923 34.68C149.456 35.2933 150.163 35.6 151.043 35.6Z" fill="white"/>
</svg>
