<svg width="190" height="59" viewBox="0 0 190 59" fill="none" xmlns="http://www.w3.org/2000/svg">
<path d="M0 20C0 8.95431 8.95431 0 20 0H190V39C190 50.0457 181.046 59 170 59H0V20Z" fill="#6386FF"/>
<path d="M46.54 37L41.6 22.9H43.76L47.86 35.08H47.12L51.46 22.9H53.04L57.12 35.08H56.44L60.68 22.9H62.72L57.74 37H55.96L52 25.4H52.42L48.3 37H46.54ZM64.8042 37V26.92H66.8242V37H64.8042ZM64.6442 24.82V22.72H66.9842V24.82H64.6442ZM69.7047 32.32V30.7H75.5647V32.32H69.7047ZM78.617 37V22.9H87.657V24.56H80.697V29.08H87.197V30.74H80.697V37H78.617ZM89.7847 37V26.92H91.8047V37H89.7847ZM89.6247 24.82V22.72H91.9647V24.82H89.6247ZM103.637 37.18C102.757 37.18 101.931 37.0733 101.157 36.86C100.384 36.6333 99.7505 36.3133 99.2572 35.9L99.8772 34.54C100.371 34.9267 100.937 35.22 101.577 35.42C102.217 35.6067 102.904 35.7 103.637 35.7C104.557 35.7 105.224 35.5667 105.637 35.3C106.064 35.02 106.277 34.6267 106.277 34.12C106.277 33.6267 106.104 33.2533 105.757 33C105.411 32.7467 104.904 32.62 104.237 32.62H101.757V31.18H104.037C104.637 31.18 105.104 31.0533 105.437 30.8C105.771 30.5467 105.937 30.1933 105.937 29.74C105.937 29.26 105.744 28.8867 105.357 28.62C104.971 28.3533 104.371 28.22 103.557 28.22C102.864 28.22 102.231 28.3067 101.657 28.48C101.084 28.6533 100.537 28.9133 100.017 29.26L99.4172 27.96C99.9639 27.5467 100.611 27.24 101.357 27.04C102.104 26.84 102.911 26.74 103.777 26.74C105.084 26.74 106.077 26.9867 106.757 27.48C107.437 27.96 107.777 28.6533 107.777 29.56C107.777 30.1867 107.564 30.72 107.137 31.16C106.724 31.6 106.164 31.8667 105.457 31.96V31.7C106.271 31.74 106.917 31.9867 107.397 32.44C107.891 32.88 108.137 33.4667 108.137 34.2C108.137 35.1067 107.751 35.8333 106.977 36.38C106.217 36.9133 105.104 37.18 103.637 37.18ZM114.889 37.18C113.889 37.18 113.022 36.9733 112.289 36.56C111.555 36.1333 110.989 35.5333 110.589 34.76C110.189 33.9733 109.989 33.04 109.989 31.96C109.989 30.88 110.189 29.9533 110.589 29.18C110.989 28.3933 111.555 27.7933 112.289 27.38C113.022 26.9533 113.889 26.74 114.889 26.74C115.889 26.74 116.755 26.9533 117.489 27.38C118.235 27.7933 118.809 28.3933 119.209 29.18C119.622 29.9533 119.829 30.88 119.829 31.96C119.829 33.04 119.622 33.9733 119.209 34.76C118.809 35.5333 118.235 36.1333 117.489 36.56C116.755 36.9733 115.889 37.18 114.889 37.18ZM114.889 35.6C115.769 35.6 116.469 35.2933 116.989 34.68C117.509 34.0667 117.769 33.16 117.769 31.96C117.769 30.76 117.509 29.86 116.989 29.26C116.469 28.6467 115.769 28.34 114.889 28.34C114.022 28.34 113.329 28.6467 112.809 29.26C112.289 29.86 112.029 30.76 112.029 31.96C112.029 33.16 112.282 34.0667 112.789 34.68C113.309 35.2933 114.009 35.6 114.889 35.6ZM122.325 37V26.92H124.325V31.02H129.425V26.92H131.425V37H129.425V32.6H124.325V37H122.325ZM134.473 37V26.92H136.473V30.44H139.333C140.653 30.44 141.646 30.72 142.313 31.28C142.98 31.8267 143.313 32.6267 143.313 33.68C143.313 34.36 143.16 34.9533 142.853 35.46C142.546 35.9533 142.093 36.3333 141.493 36.6C140.906 36.8667 140.186 37 139.333 37H134.473ZM136.473 35.62H139.113C139.873 35.62 140.446 35.4667 140.833 35.16C141.233 34.84 141.433 34.3533 141.433 33.7C141.433 33.0467 141.233 32.5733 140.833 32.28C140.446 31.9733 139.873 31.82 139.113 31.82H136.473V35.62ZM144.733 37V26.92H146.733V37H144.733Z" fill="white"/>
</svg>
