<svg xmlns="http://www.w3.org/2000/svg">


    <symbol id="agree-blue" viewBox="0 0 13 11">
        <path d="M1.5 5L5.71053 9L11.5 1" stroke="#6386FF" stroke-width="2" stroke-linecap="round"/>
    </symbol>


    <symbol id="agree-white" viewBox="0 0 13 11">
         <path d="M1.5 5L5.71053 9L11.5 1" stroke="white" stroke-width="2" stroke-linecap="round"/>
    </symbol>


     <symbol id="question-mark-white" viewBox="0 0 13 23">
         <path d="M3.52 15.296V13.568C3.52 12.672 3.68 11.8613 4 11.136C4.34133 10.3893 4.91733 9.62133 5.728 8.832C6.26133 8.29867 6.63467 7.82933 6.848 7.424C7.08267 6.99733 7.2 6.592 7.2 6.208C7.2 5.71733 7.008 5.344 6.624 5.088C6.24 4.81067 5.67467 4.672 4.928 4.672C4.096 4.672 3.25333 4.82133 2.4 5.12C1.54667 5.39733 0.746667 5.77067 0 6.24V1.536C0.789333 1.04533 1.71733 0.672 2.784 0.416C3.872 0.138667 4.90667 0 5.888 0C7.232 0 8.43733 0.181333 9.504 0.543999C10.5707 0.885333 11.4133 1.45067 12.032 2.24C12.6507 3.02933 12.96 4.07467 12.96 5.376C12.96 6.10133 12.8213 6.79467 12.544 7.456C12.2667 8.11733 11.8933 8.72533 11.424 9.28C10.976 9.83467 10.4533 10.336 9.856 10.784C8.81067 11.5307 8.096 12.1813 7.712 12.736C7.34933 13.2693 7.12533 13.7813 7.04 14.272L6.88 15.296H3.52ZM2.208 22.912V17.088H8.16V22.912H2.208Z"/>
    </symbol>


    <symbol id="wa" width="80" height="80" viewBox="0 0 80 80">
    <path fill-rule="evenodd" clip-rule="evenodd" d="M40 80C62.0914 80 80 62.0914 80 40C80 17.9086 62.0914 0 40 0C17.9086 0 0 17.9086 0 40C0 62.0914 17.9086 80 40 80ZM30.7743 22.2385C33.2476 20.9598 35.528 20.3072 38.5521 20.0129C38.7244 19.9961 39.5703 19.9956 40.4318 20.0118C41.9737 20.0407 43.2442 20.1848 44.4653 20.4691C51.7326 22.1616 57.492 27.7392 59.3815 34.9148C59.8748 36.7882 60 37.8152 60 39.9894C60 42.1637 59.8748 43.1906 59.3815 45.0641C57.7708 51.1807 53.2586 56.2702 47.3838 58.5967C42.1988 60.6499 36.4103 60.4428 31.3466 58.0228C30.7866 57.7551 30.0349 57.354 29.6761 57.1313C29.3173 56.9086 28.9959 56.7264 28.9618 56.7264C28.9278 56.7264 27.1964 57.2706 25.1143 57.9357C23.0322 58.6008 21.3178 59.1341 21.3045 59.1208C21.2913 59.1076 21.8412 57.4436 22.5267 55.423L23.7729 51.7492L23.2119 50.8874C21.5287 48.3019 20.5223 45.5402 20.0953 42.3357C20.0392 41.9143 19.998 40.831 20.0001 39.833C20.0044 37.8283 20.1433 36.7267 20.6205 34.9148C20.9991 33.4771 21.3404 32.5785 22.0646 31.1126C23.9497 27.2969 26.9986 24.1906 30.7743 22.2385ZM34.1793 29.7167C34.0868 29.5512 33.9051 29.3608 33.7754 29.2936C33.6239 29.215 33.2735 29.1625 32.7955 29.1466C31.6689 29.1091 30.9203 29.3442 30.3483 29.9156C29.1657 31.0964 28.5802 32.3316 28.4097 34.0048C28.1972 36.0917 28.9113 38.1478 30.7735 40.8106C31.9035 42.4265 32.8916 43.6077 34.2819 45.0047C37.0605 47.7968 39.1111 49.0705 42.9743 50.4039C45.8538 51.3978 47.3246 51.4227 49.2037 50.5095C51.1801 49.549 51.9273 48.4443 52.0397 46.3168L52.0834 45.4881L51.8183 45.2885C51.5414 45.0798 47.5977 43.162 46.9526 42.9222C46.4497 42.7354 46.0012 42.7993 45.6991 43.1009C45.5728 43.2271 45.129 43.7829 44.7129 44.336C43.7956 45.5553 43.5769 45.7248 42.9772 45.6815C41.8109 45.5975 39.1934 44.0431 37.4616 42.4062C36.3456 41.3513 34.5343 38.9525 34.403 38.3557C34.3307 38.0268 34.5053 37.734 35.3177 36.822C36.0962 35.9479 36.4432 35.3455 36.3723 34.9911C36.3168 34.7141 34.4128 30.1346 34.1793 29.7167Z"/>
    </symbol>

    <symbol id="tg" width="80" height="80" viewBox="0 0 80 80">
        <path fill-rule="evenodd" clip-rule="evenodd" d="M40 80C62.0914 80 80 62.0914 80 40C80 17.9086 62.0914 0 40 0C17.9086 0 0 17.9086 0 40C0 62.0914 17.9086 80 40 80ZM22.278 37.4431C22.7372 37.2231 53.9111 25.1146 56.4406 24.1738C57.1394 23.9139 57.8675 23.9477 58.3072 24.2604C58.4996 24.3972 58.6964 24.6311 58.8118 24.8603C58.9754 25.1854 59.0009 25.3323 59 25.9499C58.9991 26.6035 58.7535 27.8229 56.0855 40.417C54.4831 47.9814 53.1212 54.3436 53.059 54.5554C52.8982 55.1027 52.516 55.6282 52.1249 55.8398C51.6871 56.0767 51.0129 56.0489 50.4145 55.7693C50.1864 55.6628 48.0505 54.1318 45.6683 52.3672C43.286 50.6027 41.2935 49.1757 41.2406 49.1963C41.1876 49.2169 40.1206 50.2249 38.8695 51.4366C37.6183 52.6482 36.453 53.7154 36.2798 53.8081C36.1067 53.9009 35.8137 53.9975 35.6286 54.0228L35.2922 54.0687L35.6018 49.6335C35.7721 47.1942 35.9235 45.1666 35.9382 45.1277C35.953 45.0888 39.6273 41.7342 44.1032 37.6729C48.5792 33.6117 52.2831 30.2109 52.334 30.1157C52.411 29.9718 52.407 29.9227 52.3102 29.8248C52.1718 29.6849 51.8754 29.6735 51.531 29.7949C51.3937 29.8433 46.7179 32.7691 41.1403 36.2968L30.9991 42.7106L26.533 41.3093C24.0767 40.5385 21.9667 39.8562 21.844 39.7932C20.5739 39.14 20.7523 38.1743 22.278 37.4431Z"/>
    </symbol>

    <symbol id="vk" width="80" height="80" viewBox="0 0 80 80">
    <path fill-rule="evenodd" clip-rule="evenodd" d="M40 80C62.0914 80 80 62.0914 80 40C80 17.9086 62.0914 0 40 0C17.9086 0 0 17.9086 0 40C0 62.0914 17.9086 80 40 80ZM34.1149 27.3681C34.5394 27.2365 35.6003 27.0748 36.4372 27.014C36.6737 26.9968 37.8155 26.9952 38.9745 27.0105C41.8367 27.048 42.9039 27.262 43.3417 27.886C43.7862 28.5194 43.7971 28.6611 43.7717 33.4589L43.7481 37.9203L43.9808 38.3937C44.2328 38.9062 44.5652 39.1663 44.9684 39.1663C45.2572 39.1663 46.1229 38.4871 46.68 37.8235C48.0798 36.156 50.2039 32.4549 51.2356 29.8858C51.6229 28.9213 51.9319 28.4196 52.2233 28.282C52.3732 28.2113 53.7083 28.1735 56.7788 28.1531L61.1224 28.1242L61.4845 28.3176C61.9934 28.5893 62.1056 28.9744 61.9084 29.7727C61.5722 31.1337 60.363 33.0642 57.3432 37.061C55.2024 39.8943 54.8856 40.4147 54.8885 41.092C54.8919 41.8988 55.0622 42.1233 57.5006 44.535C59.7969 46.8061 60.4714 47.5625 61.2565 48.747C61.8538 49.6482 61.9782 50.0327 61.9482 50.8857C61.9373 51.1974 61.4576 51.6674 61.0123 51.8029C60.5626 51.9396 53.5963 52.0725 53.0804 51.9543C52.8675 51.9055 52.345 51.6989 51.9192 51.4952C50.9745 51.0433 50.3425 50.4798 48.6326 48.5649C46.8089 46.5225 46.3201 46.1602 45.4471 46.2031C45.197 46.2155 44.6138 46.7437 44.3456 47.2011C44.0414 47.7195 43.8202 48.6899 43.748 49.8217C43.6748 50.9686 43.5534 51.3374 43.1612 51.6047C42.685 51.9293 42.0392 51.9941 39.7916 51.9427C37.5332 51.891 36.8747 51.7939 35.362 51.2888C34.2611 50.9213 33.3705 50.4807 32.1366 49.693C29.4941 48.0062 28.3497 46.8722 25.7633 43.3769C24.0047 41.0005 22.3596 38.2769 20.4173 34.5261C19.4197 32.5995 18.0659 29.5931 18.0094 29.1787C17.9565 28.7918 18.127 28.4943 18.5261 28.2764C18.7779 28.139 19.151 28.1218 22.3743 28.0986L25.9438 28.073L26.4168 28.3135C26.9771 28.5983 27.1332 28.8147 27.626 29.9898C28.0338 30.9621 29.8613 34.6057 30.5107 35.741C32.3354 38.9311 33.9911 40.0818 34.7121 38.6605C34.9808 38.1306 35.0574 37.7919 35.2386 36.3306C35.5129 34.12 35.2836 30.9972 34.7738 29.9988C34.4755 29.4148 33.8101 28.9677 33.0212 28.8213C32.8455 28.7887 32.6764 28.7212 32.6455 28.6713C32.4776 28.3997 33.3859 27.594 34.1149 27.3681Z"/>
    </symbol>
</svg>
