<svg width="60" height="60" viewBox="0 0 60 60" fill="none" xmlns="http://www.w3.org/2000/svg">
<path fill-rule="evenodd" clip-rule="evenodd" d="M26.4191 0.216565C23.9362 0.579283 21.2343 1.43185 18.9954 2.55886C17.1479 3.48885 14.3608 5.46588 13.446 6.49528C13.0885 6.89746 13.1081 7.73647 13.4836 8.1132C14.0494 8.68092 14.6743 8.51839 15.905 7.48372C18.6517 5.1741 21.8006 3.64476 25.5123 2.81735C26.8299 2.52377 27.5042 2.46954 29.8729 2.46728C31.414 2.46577 32.7088 2.49846 32.7504 2.53988C32.792 2.58131 32.6295 3.63195 32.3895 4.87465C32.1494 6.11735 31.9523 7.13727 31.9517 7.14103C31.9509 7.14495 31.3182 7.12025 30.5456 7.08635C28.0016 6.97474 25.0895 7.62802 22.6785 8.85129C15.8021 12.34 12.0008 20.0659 13.534 27.4371C13.5475 27.5023 13.2199 27.6728 12.806 27.8161C11.8194 28.1575 10.8703 28.7245 10.0052 29.4894L9.30436 30.1091L9.14837 29.6176C8.38523 27.2117 8.21963 22.5634 8.79705 19.7474C8.97136 18.8971 9.35 17.5187 9.63857 16.6841C10.1935 15.0792 10.1887 14.6329 9.61169 14.1931C9.19792 13.8778 8.47066 13.9458 8.10733 14.3336C7.68229 14.7876 6.67368 17.9014 6.36545 19.7117C5.67077 23.7905 6.00917 28.0648 7.32242 31.7978C7.744 32.9961 7.76892 33.1758 7.6404 34.0871C7.42075 35.6424 7.78483 37.5584 8.52981 38.7676C8.69451 39.0352 8.82933 39.2879 8.82933 39.3295C8.82933 39.3712 8.30581 39.5904 7.66578 39.8166C3.97438 41.122 1.17614 43.4659 0.366606 45.931C-0.0350083 47.1535 -0.118033 48.8498 0.174132 49.8584C0.470951 50.8825 1.36006 51.9427 2.30817 52.4033C3.21829 52.8452 5.61822 53.3036 9.82669 53.8392C10.4214 53.9149 10.4562 53.9487 10.6221 54.6097C11.0105 56.1573 11.9211 57.3016 13.2496 57.9118C14.4907 58.482 19.3033 59.3552 23.6928 59.8069C25.807 60.0246 33.8591 60.0725 35.462 59.8769C37.135 59.673 37.7097 58.7563 36.7614 57.8047C36.3272 57.3691 36.2955 57.362 35.2976 57.4774C34.7365 57.5422 32.2506 57.5908 29.7733 57.5856C24.9582 57.5753 22.6973 57.3929 18.6127 56.6854C14.3335 55.9441 13.7217 55.7167 13.1893 54.6698C12.6165 53.5434 12.8689 51.2764 13.7512 49.6231C14.9903 47.3013 18.7792 44.9414 23.1148 43.7913L24.4133 43.4467L25.6671 44.0639C27.3808 44.9078 28.1601 45.0929 29.9985 45.0929C31.837 45.0929 32.6163 44.9078 34.33 44.0639L35.5837 43.4467L36.8823 43.7913C41.25 44.9499 44.9976 47.2841 46.2458 49.6231C47.1487 51.315 47.3756 53.4712 46.7763 54.6636C46.5029 55.2077 46.267 55.4219 45.5388 55.7876C44.4586 56.3304 44.1315 56.8411 44.4187 57.5369C44.761 58.366 45.5211 58.4883 46.754 57.9123C48.0848 57.2905 48.9876 56.1529 49.375 54.6097C49.5409 53.9487 49.5757 53.9149 50.1704 53.8392C54.3789 53.3036 56.7788 52.8452 57.6889 52.4033C58.637 51.9427 59.5261 50.8825 59.8229 49.8584C60.1267 48.81 60.0313 47.1034 59.6007 45.8787C58.7278 43.3971 56.1434 41.2143 52.4967 39.8791C51.8078 39.6268 51.2192 39.3955 51.1888 39.3649C51.1584 39.3345 51.276 39.0782 51.4501 38.7955C52.2071 37.5665 52.5783 35.6565 52.3601 34.1117C52.2328 33.2092 52.2615 33.0324 52.8063 31.3627C53.6788 28.6893 53.9284 27.0328 53.9272 23.9294C53.926 21.1004 53.7276 19.6058 53.0342 17.2054C51.5582 12.0957 48.2501 7.373 44.0613 4.39595C40.9706 2.19916 36.897 0.6073 33.1651 0.137937C31.4742 -0.0747531 28.1466 -0.0360413 26.4191 0.216565ZM36.8902 3.43885C40.6439 4.66964 44.1258 7.04116 46.6138 10.0619L47.4124 11.0315L45.4241 12.3307C44.3305 13.0451 42.4223 14.2987 41.1837 15.1164C39.9451 15.9341 37.3525 17.6443 35.4225 18.9171C33.4925 20.1898 31.8779 21.1956 31.8346 21.1522C31.7913 21.1087 32.0009 19.8009 32.3004 18.2459C32.6001 16.691 33.356 12.7074 33.9803 9.39356C34.6047 6.07969 35.1445 3.2837 35.1797 3.18006C35.2682 2.92053 35.3444 2.93213 36.8902 3.43885ZM31.4068 9.59028C31.4666 9.68744 31.0085 12.3986 30.6738 13.9275C30.6124 14.2086 30.4659 14.2538 29.362 14.3318C27.0224 14.4975 24.7303 15.6199 23.1115 17.3923C20.2365 20.54 19.654 25.1237 21.6762 28.6839L22.3344 29.8428L22.0113 30.3129C21.8335 30.5715 21.6652 30.8123 21.6371 30.8481C21.6092 30.884 21.2352 30.5181 20.8061 30.035C20.3771 29.5521 19.6855 28.9398 19.2695 28.6744C18.4074 28.1246 16.9455 27.5445 16.4216 27.5445C15.9869 27.5445 15.9419 27.4306 15.7222 25.778C15.1897 21.7716 16.5728 17.492 19.4319 14.2993C21.5505 11.9335 24.9601 10.0717 27.9717 9.63592C29.1545 9.4648 31.3119 9.43603 31.4068 9.59028ZM10.399 10.1399C9.72069 10.8203 10.0433 11.8759 11.0036 12.1177C11.7501 12.3057 12.5311 11.4667 12.3556 10.6653C12.1597 9.76998 11.0616 9.47505 10.399 10.1399ZM49.4325 14.4773C50.2507 16.2407 50.7829 17.8386 51.196 19.7714C51.7825 22.516 51.6175 27.1941 50.8487 29.6176L50.6927 30.1091L49.9919 29.4894C49.1268 28.7245 48.1776 28.1575 47.1911 27.8161C46.7772 27.6728 46.4496 27.5023 46.4631 27.4371C47.1989 23.8992 46.6916 19.7387 45.1512 16.6768C44.8969 16.1716 44.7448 15.7053 44.8129 15.6405C44.9787 15.4834 48.6525 13.084 48.7274 13.084C48.7597 13.084 49.0769 13.7109 49.4325 14.4773ZM30.1482 16.7368C30.1479 16.7574 29.8445 18.3335 29.4738 20.2389C29.1033 22.1444 28.7994 23.859 28.7988 24.0491C28.797 24.5316 29.4415 25.1352 29.9542 25.1311C30.2368 25.1288 31.3784 24.4665 33.4497 23.1032C35.1414 21.9897 36.5737 21.1269 36.6325 21.1859C36.848 21.4028 37.2051 23.1131 37.2051 23.9294C37.2051 24.9606 36.8836 26.2449 36.3717 27.2583C35.9989 27.9965 35.9756 28.0137 35.6573 27.7879C34.8709 27.2297 33.8994 26.7397 32.8511 26.3727C31.889 26.0359 31.4738 25.9787 29.9985 25.9787C28.5086 25.9787 28.1109 26.0347 27.0967 26.3878C26.4504 26.613 25.5721 27.02 25.1449 27.2923C24.7178 27.5647 24.2827 27.8394 24.1779 27.9027C23.9066 28.0664 23.1155 26.308 22.9156 25.0967C22.3494 21.6687 24.8805 17.8508 28.347 16.904C28.9362 16.7431 30.1496 16.6304 30.1482 16.7368ZM43.2458 18.263C44.2394 20.6172 44.6183 23.4409 44.2705 25.8992C44.1702 26.6079 44.0427 27.2575 43.9872 27.3428C43.9316 27.428 43.6223 27.5397 43.3 27.5907C42.1145 27.7787 40.5255 28.6918 39.4212 29.8196C38.8488 30.4044 38.3643 30.8603 38.3446 30.8329C38.3249 30.8055 38.1622 30.5697 37.9829 30.309L37.657 29.8348L38.2613 28.8027C39.2379 27.1346 39.5335 25.9764 39.5245 23.854C39.5176 22.2673 39.4652 21.9011 39.0948 20.8568C38.7518 19.8895 38.7112 19.6445 38.8774 19.5463C38.9897 19.4799 39.825 18.917 40.7333 18.2956C41.6416 17.6741 42.4801 17.1795 42.5966 17.196C42.7131 17.2128 43.0053 17.6928 43.2458 18.263ZM31.3799 28.4641C34.2725 29.0693 36.5907 31.4966 37.0832 34.4358C37.6774 37.9819 35.2815 41.5965 31.7198 42.5272C27.7463 43.5657 23.5419 40.7344 22.9025 36.5895C22.1601 31.7775 26.6494 27.4744 31.3799 28.4641ZM17.3632 30.3497C18.4408 30.8785 19.3276 31.7787 19.8765 32.9C20.2609 33.6855 20.3134 33.953 20.3035 35.076C20.2949 36.0459 20.2137 36.5314 19.9684 37.078C19.4855 38.1538 18.2993 39.3304 17.1969 39.8267C14.2213 41.1666 10.6499 39.2387 10.0538 35.971C9.30827 31.8837 13.664 28.5338 17.3632 30.3497ZM46.209 30.0425C49.9081 31.1447 51.238 35.6659 48.6973 38.5012C46.6003 40.8411 43.2159 40.8658 41.0633 38.5569C39.3768 36.7478 39.1639 34.3188 40.5091 32.2306C41.7565 30.2944 44.0714 29.4057 46.209 30.0425ZM21.8672 40.5439C22.1281 40.9415 22.3416 41.3223 22.3416 41.3901C22.3416 41.4579 21.9445 41.6251 21.4592 41.7617C20.974 41.8983 19.91 42.2824 19.0947 42.6152C14.6924 44.4123 11.6906 47.2575 10.8388 50.4403C10.6946 50.9788 10.5655 51.4373 10.5517 51.459C10.5049 51.5337 7.00743 51.0359 5.40292 50.7262C3.43899 50.3469 2.91592 50.1107 2.61024 49.4645C1.87758 47.9154 2.80001 45.5403 4.70419 44.0722C5.75259 43.2639 7.906 42.2391 9.53347 41.7738L10.9132 41.3791L11.5603 41.7555C13.1849 42.7006 15.5888 42.9317 17.4227 42.3195C18.6365 41.9142 19.9832 41.0598 20.6901 40.2464C20.9791 39.9139 21.2555 39.6821 21.3041 39.7314C21.3529 39.7806 21.6062 40.1462 21.8672 40.5439ZM40.6716 41.3874C42.987 42.9387 46.1452 43.0885 48.4368 41.7555L49.0838 41.3791L50.4636 41.7715C52.5946 42.3776 54.7868 43.5309 55.8937 44.6282C57.0046 45.7293 57.4834 46.6667 57.5852 47.9401C57.6784 49.1054 57.373 49.8594 56.6737 50.1908C56.4117 50.3149 55.4759 50.556 54.5941 50.7262C52.9896 51.0359 49.4922 51.5337 49.4454 51.459C49.4316 51.4373 49.3024 50.9788 49.1583 50.4403C48.7564 48.9388 47.9608 47.6474 46.6018 46.291C44.7072 44.4 42.2663 42.9747 39.2367 41.9905C38.3688 41.7085 37.6579 41.4347 37.657 41.3818C37.6562 41.3291 37.8976 40.9117 38.1937 40.4541L38.7318 39.6222L39.2603 40.2092C39.5511 40.532 40.186 41.0622 40.6716 41.3874ZM40.5024 56.8883C40.3817 56.9253 40.1309 57.0945 39.9451 57.2641C39.2346 57.9126 39.7673 59.1768 40.751 59.1768C41.3741 59.1768 42.0094 58.6201 42.0094 58.0742C42.0094 57.3506 41.1636 56.6849 40.5024 56.8883Z" fill="url(#paint0_linear_472_724)"/>
<defs>
<linearGradient id="paint0_linear_472_724" x1="12.6329" y1="1.0156e-06" x2="47.2552" y2="59.8885" gradientUnits="userSpaceOnUse">
<stop stop-color="#6386FF"/>
<stop offset="1" stop-color="#938AFF"/>
</linearGradient>
</defs>
</svg>
