<svg width="60" height="60" viewBox="0 0 60 60" fill="none" xmlns="http://www.w3.org/2000/svg">
<path fill-rule="evenodd" clip-rule="evenodd" d="M28.8284 0.323519C28.0264 0.745502 27.5688 1.38439 27.4207 2.2893C27.3577 2.67437 27.3061 3.88594 27.3061 4.98162C27.3061 7.42868 27.4223 8.21734 27.8756 8.8458C28.3268 9.47133 29.2607 9.96199 30 9.96199C30.7393 9.96199 31.6732 9.47133 32.1244 8.8458C32.5777 8.21734 32.6939 7.42868 32.6939 4.98162C32.6939 3.88594 32.6423 2.67437 32.5793 2.2893C32.4312 1.38439 31.9736 0.745502 31.1716 0.323519C30.3518 -0.10784 29.6482 -0.10784 28.8284 0.323519ZM30.3886 1.8938C30.5293 1.96786 30.6833 2.08657 30.7307 2.15746C30.778 2.22836 30.8175 3.50861 30.8186 5.0026C30.8204 7.93422 30.8075 7.9975 30.1785 8.15546C29.9016 8.22495 29.4275 8.04261 29.2693 7.80578C29.222 7.73489 29.1833 6.46401 29.1833 4.98162C29.1833 3.49923 29.222 2.22918 29.2693 2.15922C29.3828 1.99165 29.7843 1.76712 29.9784 1.76255C30.0632 1.76068 30.2477 1.81962 30.3886 1.8938ZM3.86719 4.80268C2.58691 4.96815 1.48852 5.65227 0.773555 6.72932C0.0904687 7.75832 0 8.32972 0 11.6138V14.5055L0.322266 15.1179C0.516328 15.4867 0.847266 15.8767 1.15406 16.098C1.62762 16.4397 1.7325 16.4658 2.63672 16.4658C3.54094 16.4658 3.64582 16.4397 4.11938 16.098C4.42617 15.8767 4.75711 15.4867 4.95117 15.1179C5.26969 14.5125 5.27344 14.4801 5.27344 12.2923V10.0792L7.06055 10.0785C9.30352 10.0777 10.1031 9.95308 10.7197 9.50825C11.3453 9.05709 11.8359 8.12324 11.8359 7.38392C11.8359 6.6446 11.3453 5.71075 10.7197 5.25959C10.4163 5.04069 9.9982 4.87838 9.54785 4.80467C8.76188 4.67601 4.85813 4.6746 3.86719 4.80268ZM50.342 4.80561C49.1566 5.01865 48.1641 6.19379 48.1641 7.38392C48.1641 8.12324 48.6547 9.05709 49.2803 9.50825C49.8969 9.95308 50.6965 10.0777 52.9395 10.0785L54.7266 10.0792V12.2923C54.7266 14.4801 54.7303 14.5125 55.0488 15.1179C55.2429 15.4867 55.5738 15.8767 55.8806 16.098C56.3542 16.4397 56.4591 16.4658 57.3633 16.4658C58.2675 16.4658 58.3724 16.4397 58.8459 16.098C59.1527 15.8767 59.4837 15.4867 59.6777 15.1179L60 14.5055V11.6138C60 8.32456 59.9099 7.75903 59.2208 6.72077C58.7093 5.95028 57.981 5.37185 57.0882 5.02721C56.4866 4.79495 56.173 4.76823 53.6719 4.73671C52.1572 4.71761 50.6587 4.74866 50.342 4.80561ZM9.7766 6.7476C10.1521 7.12306 10.1018 7.83274 9.67969 8.11457C9.60879 8.16191 8.44336 8.20175 7.08984 8.20304C4.37215 8.20574 3.85723 8.28577 3.65145 8.7374C3.56191 8.93392 3.51562 9.89496 3.51562 11.5572C3.51562 14.5258 3.45059 14.7629 2.63672 14.7629C1.81371 14.7629 1.75781 14.5454 1.75781 11.3403C1.75781 8.64014 1.76203 8.59338 2.05652 8.00242C2.3482 7.41708 2.88105 6.90369 3.42211 6.68655C3.57023 6.62714 5.01914 6.57511 6.64207 6.571C9.17367 6.56468 9.61875 6.58975 9.7766 6.7476ZM57.0884 6.98994C57.3948 7.21107 57.7261 7.60165 57.9199 7.97008L58.2422 8.58249V11.3307C58.2422 14.5463 58.1868 14.7629 57.3633 14.7629C56.5494 14.7629 56.4844 14.5258 56.4844 11.5572C56.4844 9.89496 56.4381 8.93392 56.3486 8.7374C56.1428 8.28577 55.6279 8.20574 52.9102 8.20304C51.5566 8.20175 50.3912 8.16191 50.3203 8.11457C50.0835 7.95637 49.9011 7.48235 49.9706 7.20544C50.1343 6.55354 50.1554 6.54991 53.4986 6.58753L56.5791 6.62221L57.0884 6.98994ZM28.5084 14.349C25.9234 14.9754 23.906 17.2753 23.6005 19.9442L23.5242 20.6102L22.977 20.0483C21.7968 18.8368 20.5737 18.3522 18.8658 18.4198C17.8793 18.4588 17.6495 18.5123 16.866 18.8843C15.6968 19.4396 14.8684 20.2679 14.3132 21.4371C13.9411 22.2206 13.8877 22.4504 13.8486 23.4369C13.8123 24.3528 13.85 24.6862 14.0597 25.3069C14.3612 26.1994 14.9977 27.2 15.5384 27.6314L15.9251 27.9401L15.4954 28.1811C14.8895 28.5209 14.6804 28.926 14.872 29.3886C14.9544 29.5876 15.1665 29.8068 15.3503 29.8829C15.6411 30.0034 15.7969 29.9678 16.6586 29.5842C17.5206 29.2003 17.7768 29.1418 18.8169 29.0914C19.6983 29.0487 20.158 29.0821 20.6333 29.2235C21.5977 29.5101 21.6646 29.5743 21.4082 29.9672C20.9235 30.7103 20.2624 32.2566 20.0358 33.1772C19.8355 33.9909 19.7815 34.6919 19.7229 37.2368L19.6521 40.3129H16.5643H13.4766V36.97C13.4766 33.6545 13.4791 33.6195 13.7904 32.6973C14.0529 31.9197 14.082 31.7184 13.9677 31.4677C13.7709 31.0358 13.28 30.8767 12.8207 31.0957C12.5255 31.2365 12.3971 31.4297 12.1425 32.1166C11.703 33.3021 11.5806 34.8035 11.6237 38.4786C11.6596 41.5423 11.6647 41.6004 11.9269 41.8626C12.1917 42.1273 12.2214 42.1295 15.9289 42.1646L19.6643 42.1999L19.7052 43.7276C19.7455 45.2341 19.7507 45.2591 20.0749 45.5378C20.3741 45.7952 20.5071 45.8206 21.5532 45.8206C22.5388 45.8206 22.7468 45.7859 23.0115 45.5777C23.2365 45.4007 23.3203 45.2272 23.3203 44.9377C23.3203 44.3433 22.9564 44.0628 22.1849 44.0628H21.5625L21.5571 43.0375C21.5272 37.2875 21.585 34.3379 21.741 33.6637C22.4371 30.6549 24.6033 28.3643 27.6604 27.4043C28.917 27.0097 31.083 27.0097 32.3396 27.4043C35.3958 28.3639 37.5484 30.6387 38.2611 33.662C38.3987 34.2453 38.4343 35.3828 38.4357 39.229L38.4375 44.0628H32.1884H25.9393L25.6845 44.334C25.324 44.7178 25.3479 45.2705 25.7385 45.5777C26.0427 45.8171 26.1456 45.8206 32.8218 45.8206H39.5962L39.9063 45.5539C40.2417 45.2655 40.2919 44.9574 40.3057 43.1021L40.3125 42.2001L44.0595 42.1647C48.6614 42.1212 48.3398 42.2596 48.3398 40.3219C48.3398 38.8283 48.204 38.5551 47.4609 38.5551C46.8789 38.5551 46.6423 38.8439 46.5584 39.6563L46.4906 40.3129H43.4193H40.3479L40.2771 37.2368C40.2188 34.7016 40.1641 33.9893 39.9663 33.186C39.7199 32.185 39.1068 30.7285 38.6788 30.1277C38.5461 29.9412 38.4375 29.7366 38.4375 29.673C38.4375 29.1861 41.3179 28.8745 42.4353 29.2405C43.5093 29.5921 44.1605 29.9814 44.882 30.7029C46.0104 31.8313 46.4036 32.7805 46.52 34.6573C46.6148 36.1874 46.7508 36.4458 47.4609 36.4458C48.1991 36.4458 48.3443 36.1629 48.315 34.7831C48.2678 32.5625 47.625 30.9846 46.1736 29.5254C45.6893 29.0385 45.015 28.4889 44.6753 28.3043L44.0576 27.9685L44.4575 27.6389C45.0162 27.1783 45.639 26.1989 45.9403 25.3069C46.15 24.6862 46.1877 24.3528 46.1514 23.4369C46.1123 22.4504 46.0589 22.2206 45.6868 21.4371C45.4155 20.8658 45.0452 20.3308 44.6428 19.9283C44.2404 19.5259 43.7053 19.1556 43.134 18.8843C42.3505 18.5123 42.1207 18.4588 41.1342 18.4198C39.4263 18.3522 38.2032 18.8368 37.023 20.0483L36.4758 20.6102L36.3995 19.9442C36.1479 17.7462 34.7468 15.7726 32.7735 14.8362C31.3956 14.1825 29.9006 14.0117 28.5084 14.349ZM31.9324 16.3895C34.8919 17.7742 35.5761 21.601 33.2756 23.9014C31.4493 25.7278 28.5507 25.7278 26.7244 23.9014C24.8905 22.0676 24.8855 19.1666 26.7131 17.339C27.2999 16.7524 28.1692 16.2467 28.9155 16.0582C29.745 15.8485 31.0929 15.9965 31.9324 16.3895ZM20.6836 20.4769C21.2764 20.7844 21.9804 21.4846 22.3061 22.0906C22.6709 22.7696 22.6709 24.5757 22.3061 25.2546C21.984 25.8539 21.2829 26.555 20.6836 26.8771C20.0046 27.2419 18.1985 27.2419 17.5195 26.8771C16.9202 26.555 16.2191 25.8539 15.8971 25.2546C15.5323 24.5757 15.5323 22.7696 15.8971 22.0906C16.3427 21.2612 17.1888 20.5404 18.0462 20.2597C18.5893 20.082 20.1736 20.2124 20.6836 20.4769ZM42.4805 20.4769C43.0733 20.7844 43.7773 21.4846 44.1029 22.0906C44.3101 22.4761 44.3548 22.7572 44.3548 23.6726C44.3548 24.9418 44.1833 25.3912 43.4002 26.1743C42.617 26.9575 42.1676 27.1289 40.8984 27.1289C39.6293 27.1289 39.1799 26.9575 38.3967 26.1743C37.6136 25.3912 37.4421 24.9418 37.4421 23.6726C37.4421 22.4035 37.6137 21.9538 38.3967 21.1712C39.2057 20.3629 39.7896 20.1506 41.0742 20.1987C41.7409 20.2236 42.1472 20.304 42.4805 20.4769ZM25.6062 25.2606L26.3307 25.9697L25.4214 26.4159C24.9213 26.6614 24.1291 27.1676 23.6611 27.5406C22.9075 28.1411 22.7784 28.2045 22.5353 28.0937L22.2606 27.9686L22.6607 27.6389C23.4847 26.9597 24.3694 25.206 24.3787 24.233L24.3824 23.8484L24.632 24.2C24.7693 24.3933 25.2076 24.8706 25.6062 25.2606ZM35.9295 25.5443C36.2011 26.2678 36.8556 27.2401 37.3393 27.6389L37.7394 27.9686L37.4647 28.0937C37.2216 28.2045 37.0925 28.1411 36.3389 27.5406C35.8709 27.1676 35.0742 26.6592 34.5687 26.4111L33.6493 25.9599L34.2609 25.4148C34.5973 25.1151 35.0286 24.6445 35.2194 24.3691L35.5664 23.8685L35.6483 24.441C35.6933 24.756 35.8199 25.2524 35.9295 25.5443ZM2.17793 27.4294C0.998789 27.6268 0 28.806 0 30.0006C0 30.74 0.490664 31.6738 1.11621 32.125C1.74469 32.5782 2.53336 32.6945 4.98047 32.6945C6.07617 32.6945 7.28777 32.6429 7.67285 32.5799C8.57777 32.4318 9.21668 31.9741 9.63867 31.1722C10.07 30.3524 10.07 29.6488 9.63867 28.829C9.21668 28.0271 8.57777 27.5695 7.67285 27.4214C6.8441 27.2857 3.0027 27.2913 2.17793 27.4294ZM52.217 27.4294C51.0378 27.6268 50.0391 28.806 50.0391 30.0006C50.0391 30.74 50.5297 31.6738 51.1553 32.125C51.7837 32.5782 52.5724 32.6945 55.0195 32.6945C57.4666 32.6945 58.2553 32.5782 58.8838 32.125C59.5093 31.6738 60 30.74 60 30.0006C60 29.2613 59.5093 28.3275 58.8838 27.8763C58.5804 27.6574 58.1623 27.4951 57.7119 27.4214C56.8832 27.2857 53.0418 27.2913 52.217 27.4294ZM7.80469 29.27C8.04152 29.4282 8.22387 29.9022 8.15438 30.1791C7.99641 30.8082 7.93313 30.821 5.00145 30.8192C3.50742 30.8181 2.22715 30.7786 2.15625 30.7313C1.91941 30.5731 1.73707 30.0991 1.80656 29.8222C1.96453 29.1931 2.02781 29.1802 4.95949 29.1821C6.45352 29.1831 7.73379 29.2226 7.80469 29.27ZM57.8438 29.27C58.0806 29.4282 58.2629 29.9022 58.1934 30.1791C58.0355 30.8082 57.9722 30.821 55.0405 30.8192C53.5465 30.8181 52.2662 30.7786 52.1953 30.7313C51.9585 30.5731 51.7761 30.0991 51.8456 29.8222C52.0036 29.1931 52.0669 29.1802 54.9986 29.1821C56.4926 29.1831 57.7729 29.2226 57.8438 29.27ZM33.9674 32.6983C33.8614 32.7602 32.9447 34.0111 31.9303 35.478C30.9158 36.9448 30.04 38.1953 29.9838 38.2568C29.9222 38.3244 29.1722 37.6643 28.0867 36.5869C26.4254 34.9381 26.1526 34.7369 25.6641 34.8002C25.3482 34.8412 25.0391 35.2505 25.0391 35.6276C25.0391 35.9466 25.3194 36.2758 27.1972 38.1615C28.3843 39.3534 29.4975 40.4041 29.6712 40.4962C30.0282 40.6857 30.4066 40.5929 30.7215 40.2385C30.8284 40.1183 31.8962 38.6039 33.0946 36.8731C34.6102 34.6842 35.2734 33.6295 35.2734 33.4088C35.2734 32.7769 34.5278 32.3712 33.9674 32.6983ZM1.6643 43.5937C1.11164 43.8279 0.588398 44.3345 0.298711 44.9157C0.0029297 45.5093 0 45.5431 0 48.397C0 51.6758 0.0904688 52.2429 0.77918 53.2805C1.29129 54.0519 2.0202 54.6303 2.91176 54.9728C3.49535 55.1969 3.87398 55.234 6.09375 55.2841C9.9825 55.372 10.7993 55.1467 11.5137 53.789C11.945 52.9691 11.945 52.2656 11.5137 51.4457C10.8523 50.1887 10.0781 49.924 7.06055 49.9228L5.27344 49.9221V47.7089C5.27344 45.5212 5.26969 45.4887 4.95117 44.8834C4.7577 44.5156 4.42629 44.1246 4.12184 43.905C3.68191 43.5875 3.50355 43.5353 2.77418 43.5095C2.31188 43.4931 1.81242 43.531 1.6643 43.5937ZM56.3909 43.5937C55.8382 43.8279 55.315 44.3345 55.0253 44.9157C54.737 45.4943 54.7266 45.5918 54.7266 47.7185V49.9221L52.9395 49.9228C50.6965 49.9236 49.8969 50.0482 49.2803 50.493C48.6547 50.9442 48.1641 51.878 48.1641 52.6173C48.1641 53.3583 48.6546 54.2904 49.2834 54.744C49.9743 55.2423 50.9111 55.3517 53.9062 55.2841C56.126 55.234 56.5047 55.1969 57.0882 54.9728C57.9798 54.6303 58.7087 54.0519 59.2208 53.2805C59.9099 52.2422 60 51.6767 60 48.3874V45.4958L59.6777 44.8834C59.4843 44.5156 59.1529 44.1246 58.8484 43.905C58.4085 43.5875 58.2301 43.5353 57.5007 43.5095C57.0384 43.4931 56.539 43.531 56.3909 43.5937ZM3.11719 45.3243C3.46148 45.5542 3.51562 45.9785 3.51562 48.444C3.51562 50.1063 3.56191 51.0673 3.65145 51.2639C3.85758 51.7163 4.3732 51.7956 7.11082 51.7963C9.75469 51.797 9.83906 51.8144 10.0225 52.3923C10.1304 52.7322 9.86273 53.3112 9.56309 53.3864C9.42504 53.4211 7.98656 53.4335 6.36645 53.4142L3.42094 53.379L2.91164 53.0113C2.6052 52.7902 2.27391 52.3996 2.08008 52.0312L1.75781 51.4188V48.6706C1.75781 45.455 1.81324 45.2383 2.63672 45.2383C2.83008 45.2383 3.04629 45.277 3.11719 45.3243ZM57.8438 45.3243C58.1923 45.5571 58.2422 45.9766 58.2422 48.6706V51.4188L57.9199 52.0312C57.7261 52.3996 57.3948 52.7902 57.0884 53.0113L56.5791 53.379L53.6336 53.4142C52.0134 53.4335 50.575 53.4211 50.4369 53.3864C50.1373 53.3112 49.8696 52.7322 49.9775 52.3923C50.1609 51.8144 50.2453 51.797 52.8892 51.7963C55.6268 51.7956 56.1424 51.7163 56.3486 51.2639C56.4381 51.0673 56.4844 50.1063 56.4844 48.444C56.4844 45.4755 56.5494 45.2383 57.3633 45.2383C57.5566 45.2383 57.7729 45.277 57.8438 45.3243ZM28.8284 50.3615C28.0264 50.7835 27.5688 51.4224 27.4207 52.3273C27.3577 52.7124 27.3061 53.924 27.3061 55.0196C27.3061 57.4667 27.4223 58.2553 27.8756 58.8838C28.3268 59.5093 29.2607 60 30 60C30.7393 60 31.6732 59.5093 32.1244 58.8838C32.5777 58.2553 32.6939 57.4667 32.6939 55.0196C32.6939 52.5726 32.5777 51.7839 32.1244 51.1555C31.6732 50.5299 30.7393 50.0393 30 50.0393C29.6166 50.0393 29.2482 50.1405 28.8284 50.3615ZM30.3886 51.9318C30.5293 52.0059 30.6833 52.1246 30.7307 52.1955C30.778 52.2664 30.8175 53.5466 30.8186 55.0406C30.8204 57.9722 30.8075 58.0355 30.1785 58.1935C29.9016 58.263 29.4275 58.0806 29.2693 57.8438C29.222 57.7729 29.1833 56.502 29.1833 55.0196C29.1833 53.5372 29.222 52.2672 29.2693 52.1972C29.3828 52.0297 29.7843 51.8051 29.9784 51.8006C30.0632 51.7987 30.2477 51.8576 30.3886 51.9318Z" fill="url(#paint0_linear_472_755)"/>
<defs>
<linearGradient id="paint0_linear_472_755" x1="12.6329" y1="1.0156e-06" x2="47.2552" y2="59.8885" gradientUnits="userSpaceOnUse">
<stop stop-color="#6386FF"/>
<stop offset="1" stop-color="#938AFF"/>
</linearGradient>
</defs>
</svg>
