<svg width="38" height="32" viewBox="0 0 38 32" fill="none" xmlns="http://www.w3.org/2000/svg">
<path fill-rule="evenodd" clip-rule="evenodd" d="M35.4406 0.173831C32.9111 1.1146 1.73715 13.2231 1.278 13.4431C-0.247745 14.1743 -0.426116 15.14 0.844034 15.7932C0.966664 15.8562 3.07672 16.5385 5.53304 17.3093L9.99915 18.7106L20.1403 12.2968C25.7179 8.76912 30.3937 5.84326 30.531 5.79494C30.8754 5.67351 31.1718 5.68486 31.3102 5.82477C31.407 5.92268 31.411 5.97183 31.334 6.11572C31.2831 6.21093 27.5792 9.61168 23.1032 13.6729C18.6273 17.7342 14.953 21.0888 14.9382 21.1277C14.9235 21.1666 14.7721 23.1942 14.6018 25.6335L14.2922 30.0687L14.6286 30.0228C14.8137 29.9975 15.1067 29.9009 15.2798 29.8081C15.453 29.7154 16.6183 28.6482 17.8695 27.4366C19.1206 26.2249 20.1876 25.2168 20.2406 25.1963C20.2935 25.1757 22.286 26.6027 24.6683 28.3672C27.0505 30.1318 29.1864 31.6628 29.4145 31.7693C30.0129 32.0489 30.6871 32.0767 31.1249 31.8398C31.516 31.6282 31.8982 31.1027 32.059 30.5554C32.1212 30.3436 33.4831 23.9814 35.0855 16.417C37.7535 3.82285 37.9991 2.60353 38 1.94988C38.0009 1.33229 37.9754 1.18539 37.8118 0.860324C37.6964 0.631142 37.4996 0.397151 37.3072 0.260394C36.8675 -0.0523452 36.1394 -0.0860838 35.4406 0.173831Z" fill="#6386FF"/>
</svg>
