<svg width="80" height="80" viewBox="0 0 80 80" fill="none" xmlns="http://www.w3.org/2000/svg">
<path fill-rule="evenodd" clip-rule="evenodd" d="M40 80C62.0914 80 80 62.0914 80 40C80 17.9086 62.0914 0 40 0C17.9086 0 0 17.9086 0 40C0 62.0914 17.9086 80 40 80ZM22.278 37.4431C22.7372 37.2231 53.9111 25.1146 56.4406 24.1738C57.1394 23.9139 57.8675 23.9477 58.3072 24.2604C58.4996 24.3972 58.6964 24.6311 58.8118 24.8603C58.9754 25.1854 59.0009 25.3323 59 25.9499C58.9991 26.6035 58.7535 27.8229 56.0855 40.417C54.4831 47.9814 53.1212 54.3436 53.059 54.5554C52.8982 55.1027 52.516 55.6282 52.1249 55.8398C51.6871 56.0767 51.0129 56.0489 50.4145 55.7693C50.1864 55.6628 48.0505 54.1318 45.6683 52.3672C43.286 50.6027 41.2935 49.1757 41.2406 49.1963C41.1876 49.2169 40.1206 50.2249 38.8695 51.4366C37.6183 52.6482 36.453 53.7154 36.2798 53.8081C36.1067 53.9009 35.8137 53.9975 35.6286 54.0228L35.2922 54.0687L35.6018 49.6335C35.7721 47.1942 35.9235 45.1666 35.9382 45.1277C35.953 45.0888 39.6273 41.7342 44.1032 37.6729C48.5792 33.6117 52.2831 30.2109 52.334 30.1157C52.411 29.9718 52.407 29.9227 52.3102 29.8248C52.1718 29.6849 51.8754 29.6735 51.531 29.7949C51.3937 29.8433 46.7179 32.7691 41.1403 36.2968L30.9991 42.7106L26.533 41.3093C24.0767 40.5385 21.9667 39.8562 21.844 39.7932C20.5739 39.14 20.7523 38.1743 22.278 37.4431Z" fill="#6386FF"/>
</svg>
