<svg width="80" height="80" viewBox="0 0 80 80" fill="none" xmlns="http://www.w3.org/2000/svg">
<path fill-rule="evenodd" clip-rule="evenodd" d="M40 80C62.0914 80 80 62.0914 80 40C80 17.9086 62.0914 0 40 0C17.9086 0 0 17.9086 0 40C0 62.0914 17.9086 80 40 80ZM34.1149 27.3681C34.5394 27.2365 35.6003 27.0748 36.4372 27.014C36.6737 26.9968 37.8155 26.9952 38.9745 27.0105C41.8367 27.048 42.9039 27.262 43.3417 27.886C43.7862 28.5194 43.7971 28.6611 43.7717 33.4589L43.7481 37.9203L43.9808 38.3937C44.2328 38.9062 44.5652 39.1663 44.9684 39.1663C45.2572 39.1663 46.1229 38.4871 46.68 37.8235C48.0798 36.156 50.2039 32.4549 51.2356 29.8858C51.6229 28.9213 51.9319 28.4196 52.2233 28.282C52.3732 28.2113 53.7083 28.1735 56.7788 28.1531L61.1224 28.1242L61.4845 28.3176C61.9934 28.5893 62.1056 28.9744 61.9084 29.7727C61.5722 31.1337 60.363 33.0642 57.3432 37.061C55.2024 39.8943 54.8856 40.4147 54.8885 41.092C54.8919 41.8988 55.0622 42.1233 57.5006 44.535C59.7969 46.8061 60.4714 47.5625 61.2565 48.747C61.8538 49.6482 61.9782 50.0327 61.9482 50.8857C61.9373 51.1974 61.4576 51.6674 61.0123 51.8029C60.5626 51.9396 53.5963 52.0725 53.0804 51.9543C52.8675 51.9055 52.345 51.6989 51.9192 51.4952C50.9745 51.0433 50.3425 50.4798 48.6326 48.5649C46.8089 46.5225 46.3201 46.1602 45.4471 46.2031C45.197 46.2155 44.6138 46.7437 44.3456 47.2011C44.0414 47.7195 43.8202 48.6899 43.748 49.8217C43.6748 50.9686 43.5534 51.3374 43.1612 51.6047C42.685 51.9293 42.0392 51.9941 39.7916 51.9427C37.5332 51.891 36.8747 51.7939 35.362 51.2888C34.2611 50.9213 33.3705 50.4807 32.1366 49.693C29.4941 48.0062 28.3497 46.8722 25.7633 43.3769C24.0047 41.0005 22.3596 38.2769 20.4173 34.5261C19.4197 32.5995 18.0659 29.5931 18.0094 29.1787C17.9565 28.7918 18.127 28.4943 18.5261 28.2764C18.7779 28.139 19.151 28.1218 22.3743 28.0986L25.9438 28.073L26.4168 28.3135C26.9771 28.5983 27.1332 28.8147 27.626 29.9898C28.0338 30.9621 29.8613 34.6057 30.5107 35.741C32.3354 38.9311 33.9911 40.0818 34.7121 38.6605C34.9808 38.1306 35.0574 37.7919 35.2386 36.3306C35.5129 34.12 35.2836 30.9972 34.7738 29.9988C34.4755 29.4148 33.8101 28.9677 33.0212 28.8213C32.8455 28.7887 32.6764 28.7212 32.6455 28.6713C32.4776 28.3997 33.3859 27.594 34.1149 27.3681Z" fill="#6386FF"/>
</svg>
