<svg width="44" height="25" viewBox="0 0 44 25" fill="none" xmlns="http://www.w3.org/2000/svg">
<path fill-rule="evenodd" clip-rule="evenodd" d="M18.4372 0.0140189C17.6003 0.0747719 16.5394 0.236493 16.1149 0.368053C15.3859 0.593965 14.4776 1.39965 14.6455 1.67128C14.6764 1.7212 14.8455 1.78875 15.0212 1.82131C15.8101 1.96765 16.4755 2.41475 16.7738 2.99882C17.2836 3.99725 17.5129 7.11997 17.2386 9.33062C17.0574 10.7919 16.9808 11.1306 16.7121 11.6605C15.9911 13.0818 14.3354 11.9311 12.5107 8.74097C11.8613 7.60574 10.0338 3.96211 9.62602 2.9898C9.13317 1.8147 8.97715 1.59832 8.41679 1.31346L7.94381 1.07303L4.37434 1.09864C1.15099 1.12175 0.77787 1.13902 0.526115 1.27643C0.127023 1.49435 -0.0434517 1.79184 0.00935923 2.1787C0.0658686 2.59314 1.41969 5.59951 2.41733 7.52608C4.35964 11.2769 6.00469 14.0005 7.76327 16.3769C10.3497 19.8722 11.4941 21.0062 14.1366 22.693C15.3705 23.4807 16.2611 23.9213 17.362 24.2888C18.8747 24.7939 19.5332 24.891 21.7916 24.9427C24.0392 24.9941 24.685 24.9293 25.1612 24.6047C25.5534 24.3374 25.6748 23.9686 25.748 22.8217C25.8202 21.69 26.0414 20.7194 26.3456 20.2011C26.6138 19.7437 27.197 19.2155 27.4471 19.2031C28.3201 19.1602 28.8089 19.5225 30.6326 21.5649C32.3425 23.4798 32.9745 24.0433 33.9192 24.4952C34.345 24.6989 34.8675 24.9055 35.0804 24.9543C35.5963 25.0725 42.5626 24.9396 43.0123 24.8029C43.4576 24.6674 43.9373 24.1974 43.9482 23.8857C43.9782 23.0327 43.8538 22.6482 43.2565 21.747C42.4714 20.5625 41.7969 19.8061 39.5006 17.535C37.0622 15.1233 36.8919 14.8988 36.8885 14.092C36.8856 13.4147 37.2024 12.8943 39.3432 10.061C42.363 6.06423 43.5722 4.13371 43.9084 2.77265C44.1056 1.97444 43.9934 1.5893 43.4845 1.31759L43.1224 1.12424L38.7788 1.15312C35.7083 1.17348 34.3732 1.21129 34.2233 1.28201C33.9319 1.41959 33.6229 1.92125 33.2356 2.88582C32.2039 5.45489 30.0798 9.15601 28.68 10.8235C28.1229 11.4871 27.2572 12.1663 26.9684 12.1663C26.5652 12.1663 26.2328 11.9062 25.9808 11.3936L25.7481 10.9203L25.7717 6.45891C25.7971 1.66114 25.7862 1.51944 25.3417 0.885957C24.9039 0.262015 23.8367 0.0480474 20.9745 0.0104957C19.8155 -0.00479994 18.6737 -0.00316723 18.4372 0.0140189Z" fill="#FFF"/>
</svg>
