<svg width="80" height="80" viewBox="0 0 80 80" fill="none" xmlns="http://www.w3.org/2000/svg">
<path fill-rule="evenodd" clip-rule="evenodd" d="M40 80C62.0914 80 80 62.0914 80 40C80 17.9086 62.0914 0 40 0C17.9086 0 0 17.9086 0 40C0 62.0914 17.9086 80 40 80ZM30.7743 22.2385C33.2476 20.9598 35.528 20.3072 38.5521 20.0129C38.7244 19.9961 39.5703 19.9956 40.4318 20.0118C41.9737 20.0407 43.2442 20.1848 44.4653 20.4691C51.7326 22.1616 57.492 27.7392 59.3815 34.9148C59.8748 36.7882 60 37.8152 60 39.9894C60 42.1637 59.8748 43.1906 59.3815 45.0641C57.7708 51.1807 53.2586 56.2702 47.3838 58.5967C42.1988 60.6499 36.4103 60.4428 31.3466 58.0228C30.7866 57.7551 30.0349 57.354 29.6761 57.1313C29.3173 56.9086 28.9959 56.7264 28.9618 56.7264C28.9278 56.7264 27.1964 57.2706 25.1143 57.9357C23.0322 58.6008 21.3178 59.1341 21.3045 59.1208C21.2913 59.1076 21.8412 57.4436 22.5267 55.423L23.7729 51.7492L23.2119 50.8874C21.5287 48.3019 20.5223 45.5402 20.0953 42.3357C20.0392 41.9143 19.998 40.831 20.0001 39.833C20.0044 37.8283 20.1433 36.7267 20.6205 34.9148C20.9991 33.4771 21.3404 32.5785 22.0646 31.1126C23.9497 27.2969 26.9986 24.1906 30.7743 22.2385ZM34.1793 29.7167C34.0868 29.5512 33.9051 29.3608 33.7754 29.2936C33.6239 29.215 33.2735 29.1625 32.7955 29.1466C31.6689 29.1091 30.9203 29.3442 30.3483 29.9156C29.1657 31.0964 28.5802 32.3316 28.4097 34.0048C28.1972 36.0917 28.9113 38.1478 30.7735 40.8106C31.9035 42.4265 32.8916 43.6077 34.2819 45.0047C37.0605 47.7968 39.1111 49.0705 42.9743 50.4039C45.8538 51.3978 47.3246 51.4227 49.2037 50.5095C51.1801 49.549 51.9273 48.4443 52.0397 46.3168L52.0834 45.4881L51.8183 45.2885C51.5414 45.0798 47.5977 43.162 46.9526 42.9222C46.4497 42.7354 46.0012 42.7993 45.6991 43.1009C45.5728 43.2271 45.129 43.7829 44.7129 44.336C43.7956 45.5553 43.5769 45.7248 42.9772 45.6815C41.8109 45.5975 39.1934 44.0431 37.4616 42.4062C36.3456 41.3513 34.5343 38.9525 34.403 38.3557C34.3307 38.0268 34.5053 37.734 35.3177 36.822C36.0962 35.9479 36.4432 35.3455 36.3723 34.9911C36.3168 34.7141 34.4128 30.1346 34.1793 29.7167Z" fill="#6386FF"/>
</svg>
