<svg width="40" height="40" viewBox="0 0 40 40" fill="none" xmlns="http://www.w3.org/2000/svg">
<path fill-rule="evenodd" clip-rule="evenodd" d="M18.5521 0.0129312C15.528 0.307236 13.2476 0.95982 10.7743 2.23848C6.99856 4.1906 3.9497 7.29695 2.06461 11.1126C1.34038 12.5785 0.999056 13.4771 0.620533 14.9148C0.143326 16.7267 0.00438548 17.8283 7.78528e-05 19.833C-0.0020368 20.831 0.0391598 21.9143 0.0953156 22.3357C0.522319 25.5402 1.52874 28.3019 3.21192 30.8874L3.77293 31.7492L2.5267 35.423C1.84124 37.4436 1.29127 39.1076 1.30451 39.1208C1.31782 39.1341 3.03218 38.6008 5.11425 37.9357C7.1964 37.2706 8.92775 36.7264 8.96182 36.7264C8.99589 36.7264 9.31732 36.9086 9.6761 37.1313C10.0349 37.354 10.7866 37.7551 11.3466 38.0228C16.4103 40.4428 22.1988 40.6499 27.3838 38.5967C33.2586 36.2702 37.7708 31.1807 39.3815 25.0641C39.8748 23.1906 40 22.1637 40 19.9894C40 17.8152 39.8748 16.7882 39.3815 14.9148C37.492 7.73922 31.7326 2.1616 24.4653 0.46913C23.2442 0.184759 21.9737 0.0406957 20.4318 0.0118362C19.5703 -0.00435326 18.7244 -0.003884 18.5521 0.0129312ZM13.7754 9.29357C13.9051 9.36075 14.0868 9.55119 14.1793 9.71669C14.4128 10.1346 16.3168 14.7141 16.3723 14.9911C16.4432 15.3455 16.0962 15.9479 15.3177 16.822C14.5053 17.734 14.3307 18.0268 14.403 18.3557C14.5343 18.9525 16.3456 21.3513 17.4616 22.4062C19.1934 24.0431 21.8109 25.5975 22.9772 25.6815C23.5769 25.7248 23.7956 25.5553 24.7129 24.336C25.129 23.7829 25.5728 23.2271 25.6991 23.1009C26.0012 22.7993 26.4497 22.7354 26.9526 22.9222C27.5977 23.162 31.5414 25.0798 31.8183 25.2885L32.0834 25.4881L32.0397 26.3168C31.9273 28.4443 31.1801 29.549 29.2037 30.5095C27.3246 31.4227 25.8538 31.3978 22.9743 30.4039C19.1111 29.0705 17.0605 27.7968 14.2819 25.0047C12.8916 23.6077 11.9035 22.4265 10.7735 20.8106C8.91131 18.1478 8.19718 16.0917 8.40974 14.0048C8.58017 12.3316 9.16569 11.0964 10.3483 9.91558C10.9203 9.34425 11.6689 9.10907 12.7955 9.14661C13.2735 9.16249 13.6239 9.21505 13.7754 9.29357Z" fill="#FFF"/>
</svg>
